G04 #@! TF.GenerationSoftware,KiCad,Pcbnew,(5.1.5)-3*
G04 #@! TF.CreationDate,2020-05-23T22:10:46-07:00*
G04 #@! TF.ProjectId,iSpindel_PCB,69537069-6e64-4656-9c5f-5043422e6b69,rev?*
G04 #@! TF.SameCoordinates,Original*
G04 #@! TF.FileFunction,Copper,L1,Top*
G04 #@! TF.FilePolarity,Positive*
%FSLAX46Y46*%
G04 Gerber Fmt 4.6, Leading zero omitted, Abs format (unit mm)*
G04 Created by KiCad (PCBNEW (5.1.5)-3) date 2020-05-23 22:10:46*
%MOMM*%
%LPD*%
G04 APERTURE LIST*
%ADD10R,2.800000X2.800000*%
%ADD11C,1.600000*%
%ADD12O,1.600000X1.600000*%
%ADD13O,2.000000X1.600000*%
%ADD14R,2.000000X2.000000*%
%ADD15O,1.600000X2.000000*%
%ADD16C,1.800000*%
%ADD17C,0.100000*%
%ADD18O,1.800000X3.000000*%
%ADD19R,1.600000X1.600000*%
%ADD20C,1.300000*%
%ADD21R,1.300000X1.300000*%
%ADD22C,1.000000*%
%ADD23C,0.250000*%
%ADD24C,0.500000*%
%ADD25C,2.000000*%
%ADD26C,0.254000*%
G04 APERTURE END LIST*
D10*
X141732400Y-40562000D03*
X155932400Y-40562000D03*
X141732400Y-63462000D03*
X155932400Y-63462000D03*
X145272400Y-63462000D03*
X152392400Y-63462000D03*
D11*
X152771800Y-55016400D03*
D12*
X145151800Y-55016400D03*
D13*
X160299400Y-56946800D03*
X160299400Y-59486800D03*
X160299400Y-62026800D03*
X160299400Y-64566800D03*
X137439400Y-56946800D03*
X137439400Y-51866800D03*
D14*
X137439400Y-46786800D03*
D13*
X137439400Y-49326800D03*
D15*
X161810000Y-40195000D03*
X159270000Y-40195000D03*
D16*
X141869400Y-117372000D03*
X141869400Y-119912000D03*
X141869400Y-122452000D03*
X141869400Y-124992000D03*
G04 #@! TA.AperFunction,WasherPad*
D17*
G36*
X141013081Y-134595306D02*
G01*
X141180532Y-134620145D01*
X141344742Y-134661278D01*
X141504130Y-134718308D01*
X141657160Y-134790686D01*
X141802360Y-134877715D01*
X141938329Y-134978557D01*
X142063760Y-135092241D01*
X142177444Y-135217672D01*
X142278286Y-135353641D01*
X142365315Y-135498841D01*
X142437693Y-135651871D01*
X142494723Y-135811259D01*
X142535856Y-135975469D01*
X142560695Y-136142920D01*
X142569001Y-136312000D01*
X142569001Y-146312000D01*
X142560695Y-146481080D01*
X142535856Y-146648531D01*
X142494723Y-146812741D01*
X142437693Y-146972129D01*
X142365315Y-147125159D01*
X142278286Y-147270359D01*
X142177444Y-147406328D01*
X142063760Y-147531759D01*
X141938329Y-147645443D01*
X141802360Y-147746285D01*
X141657160Y-147833314D01*
X141504130Y-147905692D01*
X141344742Y-147962722D01*
X141180532Y-148003855D01*
X141013081Y-148028694D01*
X140844001Y-148037000D01*
X140843999Y-148037000D01*
X140674919Y-148028694D01*
X140507468Y-148003855D01*
X140343258Y-147962722D01*
X140183870Y-147905692D01*
X140030840Y-147833314D01*
X139885640Y-147746285D01*
X139749671Y-147645443D01*
X139624240Y-147531759D01*
X139510556Y-147406328D01*
X139409714Y-147270359D01*
X139322685Y-147125159D01*
X139250307Y-146972129D01*
X139193277Y-146812741D01*
X139152144Y-146648531D01*
X139127305Y-146481080D01*
X139118999Y-146312000D01*
X139118999Y-136312000D01*
X139127305Y-136142920D01*
X139152144Y-135975469D01*
X139193277Y-135811259D01*
X139250307Y-135651871D01*
X139322685Y-135498841D01*
X139409714Y-135353641D01*
X139510556Y-135217672D01*
X139624240Y-135092241D01*
X139749671Y-134978557D01*
X139885640Y-134877715D01*
X140030840Y-134790686D01*
X140183870Y-134718308D01*
X140343258Y-134661278D01*
X140507468Y-134620145D01*
X140674919Y-134595306D01*
X140843999Y-134587000D01*
X140844001Y-134587000D01*
X141013081Y-134595306D01*
G37*
G04 #@! TD.AperFunction*
G04 #@! TA.AperFunction,WasherPad*
G36*
X157013081Y-79395306D02*
G01*
X157180532Y-79420145D01*
X157344742Y-79461278D01*
X157504130Y-79518308D01*
X157657160Y-79590686D01*
X157802360Y-79677715D01*
X157938329Y-79778557D01*
X158063760Y-79892241D01*
X158177444Y-80017672D01*
X158278286Y-80153641D01*
X158365315Y-80298841D01*
X158437693Y-80451871D01*
X158494723Y-80611259D01*
X158535856Y-80775469D01*
X158560695Y-80942920D01*
X158569001Y-81112000D01*
X158569001Y-91112000D01*
X158560695Y-91281080D01*
X158535856Y-91448531D01*
X158494723Y-91612741D01*
X158437693Y-91772129D01*
X158365315Y-91925159D01*
X158278286Y-92070359D01*
X158177444Y-92206328D01*
X158063760Y-92331759D01*
X157938329Y-92445443D01*
X157802360Y-92546285D01*
X157657160Y-92633314D01*
X157504130Y-92705692D01*
X157344742Y-92762722D01*
X157180532Y-92803855D01*
X157013081Y-92828694D01*
X156844001Y-92837000D01*
X156843999Y-92837000D01*
X156674919Y-92828694D01*
X156507468Y-92803855D01*
X156343258Y-92762722D01*
X156183870Y-92705692D01*
X156030840Y-92633314D01*
X155885640Y-92546285D01*
X155749671Y-92445443D01*
X155624240Y-92331759D01*
X155510556Y-92206328D01*
X155409714Y-92070359D01*
X155322685Y-91925159D01*
X155250307Y-91772129D01*
X155193277Y-91612741D01*
X155152144Y-91448531D01*
X155127305Y-91281080D01*
X155118999Y-91112000D01*
X155118999Y-81112000D01*
X155127305Y-80942920D01*
X155152144Y-80775469D01*
X155193277Y-80611259D01*
X155250307Y-80451871D01*
X155322685Y-80298841D01*
X155409714Y-80153641D01*
X155510556Y-80017672D01*
X155624240Y-79892241D01*
X155749671Y-79778557D01*
X155885640Y-79677715D01*
X156030840Y-79590686D01*
X156183870Y-79518308D01*
X156343258Y-79461278D01*
X156507468Y-79420145D01*
X156674919Y-79395306D01*
X156843999Y-79387000D01*
X156844001Y-79387000D01*
X157013081Y-79395306D01*
G37*
G04 #@! TD.AperFunction*
G04 #@! TA.AperFunction,WasherPad*
G36*
X140961131Y-71592754D02*
G01*
X141077134Y-71609962D01*
X141190891Y-71638456D01*
X141301308Y-71677964D01*
X141407320Y-71728104D01*
X141507907Y-71788394D01*
X141602101Y-71858253D01*
X141688994Y-71937007D01*
X141767748Y-72023900D01*
X141837607Y-72118094D01*
X141897897Y-72218681D01*
X141948037Y-72324693D01*
X141987545Y-72435110D01*
X142016039Y-72548867D01*
X142033247Y-72664870D01*
X142039001Y-72782000D01*
X142039001Y-82782000D01*
X142033247Y-82899130D01*
X142016039Y-83015133D01*
X141987545Y-83128890D01*
X141948037Y-83239307D01*
X141897897Y-83345319D01*
X141837607Y-83445906D01*
X141767748Y-83540100D01*
X141688994Y-83626993D01*
X141602101Y-83705747D01*
X141507907Y-83775606D01*
X141407320Y-83835896D01*
X141301308Y-83886036D01*
X141190891Y-83925544D01*
X141077134Y-83954038D01*
X140961131Y-83971246D01*
X140844001Y-83977000D01*
X140843999Y-83977000D01*
X140726869Y-83971246D01*
X140610866Y-83954038D01*
X140497109Y-83925544D01*
X140386692Y-83886036D01*
X140280680Y-83835896D01*
X140180093Y-83775606D01*
X140085899Y-83705747D01*
X139999006Y-83626993D01*
X139920252Y-83540100D01*
X139850393Y-83445906D01*
X139790103Y-83345319D01*
X139739963Y-83239307D01*
X139700455Y-83128890D01*
X139671961Y-83015133D01*
X139654753Y-82899130D01*
X139648999Y-82782000D01*
X139648999Y-72782000D01*
X139654753Y-72664870D01*
X139671961Y-72548867D01*
X139700455Y-72435110D01*
X139739963Y-72324693D01*
X139790103Y-72218681D01*
X139850393Y-72118094D01*
X139920252Y-72023900D01*
X139999006Y-71937007D01*
X140085899Y-71858253D01*
X140180093Y-71788394D01*
X140280680Y-71728104D01*
X140386692Y-71677964D01*
X140497109Y-71638456D01*
X140610866Y-71609962D01*
X140726869Y-71592754D01*
X140843999Y-71587000D01*
X140844001Y-71587000D01*
X140961131Y-71592754D01*
G37*
G04 #@! TD.AperFunction*
D11*
X148842400Y-41292600D03*
X150842400Y-41292600D03*
X146842400Y-41292600D03*
D18*
X153142400Y-41292600D03*
X144542400Y-41292600D03*
D12*
X152323800Y-44729400D03*
D11*
X152323800Y-52349400D03*
D19*
X145389600Y-52324000D03*
D12*
X145389600Y-44704000D03*
D20*
X148831300Y-140000000D03*
X150990300Y-140000000D03*
D21*
X146672300Y-140000000D03*
D22*
X143200000Y-66700000D03*
X140300000Y-68400000D03*
D23*
X137896600Y-52324000D02*
X137439400Y-51866800D01*
D24*
X144932400Y-51866800D02*
X145389600Y-52324000D01*
X137439400Y-51866800D02*
X144932400Y-51866800D01*
X137439400Y-46786800D02*
X140634720Y-46786800D01*
X142717520Y-44704000D02*
X145389600Y-44704000D01*
X140634720Y-46786800D02*
X142717520Y-44704000D01*
X137439400Y-59839400D02*
X139000000Y-61400000D01*
X137439400Y-56946800D02*
X137439400Y-59839400D01*
X142492894Y-66700000D02*
X143200000Y-66700000D01*
X141080398Y-66700000D02*
X142492894Y-66700000D01*
X139000000Y-64619602D02*
X141080398Y-66700000D01*
X139000000Y-61400000D02*
X139000000Y-64619602D01*
D23*
X152374600Y-54619200D02*
X152771800Y-55016400D01*
D24*
X152771800Y-52797400D02*
X152323800Y-52349400D01*
X152771800Y-55016400D02*
X152771800Y-52797400D01*
X157766200Y-68400000D02*
X143400000Y-68400000D01*
X160299400Y-64566800D02*
X160299400Y-65866800D01*
X160299400Y-65866800D02*
X157766200Y-68400000D01*
X143400000Y-68400000D02*
X140300000Y-68400000D01*
X150842400Y-50868000D02*
X150842400Y-41292600D01*
X152323800Y-52349400D02*
X150842400Y-50868000D01*
X148842400Y-42423970D02*
X148842400Y-41292600D01*
X141732400Y-61562000D02*
X148842400Y-54452000D01*
X148842400Y-54452000D02*
X148842400Y-42423970D01*
X141732400Y-63462000D02*
X141732400Y-61562000D01*
D23*
X155832400Y-63162000D02*
X156132400Y-63462000D01*
X160099400Y-62026800D02*
X160299400Y-62026800D01*
D24*
X155832400Y-46978160D02*
X156079640Y-46730920D01*
D25*
X155832400Y-46978160D02*
X155832400Y-63162000D01*
X155832400Y-45416880D02*
X155832400Y-46978160D01*
X155832400Y-40562000D02*
X155832400Y-45416880D01*
D24*
X160299400Y-62026800D02*
X160499400Y-62026800D01*
X155832400Y-45416880D02*
X155851040Y-45435520D01*
X161810000Y-41695000D02*
X161810000Y-40195000D01*
X158088120Y-45416880D02*
X161810000Y-41695000D01*
X155832400Y-45416880D02*
X158088120Y-45416880D01*
D23*
X160299400Y-56946800D02*
X160499400Y-56946800D01*
D26*
G36*
X163213000Y-42561485D02*
G01*
X163211006Y-42581730D01*
X163211006Y-42612911D01*
X163211005Y-42612921D01*
X163211006Y-42612931D01*
X163210988Y-72788946D01*
X163183328Y-73071049D01*
X163110419Y-73312535D01*
X162991991Y-73535265D01*
X162832560Y-73730747D01*
X162638195Y-73891540D01*
X162416301Y-74011518D01*
X162175327Y-74086111D01*
X161920071Y-74112940D01*
X161915433Y-74112483D01*
X161790949Y-74124744D01*
X161671249Y-74161054D01*
X161560933Y-74220020D01*
X161464239Y-74299373D01*
X161384886Y-74396068D01*
X161325920Y-74506384D01*
X161289610Y-74626084D01*
X161280421Y-74719378D01*
X161280422Y-138713390D01*
X161289611Y-138806684D01*
X161325921Y-138926384D01*
X161384887Y-139036700D01*
X161464240Y-139133394D01*
X161560934Y-139212747D01*
X161671250Y-139271713D01*
X161790950Y-139308023D01*
X161853411Y-139314175D01*
X161853467Y-139314181D01*
X161854286Y-139314261D01*
X161915433Y-139320284D01*
X161915572Y-139320270D01*
X162166482Y-139344872D01*
X162407968Y-139417781D01*
X162630698Y-139536209D01*
X162826180Y-139695640D01*
X162986974Y-139890007D01*
X163106951Y-140111898D01*
X163181544Y-140352873D01*
X163210988Y-140633012D01*
X163210989Y-156946757D01*
X163183328Y-157228869D01*
X163110419Y-157470355D01*
X162991991Y-157693085D01*
X162832560Y-157888567D01*
X162638195Y-158049360D01*
X162416301Y-158169338D01*
X162175327Y-158243931D01*
X161895188Y-158273375D01*
X155991443Y-158273375D01*
X155898149Y-158282564D01*
X155778449Y-158318874D01*
X155668133Y-158377840D01*
X155571439Y-158457193D01*
X155492086Y-158553887D01*
X155433120Y-158664203D01*
X155396810Y-158783903D01*
X155384549Y-158908387D01*
X155384563Y-158908525D01*
X155325582Y-159510059D01*
X155150845Y-160088815D01*
X154867023Y-160622605D01*
X154484923Y-161091107D01*
X154019102Y-161476468D01*
X153487306Y-161764010D01*
X152909784Y-161942782D01*
X152278610Y-162009121D01*
X152267688Y-162009159D01*
X152240080Y-162011963D01*
X152212335Y-162011769D01*
X152203511Y-162012634D01*
X152070635Y-162026600D01*
X145573774Y-162026600D01*
X145468742Y-162016301D01*
X145468728Y-162016300D01*
X144805089Y-161951230D01*
X144226333Y-161776493D01*
X143692543Y-161492671D01*
X143224041Y-161110571D01*
X142838680Y-160644750D01*
X142551138Y-160112954D01*
X142372366Y-159535432D01*
X142308048Y-158923487D01*
X142309124Y-158912560D01*
X142296863Y-158788076D01*
X142260553Y-158668376D01*
X142201587Y-158558060D01*
X142122234Y-158461366D01*
X142025540Y-158382013D01*
X141915224Y-158323047D01*
X141795524Y-158286737D01*
X141702230Y-158277548D01*
X135831122Y-158277548D01*
X135524818Y-158247515D01*
X135283332Y-158174606D01*
X135060602Y-158056178D01*
X134865120Y-157896747D01*
X134704327Y-157702382D01*
X134584349Y-157480488D01*
X134509756Y-157239514D01*
X134480312Y-156959375D01*
X134480312Y-140645620D01*
X134507972Y-140363518D01*
X134580881Y-140122032D01*
X134699309Y-139899302D01*
X134858740Y-139703820D01*
X135053107Y-139543026D01*
X135274998Y-139423049D01*
X135515973Y-139348456D01*
X135771229Y-139321627D01*
X135775867Y-139322084D01*
X135900351Y-139309823D01*
X136020051Y-139273513D01*
X136130367Y-139214547D01*
X136227061Y-139135194D01*
X136306414Y-139038500D01*
X136365380Y-138928184D01*
X136401690Y-138808484D01*
X136410879Y-138715190D01*
X136410879Y-136312000D01*
X138480927Y-136312000D01*
X138480927Y-146312000D01*
X138526333Y-146773012D01*
X138660805Y-147216309D01*
X138879176Y-147624852D01*
X139173055Y-147982944D01*
X139531147Y-148276823D01*
X139939690Y-148495194D01*
X140382987Y-148629666D01*
X140843999Y-148675072D01*
X140844001Y-148675072D01*
X141305013Y-148629666D01*
X141748310Y-148495194D01*
X142156853Y-148276823D01*
X142514945Y-147982944D01*
X142808824Y-147624852D01*
X143027195Y-147216309D01*
X143161667Y-146773012D01*
X143207073Y-146312000D01*
X143207073Y-139350000D01*
X145384228Y-139350000D01*
X145384228Y-140650000D01*
X145396488Y-140774482D01*
X145432798Y-140894180D01*
X145491763Y-141004494D01*
X145571115Y-141101185D01*
X145667806Y-141180537D01*
X145778120Y-141239502D01*
X145897818Y-141275812D01*
X146022300Y-141288072D01*
X147322300Y-141288072D01*
X147446782Y-141275812D01*
X147566480Y-141239502D01*
X147676794Y-141180537D01*
X147773485Y-141101185D01*
X147852837Y-141004494D01*
X147910553Y-140896518D01*
X148012160Y-140998125D01*
X148222624Y-141138753D01*
X148456479Y-141235619D01*
X148704739Y-141285000D01*
X148957861Y-141285000D01*
X149206121Y-141235619D01*
X149439976Y-141138753D01*
X149650440Y-140998125D01*
X149829425Y-140819140D01*
X149910800Y-140697354D01*
X149992175Y-140819140D01*
X150171160Y-140998125D01*
X150381624Y-141138753D01*
X150615479Y-141235619D01*
X150863739Y-141285000D01*
X151116861Y-141285000D01*
X151365121Y-141235619D01*
X151598976Y-141138753D01*
X151809440Y-140998125D01*
X151988425Y-140819140D01*
X152129053Y-140608676D01*
X152225919Y-140374821D01*
X152275300Y-140126561D01*
X152275300Y-139873439D01*
X152225919Y-139625179D01*
X152129053Y-139391324D01*
X151988425Y-139180860D01*
X151809440Y-139001875D01*
X151598976Y-138861247D01*
X151365121Y-138764381D01*
X151116861Y-138715000D01*
X150863739Y-138715000D01*
X150615479Y-138764381D01*
X150381624Y-138861247D01*
X150171160Y-139001875D01*
X149992175Y-139180860D01*
X149910800Y-139302646D01*
X149829425Y-139180860D01*
X149650440Y-139001875D01*
X149439976Y-138861247D01*
X149206121Y-138764381D01*
X148957861Y-138715000D01*
X148704739Y-138715000D01*
X148456479Y-138764381D01*
X148222624Y-138861247D01*
X148012160Y-139001875D01*
X147910553Y-139103482D01*
X147852837Y-138995506D01*
X147773485Y-138898815D01*
X147676794Y-138819463D01*
X147566480Y-138760498D01*
X147446782Y-138724188D01*
X147322300Y-138711928D01*
X146022300Y-138711928D01*
X145897818Y-138724188D01*
X145778120Y-138760498D01*
X145667806Y-138819463D01*
X145571115Y-138898815D01*
X145491763Y-138995506D01*
X145432798Y-139105820D01*
X145396488Y-139225518D01*
X145384228Y-139350000D01*
X143207073Y-139350000D01*
X143207073Y-136312000D01*
X143161667Y-135850988D01*
X143027195Y-135407691D01*
X142808824Y-134999148D01*
X142514945Y-134641056D01*
X142156853Y-134347177D01*
X141748310Y-134128806D01*
X141305013Y-133994334D01*
X140844001Y-133948928D01*
X140843999Y-133948928D01*
X140382987Y-133994334D01*
X139939690Y-134128806D01*
X139531147Y-134347177D01*
X139173055Y-134641056D01*
X138879176Y-134999148D01*
X138660805Y-135407691D01*
X138526333Y-135850988D01*
X138480927Y-136312000D01*
X136410879Y-136312000D01*
X136410879Y-117220816D01*
X140334400Y-117220816D01*
X140334400Y-117523184D01*
X140393389Y-117819743D01*
X140509101Y-118099095D01*
X140677088Y-118350505D01*
X140890895Y-118564312D01*
X141007163Y-118642000D01*
X140890895Y-118719688D01*
X140677088Y-118933495D01*
X140509101Y-119184905D01*
X140393389Y-119464257D01*
X140334400Y-119760816D01*
X140334400Y-120063184D01*
X140393389Y-120359743D01*
X140509101Y-120639095D01*
X140677088Y-120890505D01*
X140890895Y-121104312D01*
X141007163Y-121182000D01*
X140890895Y-121259688D01*
X140677088Y-121473495D01*
X140509101Y-121724905D01*
X140393389Y-122004257D01*
X140334400Y-122300816D01*
X140334400Y-122603184D01*
X140393389Y-122899743D01*
X140509101Y-123179095D01*
X140677088Y-123430505D01*
X140890895Y-123644312D01*
X141007163Y-123722000D01*
X140890895Y-123799688D01*
X140677088Y-124013495D01*
X140509101Y-124264905D01*
X140393389Y-124544257D01*
X140334400Y-124840816D01*
X140334400Y-125143184D01*
X140393389Y-125439743D01*
X140509101Y-125719095D01*
X140677088Y-125970505D01*
X140890895Y-126184312D01*
X141142305Y-126352299D01*
X141421657Y-126468011D01*
X141718216Y-126527000D01*
X142020584Y-126527000D01*
X142317143Y-126468011D01*
X142596495Y-126352299D01*
X142847905Y-126184312D01*
X143061712Y-125970505D01*
X143229699Y-125719095D01*
X143345411Y-125439743D01*
X143404400Y-125143184D01*
X143404400Y-124840816D01*
X143345411Y-124544257D01*
X143229699Y-124264905D01*
X143061712Y-124013495D01*
X142847905Y-123799688D01*
X142731637Y-123722000D01*
X142847905Y-123644312D01*
X143061712Y-123430505D01*
X143229699Y-123179095D01*
X143345411Y-122899743D01*
X143404400Y-122603184D01*
X143404400Y-122300816D01*
X143345411Y-122004257D01*
X143229699Y-121724905D01*
X143061712Y-121473495D01*
X142847905Y-121259688D01*
X142731637Y-121182000D01*
X142847905Y-121104312D01*
X143061712Y-120890505D01*
X143229699Y-120639095D01*
X143345411Y-120359743D01*
X143404400Y-120063184D01*
X143404400Y-119760816D01*
X143345411Y-119464257D01*
X143229699Y-119184905D01*
X143061712Y-118933495D01*
X142847905Y-118719688D01*
X142731637Y-118642000D01*
X142847905Y-118564312D01*
X143061712Y-118350505D01*
X143229699Y-118099095D01*
X143345411Y-117819743D01*
X143404400Y-117523184D01*
X143404400Y-117220816D01*
X143345411Y-116924257D01*
X143229699Y-116644905D01*
X143061712Y-116393495D01*
X142847905Y-116179688D01*
X142596495Y-116011701D01*
X142317143Y-115895989D01*
X142020584Y-115837000D01*
X141718216Y-115837000D01*
X141421657Y-115895989D01*
X141142305Y-116011701D01*
X140890895Y-116179688D01*
X140677088Y-116393495D01*
X140509101Y-116644905D01*
X140393389Y-116924257D01*
X140334400Y-117220816D01*
X136410879Y-117220816D01*
X136410879Y-74721177D01*
X136401690Y-74627883D01*
X136365380Y-74508183D01*
X136306414Y-74397867D01*
X136227061Y-74301173D01*
X136130366Y-74221820D01*
X136020050Y-74162854D01*
X135900350Y-74126544D01*
X135837889Y-74120392D01*
X135837833Y-74120386D01*
X135837014Y-74120306D01*
X135775867Y-74114283D01*
X135775728Y-74114297D01*
X135524818Y-74089695D01*
X135283332Y-74016786D01*
X135060602Y-73898358D01*
X134865120Y-73738927D01*
X134704327Y-73544562D01*
X134584349Y-73322668D01*
X134509756Y-73081694D01*
X134480312Y-72801555D01*
X134480312Y-72782000D01*
X139010927Y-72782000D01*
X139010927Y-82782000D01*
X139046149Y-83139615D01*
X139150461Y-83483486D01*
X139319855Y-83800400D01*
X139547821Y-84078178D01*
X139825599Y-84306144D01*
X140142513Y-84475538D01*
X140486384Y-84579850D01*
X140843999Y-84615072D01*
X140844001Y-84615072D01*
X141201616Y-84579850D01*
X141545487Y-84475538D01*
X141862401Y-84306144D01*
X142140179Y-84078178D01*
X142368145Y-83800400D01*
X142537539Y-83483486D01*
X142641851Y-83139615D01*
X142677073Y-82782000D01*
X142677073Y-81112000D01*
X154480927Y-81112000D01*
X154480927Y-91112000D01*
X154526333Y-91573012D01*
X154660805Y-92016309D01*
X154879176Y-92424852D01*
X155173055Y-92782944D01*
X155531147Y-93076823D01*
X155939690Y-93295194D01*
X156382987Y-93429666D01*
X156843999Y-93475072D01*
X156844001Y-93475072D01*
X157305013Y-93429666D01*
X157748310Y-93295194D01*
X158156853Y-93076823D01*
X158514945Y-92782944D01*
X158808824Y-92424852D01*
X159027195Y-92016309D01*
X159161667Y-91573012D01*
X159207073Y-91112000D01*
X159207073Y-81112000D01*
X159161667Y-80650988D01*
X159027195Y-80207691D01*
X158808824Y-79799148D01*
X158514945Y-79441056D01*
X158156853Y-79147177D01*
X157748310Y-78928806D01*
X157305013Y-78794334D01*
X156844001Y-78748928D01*
X156843999Y-78748928D01*
X156382987Y-78794334D01*
X155939690Y-78928806D01*
X155531147Y-79147177D01*
X155173055Y-79441056D01*
X154879176Y-79799148D01*
X154660805Y-80207691D01*
X154526333Y-80650988D01*
X154480927Y-81112000D01*
X142677073Y-81112000D01*
X142677073Y-72782000D01*
X142641851Y-72424385D01*
X142537539Y-72080514D01*
X142368145Y-71763600D01*
X142140179Y-71485822D01*
X141862401Y-71257856D01*
X141545487Y-71088462D01*
X141201616Y-70984150D01*
X140844001Y-70948928D01*
X140843999Y-70948928D01*
X140486384Y-70984150D01*
X140142513Y-71088462D01*
X139825599Y-71257856D01*
X139547821Y-71485822D01*
X139319855Y-71763600D01*
X139150461Y-72080514D01*
X139046149Y-72424385D01*
X139010927Y-72782000D01*
X134480312Y-72782000D01*
X134480312Y-42747000D01*
X143258569Y-42747000D01*
X143259920Y-42749527D01*
X143451740Y-42983261D01*
X143685474Y-43175081D01*
X143952140Y-43317617D01*
X144241488Y-43405390D01*
X144542400Y-43435027D01*
X144753542Y-43414232D01*
X144709873Y-43432320D01*
X144474841Y-43589363D01*
X144274963Y-43789241D01*
X144255079Y-43819000D01*
X142760986Y-43819000D01*
X142717519Y-43814719D01*
X142674053Y-43819000D01*
X142674043Y-43819000D01*
X142544030Y-43831805D01*
X142377207Y-43882411D01*
X142223461Y-43964589D01*
X142223459Y-43964590D01*
X142223460Y-43964590D01*
X142122473Y-44047468D01*
X142122471Y-44047470D01*
X142088703Y-44075183D01*
X142060990Y-44108951D01*
X140268142Y-45901800D01*
X139077472Y-45901800D01*
X139077472Y-45786800D01*
X139065212Y-45662318D01*
X139028902Y-45542620D01*
X138969937Y-45432306D01*
X138890585Y-45335615D01*
X138793894Y-45256263D01*
X138683580Y-45197298D01*
X138563882Y-45160988D01*
X138439400Y-45148728D01*
X136439400Y-45148728D01*
X136314918Y-45160988D01*
X136195220Y-45197298D01*
X136084906Y-45256263D01*
X135988215Y-45335615D01*
X135908863Y-45432306D01*
X135849898Y-45542620D01*
X135813588Y-45662318D01*
X135801328Y-45786800D01*
X135801328Y-47786800D01*
X135813588Y-47911282D01*
X135849898Y-48030980D01*
X135908863Y-48141294D01*
X135988215Y-48237985D01*
X136084906Y-48317337D01*
X136172876Y-48364359D01*
X136040468Y-48525699D01*
X135907218Y-48774992D01*
X135825164Y-49045491D01*
X135797457Y-49326800D01*
X135825164Y-49608109D01*
X135907218Y-49878608D01*
X136040468Y-50127901D01*
X136219792Y-50346408D01*
X136438299Y-50525732D01*
X136571258Y-50596800D01*
X136438299Y-50667868D01*
X136219792Y-50847192D01*
X136040468Y-51065699D01*
X135907218Y-51314992D01*
X135825164Y-51585491D01*
X135797457Y-51866800D01*
X135825164Y-52148109D01*
X135907218Y-52418608D01*
X136040468Y-52667901D01*
X136219792Y-52886408D01*
X136438299Y-53065732D01*
X136687592Y-53198982D01*
X136958091Y-53281036D01*
X137168908Y-53301800D01*
X137709892Y-53301800D01*
X137920709Y-53281036D01*
X138191208Y-53198982D01*
X138440501Y-53065732D01*
X138659008Y-52886408D01*
X138769478Y-52751800D01*
X143951528Y-52751800D01*
X143951528Y-53124000D01*
X143963788Y-53248482D01*
X144000098Y-53368180D01*
X144059063Y-53478494D01*
X144138415Y-53575185D01*
X144235106Y-53654537D01*
X144345420Y-53713502D01*
X144464660Y-53749673D01*
X144237041Y-53901763D01*
X144037163Y-54101641D01*
X143880120Y-54336673D01*
X143771947Y-54597826D01*
X143716800Y-54875065D01*
X143716800Y-55157735D01*
X143771947Y-55434974D01*
X143880120Y-55696127D01*
X144037163Y-55931159D01*
X144237041Y-56131037D01*
X144472073Y-56288080D01*
X144733226Y-56396253D01*
X145010465Y-56451400D01*
X145293135Y-56451400D01*
X145570374Y-56396253D01*
X145700446Y-56342376D01*
X141137352Y-60905470D01*
X141103584Y-60933183D01*
X141075871Y-60966951D01*
X141075868Y-60966954D01*
X140992990Y-61067941D01*
X140910812Y-61221687D01*
X140860205Y-61388510D01*
X140856717Y-61423928D01*
X140332400Y-61423928D01*
X140207918Y-61436188D01*
X140088220Y-61472498D01*
X139977906Y-61531463D01*
X139885000Y-61607709D01*
X139885000Y-61443469D01*
X139889281Y-61400000D01*
X139885000Y-61356531D01*
X139885000Y-61356523D01*
X139872195Y-61226510D01*
X139824093Y-61067941D01*
X139821589Y-61059686D01*
X139739411Y-60905941D01*
X139656532Y-60804953D01*
X139656530Y-60804951D01*
X139628817Y-60771183D01*
X139595050Y-60743471D01*
X138324400Y-59472822D01*
X138324400Y-58207789D01*
X138440501Y-58145732D01*
X138659008Y-57966408D01*
X138838332Y-57747901D01*
X138971582Y-57498608D01*
X139053636Y-57228109D01*
X139081343Y-56946800D01*
X139053636Y-56665491D01*
X138971582Y-56394992D01*
X138838332Y-56145699D01*
X138659008Y-55927192D01*
X138440501Y-55747868D01*
X138191208Y-55614618D01*
X137920709Y-55532564D01*
X137709892Y-55511800D01*
X137168908Y-55511800D01*
X136958091Y-55532564D01*
X136687592Y-55614618D01*
X136438299Y-55747868D01*
X136219792Y-55927192D01*
X136040468Y-56145699D01*
X135907218Y-56394992D01*
X135825164Y-56665491D01*
X135797457Y-56946800D01*
X135825164Y-57228109D01*
X135907218Y-57498608D01*
X136040468Y-57747901D01*
X136219792Y-57966408D01*
X136438299Y-58145732D01*
X136554400Y-58207790D01*
X136554401Y-59795921D01*
X136550119Y-59839400D01*
X136567205Y-60012890D01*
X136617812Y-60179713D01*
X136699990Y-60333459D01*
X136782868Y-60434446D01*
X136782871Y-60434449D01*
X136810584Y-60468217D01*
X136844351Y-60495929D01*
X138115000Y-61766579D01*
X138115001Y-64576123D01*
X138110719Y-64619602D01*
X138127805Y-64793092D01*
X138178412Y-64959915D01*
X138260590Y-65113661D01*
X138343468Y-65214648D01*
X138343471Y-65214651D01*
X138371184Y-65248419D01*
X138404951Y-65276131D01*
X140393819Y-67265000D01*
X140188212Y-67265000D01*
X139968933Y-67308617D01*
X139762376Y-67394176D01*
X139576480Y-67518388D01*
X139418388Y-67676480D01*
X139294176Y-67862376D01*
X139208617Y-68068933D01*
X139165000Y-68288212D01*
X139165000Y-68511788D01*
X139208617Y-68731067D01*
X139294176Y-68937624D01*
X139418388Y-69123520D01*
X139576480Y-69281612D01*
X139762376Y-69405824D01*
X139968933Y-69491383D01*
X140188212Y-69535000D01*
X140411788Y-69535000D01*
X140631067Y-69491383D01*
X140837624Y-69405824D01*
X141018450Y-69285000D01*
X157722731Y-69285000D01*
X157766200Y-69289281D01*
X157809669Y-69285000D01*
X157809677Y-69285000D01*
X157939690Y-69272195D01*
X158106513Y-69221589D01*
X158260259Y-69139411D01*
X158395017Y-69028817D01*
X158422734Y-68995044D01*
X160894449Y-66523330D01*
X160928217Y-66495617D01*
X161038811Y-66360859D01*
X161120989Y-66207113D01*
X161171595Y-66040290D01*
X161184400Y-65910277D01*
X161184400Y-65910269D01*
X161188681Y-65866800D01*
X161184817Y-65827566D01*
X161300501Y-65765732D01*
X161519008Y-65586408D01*
X161698332Y-65367901D01*
X161831582Y-65118608D01*
X161913636Y-64848109D01*
X161941343Y-64566800D01*
X161913636Y-64285491D01*
X161831582Y-64014992D01*
X161698332Y-63765699D01*
X161519008Y-63547192D01*
X161300501Y-63367868D01*
X161167542Y-63296800D01*
X161300501Y-63225732D01*
X161519008Y-63046408D01*
X161698332Y-62827901D01*
X161831582Y-62578608D01*
X161913636Y-62308109D01*
X161941343Y-62026800D01*
X161913636Y-61745491D01*
X161831582Y-61474992D01*
X161698332Y-61225699D01*
X161519008Y-61007192D01*
X161300501Y-60827868D01*
X161167542Y-60756800D01*
X161300501Y-60685732D01*
X161519008Y-60506408D01*
X161698332Y-60287901D01*
X161831582Y-60038608D01*
X161913636Y-59768109D01*
X161941343Y-59486800D01*
X161913636Y-59205491D01*
X161831582Y-58934992D01*
X161698332Y-58685699D01*
X161519008Y-58467192D01*
X161300501Y-58287868D01*
X161167542Y-58216800D01*
X161300501Y-58145732D01*
X161519008Y-57966408D01*
X161698332Y-57747901D01*
X161831582Y-57498608D01*
X161913636Y-57228109D01*
X161941343Y-56946800D01*
X161913636Y-56665491D01*
X161831582Y-56394992D01*
X161698332Y-56145699D01*
X161519008Y-55927192D01*
X161300501Y-55747868D01*
X161051208Y-55614618D01*
X160780709Y-55532564D01*
X160569892Y-55511800D01*
X160028908Y-55511800D01*
X159818091Y-55532564D01*
X159547592Y-55614618D01*
X159298299Y-55747868D01*
X159079792Y-55927192D01*
X158900468Y-56145699D01*
X158767218Y-56394992D01*
X158685164Y-56665491D01*
X158657457Y-56946800D01*
X158685164Y-57228109D01*
X158767218Y-57498608D01*
X158900468Y-57747901D01*
X159079792Y-57966408D01*
X159298299Y-58145732D01*
X159431258Y-58216800D01*
X159298299Y-58287868D01*
X159079792Y-58467192D01*
X158900468Y-58685699D01*
X158767218Y-58934992D01*
X158685164Y-59205491D01*
X158657457Y-59486800D01*
X158685164Y-59768109D01*
X158767218Y-60038608D01*
X158900468Y-60287901D01*
X159079792Y-60506408D01*
X159298299Y-60685732D01*
X159431258Y-60756800D01*
X159298299Y-60827868D01*
X159079792Y-61007192D01*
X158900468Y-61225699D01*
X158767218Y-61474992D01*
X158685164Y-61745491D01*
X158657457Y-62026800D01*
X158685164Y-62308109D01*
X158767218Y-62578608D01*
X158900468Y-62827901D01*
X159079792Y-63046408D01*
X159298299Y-63225732D01*
X159431258Y-63296800D01*
X159298299Y-63367868D01*
X159079792Y-63547192D01*
X158900468Y-63765699D01*
X158767218Y-64014992D01*
X158685164Y-64285491D01*
X158657457Y-64566800D01*
X158685164Y-64848109D01*
X158767218Y-65118608D01*
X158900468Y-65367901D01*
X159079792Y-65586408D01*
X159216236Y-65698385D01*
X157399622Y-67515000D01*
X143990132Y-67515000D01*
X144081612Y-67423520D01*
X144205824Y-67237624D01*
X144291383Y-67031067D01*
X144335000Y-66811788D01*
X144335000Y-66588212D01*
X144291383Y-66368933D01*
X144205824Y-66162376D01*
X144081612Y-65976480D01*
X143923520Y-65818388D01*
X143737624Y-65694176D01*
X143531067Y-65608617D01*
X143311788Y-65565000D01*
X143088212Y-65565000D01*
X142868933Y-65608617D01*
X142662376Y-65694176D01*
X142481550Y-65815000D01*
X141446977Y-65815000D01*
X141132049Y-65500072D01*
X143132400Y-65500072D01*
X143256882Y-65487812D01*
X143376580Y-65451502D01*
X143486894Y-65392537D01*
X143502400Y-65379812D01*
X143517906Y-65392537D01*
X143628220Y-65451502D01*
X143747918Y-65487812D01*
X143872400Y-65500072D01*
X146672400Y-65500072D01*
X146796882Y-65487812D01*
X146916580Y-65451502D01*
X147026894Y-65392537D01*
X147123585Y-65313185D01*
X147202937Y-65216494D01*
X147261902Y-65106180D01*
X147298212Y-64986482D01*
X147310472Y-64862000D01*
X147310472Y-62062000D01*
X147298212Y-61937518D01*
X147261902Y-61817820D01*
X147202937Y-61707506D01*
X147123585Y-61610815D01*
X147026894Y-61531463D01*
X146916580Y-61472498D01*
X146796882Y-61436188D01*
X146672400Y-61423928D01*
X143872400Y-61423928D01*
X143747918Y-61436188D01*
X143628220Y-61472498D01*
X143517906Y-61531463D01*
X143502400Y-61544188D01*
X143486894Y-61531463D01*
X143376580Y-61472498D01*
X143256882Y-61436188D01*
X143132400Y-61423928D01*
X143122050Y-61423928D01*
X149437451Y-55108528D01*
X149471217Y-55080817D01*
X149501863Y-55043476D01*
X149581810Y-54946060D01*
X149581811Y-54946059D01*
X149663989Y-54792313D01*
X149714595Y-54625490D01*
X149727400Y-54495477D01*
X149727400Y-54495467D01*
X149731681Y-54452001D01*
X149727400Y-54408535D01*
X149727400Y-42427121D01*
X149757159Y-42407237D01*
X149842400Y-42321996D01*
X149927641Y-42407237D01*
X149957401Y-42427122D01*
X149957400Y-50824531D01*
X149953119Y-50868000D01*
X149957400Y-50911469D01*
X149957400Y-50911476D01*
X149970205Y-51041489D01*
X150020811Y-51208312D01*
X150102989Y-51362058D01*
X150213583Y-51496817D01*
X150247356Y-51524534D01*
X150895783Y-52172961D01*
X150888800Y-52208065D01*
X150888800Y-52490735D01*
X150943947Y-52767974D01*
X151052120Y-53029127D01*
X151209163Y-53264159D01*
X151409041Y-53464037D01*
X151644073Y-53621080D01*
X151886801Y-53721621D01*
X151886801Y-53881878D01*
X151857041Y-53901763D01*
X151657163Y-54101641D01*
X151500120Y-54336673D01*
X151391947Y-54597826D01*
X151336800Y-54875065D01*
X151336800Y-55157735D01*
X151391947Y-55434974D01*
X151500120Y-55696127D01*
X151657163Y-55931159D01*
X151857041Y-56131037D01*
X152092073Y-56288080D01*
X152353226Y-56396253D01*
X152630465Y-56451400D01*
X152913135Y-56451400D01*
X153190374Y-56396253D01*
X153451527Y-56288080D01*
X153686559Y-56131037D01*
X153886437Y-55931159D01*
X154043480Y-55696127D01*
X154151653Y-55434974D01*
X154197401Y-55204989D01*
X154197401Y-61521043D01*
X154177906Y-61531463D01*
X154162400Y-61544188D01*
X154146894Y-61531463D01*
X154036580Y-61472498D01*
X153916882Y-61436188D01*
X153792400Y-61423928D01*
X150992400Y-61423928D01*
X150867918Y-61436188D01*
X150748220Y-61472498D01*
X150637906Y-61531463D01*
X150541215Y-61610815D01*
X150461863Y-61707506D01*
X150402898Y-61817820D01*
X150366588Y-61937518D01*
X150354328Y-62062000D01*
X150354328Y-64862000D01*
X150366588Y-64986482D01*
X150402898Y-65106180D01*
X150461863Y-65216494D01*
X150541215Y-65313185D01*
X150637906Y-65392537D01*
X150748220Y-65451502D01*
X150867918Y-65487812D01*
X150992400Y-65500072D01*
X153792400Y-65500072D01*
X153916882Y-65487812D01*
X154036580Y-65451502D01*
X154146894Y-65392537D01*
X154162400Y-65379812D01*
X154177906Y-65392537D01*
X154288220Y-65451502D01*
X154407918Y-65487812D01*
X154532400Y-65500072D01*
X157332400Y-65500072D01*
X157456882Y-65487812D01*
X157576580Y-65451502D01*
X157686894Y-65392537D01*
X157783585Y-65313185D01*
X157862937Y-65216494D01*
X157921902Y-65106180D01*
X157958212Y-64986482D01*
X157970472Y-64862000D01*
X157970472Y-62062000D01*
X157958212Y-61937518D01*
X157921902Y-61817820D01*
X157862937Y-61707506D01*
X157783585Y-61610815D01*
X157686894Y-61531463D01*
X157576580Y-61472498D01*
X157467400Y-61439379D01*
X157467400Y-46301880D01*
X158044651Y-46301880D01*
X158088120Y-46306161D01*
X158131589Y-46301880D01*
X158131597Y-46301880D01*
X158261610Y-46289075D01*
X158428433Y-46238469D01*
X158582179Y-46156291D01*
X158716937Y-46045697D01*
X158744654Y-46011924D01*
X162405050Y-42351529D01*
X162438817Y-42323817D01*
X162485293Y-42267187D01*
X162528266Y-42214824D01*
X162549411Y-42189059D01*
X162631589Y-42035313D01*
X162682195Y-41868490D01*
X162695000Y-41738477D01*
X162695000Y-41738467D01*
X162699281Y-41695001D01*
X162695000Y-41651535D01*
X162695000Y-41525077D01*
X162829607Y-41414608D01*
X163008932Y-41196101D01*
X163142182Y-40946808D01*
X163213000Y-40713350D01*
X163213000Y-42561485D01*
G37*
X163213000Y-42561485D02*
X163211006Y-42581730D01*
X163211006Y-42612911D01*
X163211005Y-42612921D01*
X163211006Y-42612931D01*
X163210988Y-72788946D01*
X163183328Y-73071049D01*
X163110419Y-73312535D01*
X162991991Y-73535265D01*
X162832560Y-73730747D01*
X162638195Y-73891540D01*
X162416301Y-74011518D01*
X162175327Y-74086111D01*
X161920071Y-74112940D01*
X161915433Y-74112483D01*
X161790949Y-74124744D01*
X161671249Y-74161054D01*
X161560933Y-74220020D01*
X161464239Y-74299373D01*
X161384886Y-74396068D01*
X161325920Y-74506384D01*
X161289610Y-74626084D01*
X161280421Y-74719378D01*
X161280422Y-138713390D01*
X161289611Y-138806684D01*
X161325921Y-138926384D01*
X161384887Y-139036700D01*
X161464240Y-139133394D01*
X161560934Y-139212747D01*
X161671250Y-139271713D01*
X161790950Y-139308023D01*
X161853411Y-139314175D01*
X161853467Y-139314181D01*
X161854286Y-139314261D01*
X161915433Y-139320284D01*
X161915572Y-139320270D01*
X162166482Y-139344872D01*
X162407968Y-139417781D01*
X162630698Y-139536209D01*
X162826180Y-139695640D01*
X162986974Y-139890007D01*
X163106951Y-140111898D01*
X163181544Y-140352873D01*
X163210988Y-140633012D01*
X163210989Y-156946757D01*
X163183328Y-157228869D01*
X163110419Y-157470355D01*
X162991991Y-157693085D01*
X162832560Y-157888567D01*
X162638195Y-158049360D01*
X162416301Y-158169338D01*
X162175327Y-158243931D01*
X161895188Y-158273375D01*
X155991443Y-158273375D01*
X155898149Y-158282564D01*
X155778449Y-158318874D01*
X155668133Y-158377840D01*
X155571439Y-158457193D01*
X155492086Y-158553887D01*
X155433120Y-158664203D01*
X155396810Y-158783903D01*
X155384549Y-158908387D01*
X155384563Y-158908525D01*
X155325582Y-159510059D01*
X155150845Y-160088815D01*
X154867023Y-160622605D01*
X154484923Y-161091107D01*
X154019102Y-161476468D01*
X153487306Y-161764010D01*
X152909784Y-161942782D01*
X152278610Y-162009121D01*
X152267688Y-162009159D01*
X152240080Y-162011963D01*
X152212335Y-162011769D01*
X152203511Y-162012634D01*
X152070635Y-162026600D01*
X145573774Y-162026600D01*
X145468742Y-162016301D01*
X145468728Y-162016300D01*
X144805089Y-161951230D01*
X144226333Y-161776493D01*
X143692543Y-161492671D01*
X143224041Y-161110571D01*
X142838680Y-160644750D01*
X142551138Y-160112954D01*
X142372366Y-159535432D01*
X142308048Y-158923487D01*
X142309124Y-158912560D01*
X142296863Y-158788076D01*
X142260553Y-158668376D01*
X142201587Y-158558060D01*
X142122234Y-158461366D01*
X142025540Y-158382013D01*
X141915224Y-158323047D01*
X141795524Y-158286737D01*
X141702230Y-158277548D01*
X135831122Y-158277548D01*
X135524818Y-158247515D01*
X135283332Y-158174606D01*
X135060602Y-158056178D01*
X134865120Y-157896747D01*
X134704327Y-157702382D01*
X134584349Y-157480488D01*
X134509756Y-157239514D01*
X134480312Y-156959375D01*
X134480312Y-140645620D01*
X134507972Y-140363518D01*
X134580881Y-140122032D01*
X134699309Y-139899302D01*
X134858740Y-139703820D01*
X135053107Y-139543026D01*
X135274998Y-139423049D01*
X135515973Y-139348456D01*
X135771229Y-139321627D01*
X135775867Y-139322084D01*
X135900351Y-139309823D01*
X136020051Y-139273513D01*
X136130367Y-139214547D01*
X136227061Y-139135194D01*
X136306414Y-139038500D01*
X136365380Y-138928184D01*
X136401690Y-138808484D01*
X136410879Y-138715190D01*
X136410879Y-136312000D01*
X138480927Y-136312000D01*
X138480927Y-146312000D01*
X138526333Y-146773012D01*
X138660805Y-147216309D01*
X138879176Y-147624852D01*
X139173055Y-147982944D01*
X139531147Y-148276823D01*
X139939690Y-148495194D01*
X140382987Y-148629666D01*
X140843999Y-148675072D01*
X140844001Y-148675072D01*
X141305013Y-148629666D01*
X141748310Y-148495194D01*
X142156853Y-148276823D01*
X142514945Y-147982944D01*
X142808824Y-147624852D01*
X143027195Y-147216309D01*
X143161667Y-146773012D01*
X143207073Y-146312000D01*
X143207073Y-139350000D01*
X145384228Y-139350000D01*
X145384228Y-140650000D01*
X145396488Y-140774482D01*
X145432798Y-140894180D01*
X145491763Y-141004494D01*
X145571115Y-141101185D01*
X145667806Y-141180537D01*
X145778120Y-141239502D01*
X145897818Y-141275812D01*
X146022300Y-141288072D01*
X147322300Y-141288072D01*
X147446782Y-141275812D01*
X147566480Y-141239502D01*
X147676794Y-141180537D01*
X147773485Y-141101185D01*
X147852837Y-141004494D01*
X147910553Y-140896518D01*
X148012160Y-140998125D01*
X148222624Y-141138753D01*
X148456479Y-141235619D01*
X148704739Y-141285000D01*
X148957861Y-141285000D01*
X149206121Y-141235619D01*
X149439976Y-141138753D01*
X149650440Y-140998125D01*
X149829425Y-140819140D01*
X149910800Y-140697354D01*
X149992175Y-140819140D01*
X150171160Y-140998125D01*
X150381624Y-141138753D01*
X150615479Y-141235619D01*
X150863739Y-141285000D01*
X151116861Y-141285000D01*
X151365121Y-141235619D01*
X151598976Y-141138753D01*
X151809440Y-140998125D01*
X151988425Y-140819140D01*
X152129053Y-140608676D01*
X152225919Y-140374821D01*
X152275300Y-140126561D01*
X152275300Y-139873439D01*
X152225919Y-139625179D01*
X152129053Y-139391324D01*
X151988425Y-139180860D01*
X151809440Y-139001875D01*
X151598976Y-138861247D01*
X151365121Y-138764381D01*
X151116861Y-138715000D01*
X150863739Y-138715000D01*
X150615479Y-138764381D01*
X150381624Y-138861247D01*
X150171160Y-139001875D01*
X149992175Y-139180860D01*
X149910800Y-139302646D01*
X149829425Y-139180860D01*
X149650440Y-139001875D01*
X149439976Y-138861247D01*
X149206121Y-138764381D01*
X148957861Y-138715000D01*
X148704739Y-138715000D01*
X148456479Y-138764381D01*
X148222624Y-138861247D01*
X148012160Y-139001875D01*
X147910553Y-139103482D01*
X147852837Y-138995506D01*
X147773485Y-138898815D01*
X147676794Y-138819463D01*
X147566480Y-138760498D01*
X147446782Y-138724188D01*
X147322300Y-138711928D01*
X146022300Y-138711928D01*
X145897818Y-138724188D01*
X145778120Y-138760498D01*
X145667806Y-138819463D01*
X145571115Y-138898815D01*
X145491763Y-138995506D01*
X145432798Y-139105820D01*
X145396488Y-139225518D01*
X145384228Y-139350000D01*
X143207073Y-139350000D01*
X143207073Y-136312000D01*
X143161667Y-135850988D01*
X143027195Y-135407691D01*
X142808824Y-134999148D01*
X142514945Y-134641056D01*
X142156853Y-134347177D01*
X141748310Y-134128806D01*
X141305013Y-133994334D01*
X140844001Y-133948928D01*
X140843999Y-133948928D01*
X140382987Y-133994334D01*
X139939690Y-134128806D01*
X139531147Y-134347177D01*
X139173055Y-134641056D01*
X138879176Y-134999148D01*
X138660805Y-135407691D01*
X138526333Y-135850988D01*
X138480927Y-136312000D01*
X136410879Y-136312000D01*
X136410879Y-117220816D01*
X140334400Y-117220816D01*
X140334400Y-117523184D01*
X140393389Y-117819743D01*
X140509101Y-118099095D01*
X140677088Y-118350505D01*
X140890895Y-118564312D01*
X141007163Y-118642000D01*
X140890895Y-118719688D01*
X140677088Y-118933495D01*
X140509101Y-119184905D01*
X140393389Y-119464257D01*
X140334400Y-119760816D01*
X140334400Y-120063184D01*
X140393389Y-120359743D01*
X140509101Y-120639095D01*
X140677088Y-120890505D01*
X140890895Y-121104312D01*
X141007163Y-121182000D01*
X140890895Y-121259688D01*
X140677088Y-121473495D01*
X140509101Y-121724905D01*
X140393389Y-122004257D01*
X140334400Y-122300816D01*
X140334400Y-122603184D01*
X140393389Y-122899743D01*
X140509101Y-123179095D01*
X140677088Y-123430505D01*
X140890895Y-123644312D01*
X141007163Y-123722000D01*
X140890895Y-123799688D01*
X140677088Y-124013495D01*
X140509101Y-124264905D01*
X140393389Y-124544257D01*
X140334400Y-124840816D01*
X140334400Y-125143184D01*
X140393389Y-125439743D01*
X140509101Y-125719095D01*
X140677088Y-125970505D01*
X140890895Y-126184312D01*
X141142305Y-126352299D01*
X141421657Y-126468011D01*
X141718216Y-126527000D01*
X142020584Y-126527000D01*
X142317143Y-126468011D01*
X142596495Y-126352299D01*
X142847905Y-126184312D01*
X143061712Y-125970505D01*
X143229699Y-125719095D01*
X143345411Y-125439743D01*
X143404400Y-125143184D01*
X143404400Y-124840816D01*
X143345411Y-124544257D01*
X143229699Y-124264905D01*
X143061712Y-124013495D01*
X142847905Y-123799688D01*
X142731637Y-123722000D01*
X142847905Y-123644312D01*
X143061712Y-123430505D01*
X143229699Y-123179095D01*
X143345411Y-122899743D01*
X143404400Y-122603184D01*
X143404400Y-122300816D01*
X143345411Y-122004257D01*
X143229699Y-121724905D01*
X143061712Y-121473495D01*
X142847905Y-121259688D01*
X142731637Y-121182000D01*
X142847905Y-121104312D01*
X143061712Y-120890505D01*
X143229699Y-120639095D01*
X143345411Y-120359743D01*
X143404400Y-120063184D01*
X143404400Y-119760816D01*
X143345411Y-119464257D01*
X143229699Y-119184905D01*
X143061712Y-118933495D01*
X142847905Y-118719688D01*
X142731637Y-118642000D01*
X142847905Y-118564312D01*
X143061712Y-118350505D01*
X143229699Y-118099095D01*
X143345411Y-117819743D01*
X143404400Y-117523184D01*
X143404400Y-117220816D01*
X143345411Y-116924257D01*
X143229699Y-116644905D01*
X143061712Y-116393495D01*
X142847905Y-116179688D01*
X142596495Y-116011701D01*
X142317143Y-115895989D01*
X142020584Y-115837000D01*
X141718216Y-115837000D01*
X141421657Y-115895989D01*
X141142305Y-116011701D01*
X140890895Y-116179688D01*
X140677088Y-116393495D01*
X140509101Y-116644905D01*
X140393389Y-116924257D01*
X140334400Y-117220816D01*
X136410879Y-117220816D01*
X136410879Y-74721177D01*
X136401690Y-74627883D01*
X136365380Y-74508183D01*
X136306414Y-74397867D01*
X136227061Y-74301173D01*
X136130366Y-74221820D01*
X136020050Y-74162854D01*
X135900350Y-74126544D01*
X135837889Y-74120392D01*
X135837833Y-74120386D01*
X135837014Y-74120306D01*
X135775867Y-74114283D01*
X135775728Y-74114297D01*
X135524818Y-74089695D01*
X135283332Y-74016786D01*
X135060602Y-73898358D01*
X134865120Y-73738927D01*
X134704327Y-73544562D01*
X134584349Y-73322668D01*
X134509756Y-73081694D01*
X134480312Y-72801555D01*
X134480312Y-72782000D01*
X139010927Y-72782000D01*
X139010927Y-82782000D01*
X139046149Y-83139615D01*
X139150461Y-83483486D01*
X139319855Y-83800400D01*
X139547821Y-84078178D01*
X139825599Y-84306144D01*
X140142513Y-84475538D01*
X140486384Y-84579850D01*
X140843999Y-84615072D01*
X140844001Y-84615072D01*
X141201616Y-84579850D01*
X141545487Y-84475538D01*
X141862401Y-84306144D01*
X142140179Y-84078178D01*
X142368145Y-83800400D01*
X142537539Y-83483486D01*
X142641851Y-83139615D01*
X142677073Y-82782000D01*
X142677073Y-81112000D01*
X154480927Y-81112000D01*
X154480927Y-91112000D01*
X154526333Y-91573012D01*
X154660805Y-92016309D01*
X154879176Y-92424852D01*
X155173055Y-92782944D01*
X155531147Y-93076823D01*
X155939690Y-93295194D01*
X156382987Y-93429666D01*
X156843999Y-93475072D01*
X156844001Y-93475072D01*
X157305013Y-93429666D01*
X157748310Y-93295194D01*
X158156853Y-93076823D01*
X158514945Y-92782944D01*
X158808824Y-92424852D01*
X159027195Y-92016309D01*
X159161667Y-91573012D01*
X159207073Y-91112000D01*
X159207073Y-81112000D01*
X159161667Y-80650988D01*
X159027195Y-80207691D01*
X158808824Y-79799148D01*
X158514945Y-79441056D01*
X158156853Y-79147177D01*
X157748310Y-78928806D01*
X157305013Y-78794334D01*
X156844001Y-78748928D01*
X156843999Y-78748928D01*
X156382987Y-78794334D01*
X155939690Y-78928806D01*
X155531147Y-79147177D01*
X155173055Y-79441056D01*
X154879176Y-79799148D01*
X154660805Y-80207691D01*
X154526333Y-80650988D01*
X154480927Y-81112000D01*
X142677073Y-81112000D01*
X142677073Y-72782000D01*
X142641851Y-72424385D01*
X142537539Y-72080514D01*
X142368145Y-71763600D01*
X142140179Y-71485822D01*
X141862401Y-71257856D01*
X141545487Y-71088462D01*
X141201616Y-70984150D01*
X140844001Y-70948928D01*
X140843999Y-70948928D01*
X140486384Y-70984150D01*
X140142513Y-71088462D01*
X139825599Y-71257856D01*
X139547821Y-71485822D01*
X139319855Y-71763600D01*
X139150461Y-72080514D01*
X139046149Y-72424385D01*
X139010927Y-72782000D01*
X134480312Y-72782000D01*
X134480312Y-42747000D01*
X143258569Y-42747000D01*
X143259920Y-42749527D01*
X143451740Y-42983261D01*
X143685474Y-43175081D01*
X143952140Y-43317617D01*
X144241488Y-43405390D01*
X144542400Y-43435027D01*
X144753542Y-43414232D01*
X144709873Y-43432320D01*
X144474841Y-43589363D01*
X144274963Y-43789241D01*
X144255079Y-43819000D01*
X142760986Y-43819000D01*
X142717519Y-43814719D01*
X142674053Y-43819000D01*
X142674043Y-43819000D01*
X142544030Y-43831805D01*
X142377207Y-43882411D01*
X142223461Y-43964589D01*
X142223459Y-43964590D01*
X142223460Y-43964590D01*
X142122473Y-44047468D01*
X142122471Y-44047470D01*
X142088703Y-44075183D01*
X142060990Y-44108951D01*
X140268142Y-45901800D01*
X139077472Y-45901800D01*
X139077472Y-45786800D01*
X139065212Y-45662318D01*
X139028902Y-45542620D01*
X138969937Y-45432306D01*
X138890585Y-45335615D01*
X138793894Y-45256263D01*
X138683580Y-45197298D01*
X138563882Y-45160988D01*
X138439400Y-45148728D01*
X136439400Y-45148728D01*
X136314918Y-45160988D01*
X136195220Y-45197298D01*
X136084906Y-45256263D01*
X135988215Y-45335615D01*
X135908863Y-45432306D01*
X135849898Y-45542620D01*
X135813588Y-45662318D01*
X135801328Y-45786800D01*
X135801328Y-47786800D01*
X135813588Y-47911282D01*
X135849898Y-48030980D01*
X135908863Y-48141294D01*
X135988215Y-48237985D01*
X136084906Y-48317337D01*
X136172876Y-48364359D01*
X136040468Y-48525699D01*
X135907218Y-48774992D01*
X135825164Y-49045491D01*
X135797457Y-49326800D01*
X135825164Y-49608109D01*
X135907218Y-49878608D01*
X136040468Y-50127901D01*
X136219792Y-50346408D01*
X136438299Y-50525732D01*
X136571258Y-50596800D01*
X136438299Y-50667868D01*
X136219792Y-50847192D01*
X136040468Y-51065699D01*
X135907218Y-51314992D01*
X135825164Y-51585491D01*
X135797457Y-51866800D01*
X135825164Y-52148109D01*
X135907218Y-52418608D01*
X136040468Y-52667901D01*
X136219792Y-52886408D01*
X136438299Y-53065732D01*
X136687592Y-53198982D01*
X136958091Y-53281036D01*
X137168908Y-53301800D01*
X137709892Y-53301800D01*
X137920709Y-53281036D01*
X138191208Y-53198982D01*
X138440501Y-53065732D01*
X138659008Y-52886408D01*
X138769478Y-52751800D01*
X143951528Y-52751800D01*
X143951528Y-53124000D01*
X143963788Y-53248482D01*
X144000098Y-53368180D01*
X144059063Y-53478494D01*
X144138415Y-53575185D01*
X144235106Y-53654537D01*
X144345420Y-53713502D01*
X144464660Y-53749673D01*
X144237041Y-53901763D01*
X144037163Y-54101641D01*
X143880120Y-54336673D01*
X143771947Y-54597826D01*
X143716800Y-54875065D01*
X143716800Y-55157735D01*
X143771947Y-55434974D01*
X143880120Y-55696127D01*
X144037163Y-55931159D01*
X144237041Y-56131037D01*
X144472073Y-56288080D01*
X144733226Y-56396253D01*
X145010465Y-56451400D01*
X145293135Y-56451400D01*
X145570374Y-56396253D01*
X145700446Y-56342376D01*
X141137352Y-60905470D01*
X141103584Y-60933183D01*
X141075871Y-60966951D01*
X141075868Y-60966954D01*
X140992990Y-61067941D01*
X140910812Y-61221687D01*
X140860205Y-61388510D01*
X140856717Y-61423928D01*
X140332400Y-61423928D01*
X140207918Y-61436188D01*
X140088220Y-61472498D01*
X139977906Y-61531463D01*
X139885000Y-61607709D01*
X139885000Y-61443469D01*
X139889281Y-61400000D01*
X139885000Y-61356531D01*
X139885000Y-61356523D01*
X139872195Y-61226510D01*
X139824093Y-61067941D01*
X139821589Y-61059686D01*
X139739411Y-60905941D01*
X139656532Y-60804953D01*
X139656530Y-60804951D01*
X139628817Y-60771183D01*
X139595050Y-60743471D01*
X138324400Y-59472822D01*
X138324400Y-58207789D01*
X138440501Y-58145732D01*
X138659008Y-57966408D01*
X138838332Y-57747901D01*
X138971582Y-57498608D01*
X139053636Y-57228109D01*
X139081343Y-56946800D01*
X139053636Y-56665491D01*
X138971582Y-56394992D01*
X138838332Y-56145699D01*
X138659008Y-55927192D01*
X138440501Y-55747868D01*
X138191208Y-55614618D01*
X137920709Y-55532564D01*
X137709892Y-55511800D01*
X137168908Y-55511800D01*
X136958091Y-55532564D01*
X136687592Y-55614618D01*
X136438299Y-55747868D01*
X136219792Y-55927192D01*
X136040468Y-56145699D01*
X135907218Y-56394992D01*
X135825164Y-56665491D01*
X135797457Y-56946800D01*
X135825164Y-57228109D01*
X135907218Y-57498608D01*
X136040468Y-57747901D01*
X136219792Y-57966408D01*
X136438299Y-58145732D01*
X136554400Y-58207790D01*
X136554401Y-59795921D01*
X136550119Y-59839400D01*
X136567205Y-60012890D01*
X136617812Y-60179713D01*
X136699990Y-60333459D01*
X136782868Y-60434446D01*
X136782871Y-60434449D01*
X136810584Y-60468217D01*
X136844351Y-60495929D01*
X138115000Y-61766579D01*
X138115001Y-64576123D01*
X138110719Y-64619602D01*
X138127805Y-64793092D01*
X138178412Y-64959915D01*
X138260590Y-65113661D01*
X138343468Y-65214648D01*
X138343471Y-65214651D01*
X138371184Y-65248419D01*
X138404951Y-65276131D01*
X140393819Y-67265000D01*
X140188212Y-67265000D01*
X139968933Y-67308617D01*
X139762376Y-67394176D01*
X139576480Y-67518388D01*
X139418388Y-67676480D01*
X139294176Y-67862376D01*
X139208617Y-68068933D01*
X139165000Y-68288212D01*
X139165000Y-68511788D01*
X139208617Y-68731067D01*
X139294176Y-68937624D01*
X139418388Y-69123520D01*
X139576480Y-69281612D01*
X139762376Y-69405824D01*
X139968933Y-69491383D01*
X140188212Y-69535000D01*
X140411788Y-69535000D01*
X140631067Y-69491383D01*
X140837624Y-69405824D01*
X141018450Y-69285000D01*
X157722731Y-69285000D01*
X157766200Y-69289281D01*
X157809669Y-69285000D01*
X157809677Y-69285000D01*
X157939690Y-69272195D01*
X158106513Y-69221589D01*
X158260259Y-69139411D01*
X158395017Y-69028817D01*
X158422734Y-68995044D01*
X160894449Y-66523330D01*
X160928217Y-66495617D01*
X161038811Y-66360859D01*
X161120989Y-66207113D01*
X161171595Y-66040290D01*
X161184400Y-65910277D01*
X161184400Y-65910269D01*
X161188681Y-65866800D01*
X161184817Y-65827566D01*
X161300501Y-65765732D01*
X161519008Y-65586408D01*
X161698332Y-65367901D01*
X161831582Y-65118608D01*
X161913636Y-64848109D01*
X161941343Y-64566800D01*
X161913636Y-64285491D01*
X161831582Y-64014992D01*
X161698332Y-63765699D01*
X161519008Y-63547192D01*
X161300501Y-63367868D01*
X161167542Y-63296800D01*
X161300501Y-63225732D01*
X161519008Y-63046408D01*
X161698332Y-62827901D01*
X161831582Y-62578608D01*
X161913636Y-62308109D01*
X161941343Y-62026800D01*
X161913636Y-61745491D01*
X161831582Y-61474992D01*
X161698332Y-61225699D01*
X161519008Y-61007192D01*
X161300501Y-60827868D01*
X161167542Y-60756800D01*
X161300501Y-60685732D01*
X161519008Y-60506408D01*
X161698332Y-60287901D01*
X161831582Y-60038608D01*
X161913636Y-59768109D01*
X161941343Y-59486800D01*
X161913636Y-59205491D01*
X161831582Y-58934992D01*
X161698332Y-58685699D01*
X161519008Y-58467192D01*
X161300501Y-58287868D01*
X161167542Y-58216800D01*
X161300501Y-58145732D01*
X161519008Y-57966408D01*
X161698332Y-57747901D01*
X161831582Y-57498608D01*
X161913636Y-57228109D01*
X161941343Y-56946800D01*
X161913636Y-56665491D01*
X161831582Y-56394992D01*
X161698332Y-56145699D01*
X161519008Y-55927192D01*
X161300501Y-55747868D01*
X161051208Y-55614618D01*
X160780709Y-55532564D01*
X160569892Y-55511800D01*
X160028908Y-55511800D01*
X159818091Y-55532564D01*
X159547592Y-55614618D01*
X159298299Y-55747868D01*
X159079792Y-55927192D01*
X158900468Y-56145699D01*
X158767218Y-56394992D01*
X158685164Y-56665491D01*
X158657457Y-56946800D01*
X158685164Y-57228109D01*
X158767218Y-57498608D01*
X158900468Y-57747901D01*
X159079792Y-57966408D01*
X159298299Y-58145732D01*
X159431258Y-58216800D01*
X159298299Y-58287868D01*
X159079792Y-58467192D01*
X158900468Y-58685699D01*
X158767218Y-58934992D01*
X158685164Y-59205491D01*
X158657457Y-59486800D01*
X158685164Y-59768109D01*
X158767218Y-60038608D01*
X158900468Y-60287901D01*
X159079792Y-60506408D01*
X159298299Y-60685732D01*
X159431258Y-60756800D01*
X159298299Y-60827868D01*
X159079792Y-61007192D01*
X158900468Y-61225699D01*
X158767218Y-61474992D01*
X158685164Y-61745491D01*
X158657457Y-62026800D01*
X158685164Y-62308109D01*
X158767218Y-62578608D01*
X158900468Y-62827901D01*
X159079792Y-63046408D01*
X159298299Y-63225732D01*
X159431258Y-63296800D01*
X159298299Y-63367868D01*
X159079792Y-63547192D01*
X158900468Y-63765699D01*
X158767218Y-64014992D01*
X158685164Y-64285491D01*
X158657457Y-64566800D01*
X158685164Y-64848109D01*
X158767218Y-65118608D01*
X158900468Y-65367901D01*
X159079792Y-65586408D01*
X159216236Y-65698385D01*
X157399622Y-67515000D01*
X143990132Y-67515000D01*
X144081612Y-67423520D01*
X144205824Y-67237624D01*
X144291383Y-67031067D01*
X144335000Y-66811788D01*
X144335000Y-66588212D01*
X144291383Y-66368933D01*
X144205824Y-66162376D01*
X144081612Y-65976480D01*
X143923520Y-65818388D01*
X143737624Y-65694176D01*
X143531067Y-65608617D01*
X143311788Y-65565000D01*
X143088212Y-65565000D01*
X142868933Y-65608617D01*
X142662376Y-65694176D01*
X142481550Y-65815000D01*
X141446977Y-65815000D01*
X141132049Y-65500072D01*
X143132400Y-65500072D01*
X143256882Y-65487812D01*
X143376580Y-65451502D01*
X143486894Y-65392537D01*
X143502400Y-65379812D01*
X143517906Y-65392537D01*
X143628220Y-65451502D01*
X143747918Y-65487812D01*
X143872400Y-65500072D01*
X146672400Y-65500072D01*
X146796882Y-65487812D01*
X146916580Y-65451502D01*
X147026894Y-65392537D01*
X147123585Y-65313185D01*
X147202937Y-65216494D01*
X147261902Y-65106180D01*
X147298212Y-64986482D01*
X147310472Y-64862000D01*
X147310472Y-62062000D01*
X147298212Y-61937518D01*
X147261902Y-61817820D01*
X147202937Y-61707506D01*
X147123585Y-61610815D01*
X147026894Y-61531463D01*
X146916580Y-61472498D01*
X146796882Y-61436188D01*
X146672400Y-61423928D01*
X143872400Y-61423928D01*
X143747918Y-61436188D01*
X143628220Y-61472498D01*
X143517906Y-61531463D01*
X143502400Y-61544188D01*
X143486894Y-61531463D01*
X143376580Y-61472498D01*
X143256882Y-61436188D01*
X143132400Y-61423928D01*
X143122050Y-61423928D01*
X149437451Y-55108528D01*
X149471217Y-55080817D01*
X149501863Y-55043476D01*
X149581810Y-54946060D01*
X149581811Y-54946059D01*
X149663989Y-54792313D01*
X149714595Y-54625490D01*
X149727400Y-54495477D01*
X149727400Y-54495467D01*
X149731681Y-54452001D01*
X149727400Y-54408535D01*
X149727400Y-42427121D01*
X149757159Y-42407237D01*
X149842400Y-42321996D01*
X149927641Y-42407237D01*
X149957401Y-42427122D01*
X149957400Y-50824531D01*
X149953119Y-50868000D01*
X149957400Y-50911469D01*
X149957400Y-50911476D01*
X149970205Y-51041489D01*
X150020811Y-51208312D01*
X150102989Y-51362058D01*
X150213583Y-51496817D01*
X150247356Y-51524534D01*
X150895783Y-52172961D01*
X150888800Y-52208065D01*
X150888800Y-52490735D01*
X150943947Y-52767974D01*
X151052120Y-53029127D01*
X151209163Y-53264159D01*
X151409041Y-53464037D01*
X151644073Y-53621080D01*
X151886801Y-53721621D01*
X151886801Y-53881878D01*
X151857041Y-53901763D01*
X151657163Y-54101641D01*
X151500120Y-54336673D01*
X151391947Y-54597826D01*
X151336800Y-54875065D01*
X151336800Y-55157735D01*
X151391947Y-55434974D01*
X151500120Y-55696127D01*
X151657163Y-55931159D01*
X151857041Y-56131037D01*
X152092073Y-56288080D01*
X152353226Y-56396253D01*
X152630465Y-56451400D01*
X152913135Y-56451400D01*
X153190374Y-56396253D01*
X153451527Y-56288080D01*
X153686559Y-56131037D01*
X153886437Y-55931159D01*
X154043480Y-55696127D01*
X154151653Y-55434974D01*
X154197401Y-55204989D01*
X154197401Y-61521043D01*
X154177906Y-61531463D01*
X154162400Y-61544188D01*
X154146894Y-61531463D01*
X154036580Y-61472498D01*
X153916882Y-61436188D01*
X153792400Y-61423928D01*
X150992400Y-61423928D01*
X150867918Y-61436188D01*
X150748220Y-61472498D01*
X150637906Y-61531463D01*
X150541215Y-61610815D01*
X150461863Y-61707506D01*
X150402898Y-61817820D01*
X150366588Y-61937518D01*
X150354328Y-62062000D01*
X150354328Y-64862000D01*
X150366588Y-64986482D01*
X150402898Y-65106180D01*
X150461863Y-65216494D01*
X150541215Y-65313185D01*
X150637906Y-65392537D01*
X150748220Y-65451502D01*
X150867918Y-65487812D01*
X150992400Y-65500072D01*
X153792400Y-65500072D01*
X153916882Y-65487812D01*
X154036580Y-65451502D01*
X154146894Y-65392537D01*
X154162400Y-65379812D01*
X154177906Y-65392537D01*
X154288220Y-65451502D01*
X154407918Y-65487812D01*
X154532400Y-65500072D01*
X157332400Y-65500072D01*
X157456882Y-65487812D01*
X157576580Y-65451502D01*
X157686894Y-65392537D01*
X157783585Y-65313185D01*
X157862937Y-65216494D01*
X157921902Y-65106180D01*
X157958212Y-64986482D01*
X157970472Y-64862000D01*
X157970472Y-62062000D01*
X157958212Y-61937518D01*
X157921902Y-61817820D01*
X157862937Y-61707506D01*
X157783585Y-61610815D01*
X157686894Y-61531463D01*
X157576580Y-61472498D01*
X157467400Y-61439379D01*
X157467400Y-46301880D01*
X158044651Y-46301880D01*
X158088120Y-46306161D01*
X158131589Y-46301880D01*
X158131597Y-46301880D01*
X158261610Y-46289075D01*
X158428433Y-46238469D01*
X158582179Y-46156291D01*
X158716937Y-46045697D01*
X158744654Y-46011924D01*
X162405050Y-42351529D01*
X162438817Y-42323817D01*
X162485293Y-42267187D01*
X162528266Y-42214824D01*
X162549411Y-42189059D01*
X162631589Y-42035313D01*
X162682195Y-41868490D01*
X162695000Y-41738477D01*
X162695000Y-41738467D01*
X162699281Y-41695001D01*
X162695000Y-41651535D01*
X162695000Y-41525077D01*
X162829607Y-41414608D01*
X163008932Y-41196101D01*
X163142182Y-40946808D01*
X163213000Y-40713350D01*
X163213000Y-42561485D01*
G36*
X147957400Y-54085421D02*
G01*
X146477776Y-55565046D01*
X146531653Y-55434974D01*
X146586800Y-55157735D01*
X146586800Y-54875065D01*
X146531653Y-54597826D01*
X146423480Y-54336673D01*
X146266437Y-54101641D01*
X146066559Y-53901763D01*
X145857496Y-53762072D01*
X146189600Y-53762072D01*
X146314082Y-53749812D01*
X146433780Y-53713502D01*
X146544094Y-53654537D01*
X146640785Y-53575185D01*
X146720137Y-53478494D01*
X146779102Y-53368180D01*
X146815412Y-53248482D01*
X146827672Y-53124000D01*
X146827672Y-51524000D01*
X146815412Y-51399518D01*
X146779102Y-51279820D01*
X146720137Y-51169506D01*
X146640785Y-51072815D01*
X146544094Y-50993463D01*
X146433780Y-50934498D01*
X146314082Y-50898188D01*
X146189600Y-50885928D01*
X144589600Y-50885928D01*
X144465118Y-50898188D01*
X144345420Y-50934498D01*
X144256926Y-50981800D01*
X138769478Y-50981800D01*
X138659008Y-50847192D01*
X138440501Y-50667868D01*
X138307542Y-50596800D01*
X138440501Y-50525732D01*
X138659008Y-50346408D01*
X138838332Y-50127901D01*
X138971582Y-49878608D01*
X139053636Y-49608109D01*
X139081343Y-49326800D01*
X139053636Y-49045491D01*
X138971582Y-48774992D01*
X138838332Y-48525699D01*
X138705924Y-48364359D01*
X138793894Y-48317337D01*
X138890585Y-48237985D01*
X138969937Y-48141294D01*
X139028902Y-48030980D01*
X139065212Y-47911282D01*
X139077472Y-47786800D01*
X139077472Y-47671800D01*
X140591251Y-47671800D01*
X140634720Y-47676081D01*
X140678189Y-47671800D01*
X140678197Y-47671800D01*
X140808210Y-47658995D01*
X140975033Y-47608389D01*
X141128779Y-47526211D01*
X141263537Y-47415617D01*
X141291254Y-47381844D01*
X143084099Y-45589000D01*
X144255079Y-45589000D01*
X144274963Y-45618759D01*
X144474841Y-45818637D01*
X144709873Y-45975680D01*
X144971026Y-46083853D01*
X145248265Y-46139000D01*
X145530935Y-46139000D01*
X145808174Y-46083853D01*
X146069327Y-45975680D01*
X146304359Y-45818637D01*
X146504237Y-45618759D01*
X146661280Y-45383727D01*
X146769453Y-45122574D01*
X146824600Y-44845335D01*
X146824600Y-44562665D01*
X146769453Y-44285426D01*
X146661280Y-44024273D01*
X146504237Y-43789241D01*
X146304359Y-43589363D01*
X146069327Y-43432320D01*
X145808174Y-43324147D01*
X145530935Y-43269000D01*
X145248265Y-43269000D01*
X145209008Y-43276809D01*
X145399327Y-43175081D01*
X145633061Y-42983261D01*
X145824881Y-42749527D01*
X145826232Y-42747000D01*
X147957401Y-42747000D01*
X147957400Y-54085421D01*
G37*
X147957400Y-54085421D02*
X146477776Y-55565046D01*
X146531653Y-55434974D01*
X146586800Y-55157735D01*
X146586800Y-54875065D01*
X146531653Y-54597826D01*
X146423480Y-54336673D01*
X146266437Y-54101641D01*
X146066559Y-53901763D01*
X145857496Y-53762072D01*
X146189600Y-53762072D01*
X146314082Y-53749812D01*
X146433780Y-53713502D01*
X146544094Y-53654537D01*
X146640785Y-53575185D01*
X146720137Y-53478494D01*
X146779102Y-53368180D01*
X146815412Y-53248482D01*
X146827672Y-53124000D01*
X146827672Y-51524000D01*
X146815412Y-51399518D01*
X146779102Y-51279820D01*
X146720137Y-51169506D01*
X146640785Y-51072815D01*
X146544094Y-50993463D01*
X146433780Y-50934498D01*
X146314082Y-50898188D01*
X146189600Y-50885928D01*
X144589600Y-50885928D01*
X144465118Y-50898188D01*
X144345420Y-50934498D01*
X144256926Y-50981800D01*
X138769478Y-50981800D01*
X138659008Y-50847192D01*
X138440501Y-50667868D01*
X138307542Y-50596800D01*
X138440501Y-50525732D01*
X138659008Y-50346408D01*
X138838332Y-50127901D01*
X138971582Y-49878608D01*
X139053636Y-49608109D01*
X139081343Y-49326800D01*
X139053636Y-49045491D01*
X138971582Y-48774992D01*
X138838332Y-48525699D01*
X138705924Y-48364359D01*
X138793894Y-48317337D01*
X138890585Y-48237985D01*
X138969937Y-48141294D01*
X139028902Y-48030980D01*
X139065212Y-47911282D01*
X139077472Y-47786800D01*
X139077472Y-47671800D01*
X140591251Y-47671800D01*
X140634720Y-47676081D01*
X140678189Y-47671800D01*
X140678197Y-47671800D01*
X140808210Y-47658995D01*
X140975033Y-47608389D01*
X141128779Y-47526211D01*
X141263537Y-47415617D01*
X141291254Y-47381844D01*
X143084099Y-45589000D01*
X144255079Y-45589000D01*
X144274963Y-45618759D01*
X144474841Y-45818637D01*
X144709873Y-45975680D01*
X144971026Y-46083853D01*
X145248265Y-46139000D01*
X145530935Y-46139000D01*
X145808174Y-46083853D01*
X146069327Y-45975680D01*
X146304359Y-45818637D01*
X146504237Y-45618759D01*
X146661280Y-45383727D01*
X146769453Y-45122574D01*
X146824600Y-44845335D01*
X146824600Y-44562665D01*
X146769453Y-44285426D01*
X146661280Y-44024273D01*
X146504237Y-43789241D01*
X146304359Y-43589363D01*
X146069327Y-43432320D01*
X145808174Y-43324147D01*
X145530935Y-43269000D01*
X145248265Y-43269000D01*
X145209008Y-43276809D01*
X145399327Y-43175081D01*
X145633061Y-42983261D01*
X145824881Y-42749527D01*
X145826232Y-42747000D01*
X147957401Y-42747000D01*
X147957400Y-54085421D01*
G36*
X154197401Y-45336549D02*
G01*
X154197400Y-45336559D01*
X154197400Y-54827811D01*
X154151653Y-54597826D01*
X154043480Y-54336673D01*
X153886437Y-54101641D01*
X153686559Y-53901763D01*
X153656800Y-53881879D01*
X153656800Y-52881087D01*
X153703653Y-52767974D01*
X153758800Y-52490735D01*
X153758800Y-52208065D01*
X153703653Y-51930826D01*
X153595480Y-51669673D01*
X153438437Y-51434641D01*
X153238559Y-51234763D01*
X153003527Y-51077720D01*
X152742374Y-50969547D01*
X152465135Y-50914400D01*
X152182465Y-50914400D01*
X152147361Y-50921383D01*
X151727400Y-50501422D01*
X151727400Y-46035595D01*
X151905226Y-46109253D01*
X152182465Y-46164400D01*
X152465135Y-46164400D01*
X152742374Y-46109253D01*
X153003527Y-46001080D01*
X153238559Y-45844037D01*
X153438437Y-45644159D01*
X153595480Y-45409127D01*
X153703653Y-45147974D01*
X153758800Y-44870735D01*
X153758800Y-44588065D01*
X153703653Y-44310826D01*
X153595480Y-44049673D01*
X153438437Y-43814641D01*
X153238559Y-43614763D01*
X153003527Y-43457720D01*
X152888329Y-43410003D01*
X153142400Y-43435027D01*
X153443313Y-43405390D01*
X153732661Y-43317617D01*
X153999327Y-43175081D01*
X154197401Y-43012527D01*
X154197401Y-45336549D01*
G37*
X154197401Y-45336549D02*
X154197400Y-45336559D01*
X154197400Y-54827811D01*
X154151653Y-54597826D01*
X154043480Y-54336673D01*
X153886437Y-54101641D01*
X153686559Y-53901763D01*
X153656800Y-53881879D01*
X153656800Y-52881087D01*
X153703653Y-52767974D01*
X153758800Y-52490735D01*
X153758800Y-52208065D01*
X153703653Y-51930826D01*
X153595480Y-51669673D01*
X153438437Y-51434641D01*
X153238559Y-51234763D01*
X153003527Y-51077720D01*
X152742374Y-50969547D01*
X152465135Y-50914400D01*
X152182465Y-50914400D01*
X152147361Y-50921383D01*
X151727400Y-50501422D01*
X151727400Y-46035595D01*
X151905226Y-46109253D01*
X152182465Y-46164400D01*
X152465135Y-46164400D01*
X152742374Y-46109253D01*
X153003527Y-46001080D01*
X153238559Y-45844037D01*
X153438437Y-45644159D01*
X153595480Y-45409127D01*
X153703653Y-45147974D01*
X153758800Y-44870735D01*
X153758800Y-44588065D01*
X153703653Y-44310826D01*
X153595480Y-44049673D01*
X153438437Y-43814641D01*
X153238559Y-43614763D01*
X153003527Y-43457720D01*
X152888329Y-43410003D01*
X153142400Y-43435027D01*
X153443313Y-43405390D01*
X153732661Y-43317617D01*
X153999327Y-43175081D01*
X154197401Y-43012527D01*
X154197401Y-45336549D01*
G36*
X158071068Y-41196100D02*
G01*
X158250392Y-41414607D01*
X158468899Y-41593932D01*
X158718192Y-41727182D01*
X158988691Y-41809236D01*
X159270000Y-41836943D01*
X159551308Y-41809236D01*
X159821807Y-41727182D01*
X160071100Y-41593932D01*
X160289607Y-41414608D01*
X160468932Y-41196101D01*
X160540000Y-41063142D01*
X160611068Y-41196100D01*
X160790392Y-41414607D01*
X160816988Y-41436434D01*
X157721542Y-44531880D01*
X157467400Y-44531880D01*
X157467400Y-42584621D01*
X157576580Y-42551502D01*
X157686894Y-42492537D01*
X157783585Y-42413185D01*
X157862937Y-42316494D01*
X157921902Y-42206180D01*
X157958212Y-42086482D01*
X157970472Y-41962000D01*
X157970472Y-41007898D01*
X158071068Y-41196100D01*
G37*
X158071068Y-41196100D02*
X158250392Y-41414607D01*
X158468899Y-41593932D01*
X158718192Y-41727182D01*
X158988691Y-41809236D01*
X159270000Y-41836943D01*
X159551308Y-41809236D01*
X159821807Y-41727182D01*
X160071100Y-41593932D01*
X160289607Y-41414608D01*
X160468932Y-41196101D01*
X160540000Y-41063142D01*
X160611068Y-41196100D01*
X160790392Y-41414607D01*
X160816988Y-41436434D01*
X157721542Y-44531880D01*
X157467400Y-44531880D01*
X157467400Y-42584621D01*
X157576580Y-42551502D01*
X157686894Y-42492537D01*
X157783585Y-42413185D01*
X157862937Y-42316494D01*
X157921902Y-42206180D01*
X157958212Y-42086482D01*
X157970472Y-41962000D01*
X157970472Y-41007898D01*
X158071068Y-41196100D01*
G36*
X151859920Y-42749527D02*
G01*
X152051740Y-42983261D01*
X152285474Y-43175081D01*
X152534528Y-43308203D01*
X152465135Y-43294400D01*
X152182465Y-43294400D01*
X151905226Y-43349547D01*
X151727400Y-43423205D01*
X151727400Y-42501601D01*
X151859920Y-42749527D01*
G37*
X151859920Y-42749527D02*
X152051740Y-42983261D01*
X152285474Y-43175081D01*
X152534528Y-43308203D01*
X152465135Y-43294400D01*
X152182465Y-43294400D01*
X151905226Y-43349547D01*
X151727400Y-43423205D01*
X151727400Y-42501601D01*
X151859920Y-42749527D01*
G36*
X152552139Y-39267583D02*
G01*
X152285473Y-39410119D01*
X152051739Y-39601939D01*
X151859919Y-39835674D01*
X151717383Y-40102340D01*
X151705013Y-40143120D01*
X151522127Y-40020920D01*
X151260974Y-39912747D01*
X150983735Y-39857600D01*
X150701065Y-39857600D01*
X150423826Y-39912747D01*
X150162673Y-40020920D01*
X149927641Y-40177963D01*
X149842400Y-40263204D01*
X149757159Y-40177963D01*
X149522127Y-40020920D01*
X149260974Y-39912747D01*
X149102592Y-39881243D01*
X149099258Y-39248008D01*
X152616825Y-39247961D01*
X152552139Y-39267583D01*
G37*
X152552139Y-39267583D02*
X152285473Y-39410119D01*
X152051739Y-39601939D01*
X151859919Y-39835674D01*
X151717383Y-40102340D01*
X151705013Y-40143120D01*
X151522127Y-40020920D01*
X151260974Y-39912747D01*
X150983735Y-39857600D01*
X150701065Y-39857600D01*
X150423826Y-39912747D01*
X150162673Y-40020920D01*
X149927641Y-40177963D01*
X149842400Y-40263204D01*
X149757159Y-40177963D01*
X149522127Y-40020920D01*
X149260974Y-39912747D01*
X149102592Y-39881243D01*
X149099258Y-39248008D01*
X152616825Y-39247961D01*
X152552139Y-39267583D01*
G36*
X160581315Y-34930275D02*
G01*
X161254810Y-35236494D01*
X161858249Y-35664544D01*
X162369861Y-36198981D01*
X162771181Y-36820516D01*
X163047731Y-37506723D01*
X163192367Y-38247363D01*
X163211763Y-38643941D01*
X163213000Y-38652473D01*
X163213000Y-39676651D01*
X163142182Y-39443193D01*
X163008932Y-39193899D01*
X162829608Y-38975392D01*
X162611101Y-38796068D01*
X162361808Y-38662818D01*
X162091309Y-38580764D01*
X161810000Y-38553057D01*
X161528692Y-38580764D01*
X161258193Y-38662818D01*
X161008900Y-38796068D01*
X160790393Y-38975392D01*
X160611068Y-39193899D01*
X160540000Y-39326858D01*
X160468932Y-39193899D01*
X160422281Y-39137054D01*
X160435641Y-39131520D01*
X160826269Y-38870510D01*
X161158470Y-38538309D01*
X161419480Y-38147681D01*
X161599266Y-37713639D01*
X161690920Y-37252862D01*
X161690920Y-36783058D01*
X161599266Y-36322281D01*
X161419480Y-35888239D01*
X161158470Y-35497611D01*
X160826269Y-35165410D01*
X160435641Y-34904400D01*
X160382336Y-34882320D01*
X160581315Y-34930275D01*
G37*
X160581315Y-34930275D02*
X161254810Y-35236494D01*
X161858249Y-35664544D01*
X162369861Y-36198981D01*
X162771181Y-36820516D01*
X163047731Y-37506723D01*
X163192367Y-38247363D01*
X163211763Y-38643941D01*
X163213000Y-38652473D01*
X163213000Y-39676651D01*
X163142182Y-39443193D01*
X163008932Y-39193899D01*
X162829608Y-38975392D01*
X162611101Y-38796068D01*
X162361808Y-38662818D01*
X162091309Y-38580764D01*
X161810000Y-38553057D01*
X161528692Y-38580764D01*
X161258193Y-38662818D01*
X161008900Y-38796068D01*
X160790393Y-38975392D01*
X160611068Y-39193899D01*
X160540000Y-39326858D01*
X160468932Y-39193899D01*
X160422281Y-39137054D01*
X160435641Y-39131520D01*
X160826269Y-38870510D01*
X161158470Y-38538309D01*
X161419480Y-38147681D01*
X161599266Y-37713639D01*
X161690920Y-37252862D01*
X161690920Y-36783058D01*
X161599266Y-36322281D01*
X161419480Y-35888239D01*
X161158470Y-35497611D01*
X160826269Y-35165410D01*
X160435641Y-34904400D01*
X160382336Y-34882320D01*
X160581315Y-34930275D01*
G36*
X158141364Y-39108244D02*
G01*
X158071068Y-39193899D01*
X157970472Y-39382101D01*
X157970472Y-39162000D01*
X157958212Y-39037518D01*
X157938560Y-38972734D01*
X158141364Y-39108244D01*
G37*
X158141364Y-39108244D02*
X158071068Y-39193899D01*
X157970472Y-39382101D01*
X157970472Y-39162000D01*
X157958212Y-39037518D01*
X157938560Y-38972734D01*
X158141364Y-39108244D01*
G36*
X153894328Y-39353996D02*
G01*
X153732660Y-39267583D01*
X153667927Y-39247946D01*
X153894328Y-39247943D01*
X153894328Y-39353996D01*
G37*
X153894328Y-39353996D02*
X153732660Y-39267583D01*
X153667927Y-39247946D01*
X153894328Y-39247943D01*
X153894328Y-39353996D01*
G36*
X158176199Y-34904400D02*
G01*
X157785571Y-35165410D01*
X157453370Y-35497611D01*
X157192360Y-35888239D01*
X157012574Y-36322281D01*
X156920920Y-36783058D01*
X156920920Y-37252862D01*
X157012574Y-37713639D01*
X157192360Y-38147681D01*
X157451606Y-38535668D01*
X157332400Y-38523928D01*
X155426929Y-38523928D01*
X155488706Y-37876426D01*
X155696975Y-37166500D01*
X156035730Y-36508769D01*
X156492745Y-35926962D01*
X157051533Y-35442070D01*
X157691935Y-35071589D01*
X158190786Y-34898358D01*
X158176199Y-34904400D01*
G37*
X158176199Y-34904400D02*
X157785571Y-35165410D01*
X157453370Y-35497611D01*
X157192360Y-35888239D01*
X157012574Y-36322281D01*
X156920920Y-36783058D01*
X156920920Y-37252862D01*
X157012574Y-37713639D01*
X157192360Y-38147681D01*
X157451606Y-38535668D01*
X157332400Y-38523928D01*
X155426929Y-38523928D01*
X155488706Y-37876426D01*
X155696975Y-37166500D01*
X156035730Y-36508769D01*
X156492745Y-35926962D01*
X157051533Y-35442070D01*
X157691935Y-35071589D01*
X158190786Y-34898358D01*
X158176199Y-34904400D01*
M02*
