G04 #@! TF.GenerationSoftware,KiCad,Pcbnew,(5.1.5)-3*
G04 #@! TF.CreationDate,2020-05-23T22:10:47-07:00*
G04 #@! TF.ProjectId,iSpindel_PCB,69537069-6e64-4656-9c5f-5043422e6b69,rev?*
G04 #@! TF.SameCoordinates,Original*
G04 #@! TF.FileFunction,Soldermask,Bot*
G04 #@! TF.FilePolarity,Negative*
%FSLAX46Y46*%
G04 Gerber Fmt 4.6, Leading zero omitted, Abs format (unit mm)*
G04 Created by KiCad (PCBNEW (5.1.5)-3) date 2020-05-23 22:10:47*
%MOMM*%
%LPD*%
G04 APERTURE LIST*
%ADD10C,0.010000*%
%ADD11C,0.100000*%
G04 APERTURE END LIST*
D10*
G36*
X140575734Y-108333994D02*
G01*
X140581917Y-108497655D01*
X140945395Y-108699119D01*
X141308874Y-108900584D01*
X140940103Y-108906364D01*
X140571333Y-108912144D01*
X140571333Y-109207500D01*
X141864281Y-109207500D01*
X141851917Y-108880178D01*
X141124959Y-108477250D01*
X141493730Y-108471470D01*
X141862500Y-108465690D01*
X141862500Y-108170334D01*
X140569552Y-108170334D01*
X140575734Y-108333994D01*
G37*
X140575734Y-108333994D02*
X140581917Y-108497655D01*
X140945395Y-108699119D01*
X141308874Y-108900584D01*
X140940103Y-108906364D01*
X140571333Y-108912144D01*
X140571333Y-109207500D01*
X141864281Y-109207500D01*
X141851917Y-108880178D01*
X141124959Y-108477250D01*
X141493730Y-108471470D01*
X141862500Y-108465690D01*
X141862500Y-108170334D01*
X140569552Y-108170334D01*
X140575734Y-108333994D01*
G36*
X140867667Y-108001000D02*
G01*
X140867667Y-107471834D01*
X141058167Y-107471834D01*
X141058167Y-107895167D01*
X141354500Y-107895167D01*
X141354500Y-107471834D01*
X141566167Y-107471834D01*
X141566167Y-108001000D01*
X141862500Y-108001000D01*
X141862500Y-107175500D01*
X140571333Y-107175500D01*
X140571333Y-108001000D01*
X140867667Y-108001000D01*
G37*
X140867667Y-108001000D02*
X140867667Y-107471834D01*
X141058167Y-107471834D01*
X141058167Y-107895167D01*
X141354500Y-107895167D01*
X141354500Y-107471834D01*
X141566167Y-107471834D01*
X141566167Y-108001000D01*
X141862500Y-108001000D01*
X141862500Y-107175500D01*
X140571333Y-107175500D01*
X140571333Y-108001000D01*
X140867667Y-108001000D01*
G36*
X140867667Y-107069667D02*
G01*
X140867667Y-106815667D01*
X141862500Y-106815667D01*
X141862500Y-106519334D01*
X140867667Y-106519334D01*
X140867667Y-106265334D01*
X140571333Y-106265334D01*
X140571333Y-107069667D01*
X140867667Y-107069667D01*
G37*
X140867667Y-107069667D02*
X140867667Y-106815667D01*
X141862500Y-106815667D01*
X141862500Y-106519334D01*
X140867667Y-106519334D01*
X140867667Y-106265334D01*
X140571333Y-106265334D01*
X140571333Y-107069667D01*
X140867667Y-107069667D01*
G36*
X140867667Y-106201834D02*
G01*
X140867667Y-105947834D01*
X141862500Y-105947834D01*
X141862500Y-105651500D01*
X140867667Y-105651500D01*
X140867667Y-105397500D01*
X140571333Y-105397500D01*
X140571333Y-106201834D01*
X140867667Y-106201834D01*
G37*
X140867667Y-106201834D02*
X140867667Y-105947834D01*
X141862500Y-105947834D01*
X141862500Y-105651500D01*
X140867667Y-105651500D01*
X140867667Y-105397500D01*
X140571333Y-105397500D01*
X140571333Y-106201834D01*
X140867667Y-106201834D01*
G36*
X141862500Y-105270500D02*
G01*
X141862500Y-104974167D01*
X140571333Y-104974167D01*
X140571333Y-105270500D01*
X141862500Y-105270500D01*
G37*
X141862500Y-105270500D02*
X141862500Y-104974167D01*
X140571333Y-104974167D01*
X140571333Y-105270500D01*
X141862500Y-105270500D01*
G36*
X140571451Y-104196292D02*
G01*
X140575555Y-104335424D01*
X140589114Y-104441894D01*
X140614284Y-104524741D01*
X140653220Y-104593003D01*
X140671700Y-104616554D01*
X140749466Y-104684062D01*
X140842321Y-104727001D01*
X140938196Y-104742012D01*
X141025020Y-104725736D01*
X141039416Y-104718874D01*
X141072378Y-104709700D01*
X141108236Y-104723739D01*
X141152626Y-104758966D01*
X141261933Y-104829827D01*
X141379255Y-104862522D01*
X141497649Y-104858489D01*
X141610170Y-104819165D01*
X141709875Y-104745986D01*
X141789820Y-104640391D01*
X141797843Y-104625439D01*
X141821379Y-104575298D01*
X141837459Y-104525983D01*
X141847831Y-104467068D01*
X141854239Y-104388124D01*
X141858429Y-104278725D01*
X141858934Y-104260508D01*
X141865952Y-104000500D01*
X141571672Y-104000500D01*
X141571672Y-104296834D01*
X141560839Y-104392942D01*
X141545992Y-104461500D01*
X141521818Y-104517723D01*
X141512473Y-104530526D01*
X141457559Y-104568390D01*
X141402135Y-104568435D01*
X141352440Y-104534632D01*
X141314715Y-104470955D01*
X141296327Y-104392942D01*
X141285494Y-104296834D01*
X141571672Y-104296834D01*
X141571672Y-104000500D01*
X140931167Y-104000500D01*
X140931167Y-104296834D01*
X140976720Y-104302696D01*
X140993311Y-104326900D01*
X140994667Y-104347158D01*
X140982024Y-104397774D01*
X140962917Y-104423834D01*
X140923587Y-104435981D01*
X140888947Y-104414357D01*
X140869186Y-104367161D01*
X140867667Y-104347158D01*
X140875063Y-104311056D01*
X140905605Y-104297907D01*
X140931167Y-104296834D01*
X140931167Y-104000500D01*
X140571333Y-104000500D01*
X140571451Y-104196292D01*
G37*
X140571451Y-104196292D02*
X140575555Y-104335424D01*
X140589114Y-104441894D01*
X140614284Y-104524741D01*
X140653220Y-104593003D01*
X140671700Y-104616554D01*
X140749466Y-104684062D01*
X140842321Y-104727001D01*
X140938196Y-104742012D01*
X141025020Y-104725736D01*
X141039416Y-104718874D01*
X141072378Y-104709700D01*
X141108236Y-104723739D01*
X141152626Y-104758966D01*
X141261933Y-104829827D01*
X141379255Y-104862522D01*
X141497649Y-104858489D01*
X141610170Y-104819165D01*
X141709875Y-104745986D01*
X141789820Y-104640391D01*
X141797843Y-104625439D01*
X141821379Y-104575298D01*
X141837459Y-104525983D01*
X141847831Y-104467068D01*
X141854239Y-104388124D01*
X141858429Y-104278725D01*
X141858934Y-104260508D01*
X141865952Y-104000500D01*
X141571672Y-104000500D01*
X141571672Y-104296834D01*
X141560839Y-104392942D01*
X141545992Y-104461500D01*
X141521818Y-104517723D01*
X141512473Y-104530526D01*
X141457559Y-104568390D01*
X141402135Y-104568435D01*
X141352440Y-104534632D01*
X141314715Y-104470955D01*
X141296327Y-104392942D01*
X141285494Y-104296834D01*
X141571672Y-104296834D01*
X141571672Y-104000500D01*
X140931167Y-104000500D01*
X140931167Y-104296834D01*
X140976720Y-104302696D01*
X140993311Y-104326900D01*
X140994667Y-104347158D01*
X140982024Y-104397774D01*
X140962917Y-104423834D01*
X140923587Y-104435981D01*
X140888947Y-104414357D01*
X140869186Y-104367161D01*
X140867667Y-104347158D01*
X140875063Y-104311056D01*
X140905605Y-104297907D01*
X140931167Y-104296834D01*
X140931167Y-104000500D01*
X140571333Y-104000500D01*
X140571451Y-104196292D01*
G36*
X140730083Y-103250464D02*
G01*
X140792916Y-103270111D01*
X140888150Y-103300334D01*
X141007932Y-103338619D01*
X141144403Y-103382450D01*
X141289709Y-103429314D01*
X141371228Y-103455691D01*
X141864207Y-103615402D01*
X141858062Y-103454138D01*
X141851917Y-103292875D01*
X141714333Y-103253543D01*
X141714333Y-102844838D01*
X141788417Y-102818049D01*
X141862500Y-102791260D01*
X141862500Y-102477602D01*
X141418000Y-102629255D01*
X141418000Y-102942531D01*
X141418000Y-103049608D01*
X141416656Y-103112208D01*
X141409460Y-103141655D01*
X141391666Y-103147116D01*
X141370375Y-103141580D01*
X141301702Y-103118838D01*
X141232528Y-103094411D01*
X141173141Y-103072149D01*
X141133831Y-103055901D01*
X141124438Y-103049547D01*
X141149538Y-103041822D01*
X141202935Y-103022968D01*
X141273380Y-102996963D01*
X141277896Y-102995265D01*
X141418000Y-102942531D01*
X141418000Y-102629255D01*
X141222208Y-102696055D01*
X140581917Y-102914508D01*
X140581917Y-103204948D01*
X140730083Y-103250464D01*
G37*
X140730083Y-103250464D02*
X140792916Y-103270111D01*
X140888150Y-103300334D01*
X141007932Y-103338619D01*
X141144403Y-103382450D01*
X141289709Y-103429314D01*
X141371228Y-103455691D01*
X141864207Y-103615402D01*
X141858062Y-103454138D01*
X141851917Y-103292875D01*
X141714333Y-103253543D01*
X141714333Y-102844838D01*
X141788417Y-102818049D01*
X141862500Y-102791260D01*
X141862500Y-102477602D01*
X141418000Y-102629255D01*
X141418000Y-102942531D01*
X141418000Y-103049608D01*
X141416656Y-103112208D01*
X141409460Y-103141655D01*
X141391666Y-103147116D01*
X141370375Y-103141580D01*
X141301702Y-103118838D01*
X141232528Y-103094411D01*
X141173141Y-103072149D01*
X141133831Y-103055901D01*
X141124438Y-103049547D01*
X141149538Y-103041822D01*
X141202935Y-103022968D01*
X141273380Y-102996963D01*
X141277896Y-102995265D01*
X141418000Y-102942531D01*
X141418000Y-102629255D01*
X141222208Y-102696055D01*
X140581917Y-102914508D01*
X140581917Y-103204948D01*
X140730083Y-103250464D01*
G36*
X140867667Y-102391834D02*
G01*
X140867667Y-101862667D01*
X141058167Y-101862667D01*
X141058167Y-102286000D01*
X141354500Y-102286000D01*
X141354500Y-101862667D01*
X141566167Y-101862667D01*
X141566167Y-102391834D01*
X141862500Y-102391834D01*
X141862500Y-101566334D01*
X140571333Y-101566334D01*
X140571333Y-102391834D01*
X140867667Y-102391834D01*
G37*
X140867667Y-102391834D02*
X140867667Y-101862667D01*
X141058167Y-101862667D01*
X141058167Y-102286000D01*
X141354500Y-102286000D01*
X141354500Y-101862667D01*
X141566167Y-101862667D01*
X141566167Y-102391834D01*
X141862500Y-102391834D01*
X141862500Y-101566334D01*
X140571333Y-101566334D01*
X140571333Y-102391834D01*
X140867667Y-102391834D01*
G36*
X141566167Y-100994834D02*
G01*
X141566167Y-101460500D01*
X141862500Y-101460500D01*
X141862500Y-100698500D01*
X140571333Y-100698500D01*
X140571333Y-100994834D01*
X141566167Y-100994834D01*
G37*
X141566167Y-100994834D02*
X141566167Y-101460500D01*
X141862500Y-101460500D01*
X141862500Y-100698500D01*
X140571333Y-100698500D01*
X140571333Y-100994834D01*
X141566167Y-100994834D01*
G36*
X140867667Y-100571500D02*
G01*
X140867667Y-100084667D01*
X141058167Y-100084667D01*
X141058167Y-100465667D01*
X141354500Y-100465667D01*
X141354500Y-100084667D01*
X141862500Y-100084667D01*
X141862500Y-99788334D01*
X140571333Y-99788334D01*
X140571333Y-100571500D01*
X140867667Y-100571500D01*
G37*
X140867667Y-100571500D02*
X140867667Y-100084667D01*
X141058167Y-100084667D01*
X141058167Y-100465667D01*
X141354500Y-100465667D01*
X141354500Y-100084667D01*
X141862500Y-100084667D01*
X141862500Y-99788334D01*
X140571333Y-99788334D01*
X140571333Y-100571500D01*
X140867667Y-100571500D01*
G36*
X141442423Y-98624167D02*
G01*
X141504295Y-98686039D01*
X141554422Y-98756547D01*
X141566167Y-98814667D01*
X141547277Y-98887641D01*
X141504295Y-98943295D01*
X141442423Y-99005167D01*
X140571333Y-99005167D01*
X140571333Y-99301500D01*
X141021125Y-99301293D01*
X141171343Y-99300999D01*
X141285875Y-99299874D01*
X141371367Y-99297318D01*
X141434466Y-99292732D01*
X141481818Y-99285516D01*
X141520070Y-99275071D01*
X141555869Y-99260797D01*
X141576750Y-99251178D01*
X141678645Y-99192333D01*
X141752157Y-99120393D01*
X141810717Y-99021683D01*
X141818388Y-99005167D01*
X141856607Y-98872585D01*
X141852759Y-98737703D01*
X141812178Y-98613584D01*
X141753333Y-98511689D01*
X141681392Y-98438177D01*
X141582683Y-98379617D01*
X141566167Y-98371945D01*
X141530670Y-98357417D01*
X141492710Y-98346526D01*
X141445744Y-98338751D01*
X141383227Y-98333566D01*
X141298618Y-98330448D01*
X141185372Y-98328873D01*
X141036947Y-98328317D01*
X141021125Y-98328298D01*
X140571333Y-98327834D01*
X140571333Y-98624167D01*
X141442423Y-98624167D01*
G37*
X141442423Y-98624167D02*
X141504295Y-98686039D01*
X141554422Y-98756547D01*
X141566167Y-98814667D01*
X141547277Y-98887641D01*
X141504295Y-98943295D01*
X141442423Y-99005167D01*
X140571333Y-99005167D01*
X140571333Y-99301500D01*
X141021125Y-99301293D01*
X141171343Y-99300999D01*
X141285875Y-99299874D01*
X141371367Y-99297318D01*
X141434466Y-99292732D01*
X141481818Y-99285516D01*
X141520070Y-99275071D01*
X141555869Y-99260797D01*
X141576750Y-99251178D01*
X141678645Y-99192333D01*
X141752157Y-99120393D01*
X141810717Y-99021683D01*
X141818388Y-99005167D01*
X141856607Y-98872585D01*
X141852759Y-98737703D01*
X141812178Y-98613584D01*
X141753333Y-98511689D01*
X141681392Y-98438177D01*
X141582683Y-98379617D01*
X141566167Y-98371945D01*
X141530670Y-98357417D01*
X141492710Y-98346526D01*
X141445744Y-98338751D01*
X141383227Y-98333566D01*
X141298618Y-98330448D01*
X141185372Y-98328873D01*
X141036947Y-98328317D01*
X141021125Y-98328298D01*
X140571333Y-98327834D01*
X140571333Y-98624167D01*
X141442423Y-98624167D01*
G36*
X140588270Y-97722544D02*
G01*
X140622724Y-97847956D01*
X140633201Y-97871118D01*
X140723962Y-98009049D01*
X140845398Y-98121960D01*
X140943382Y-98181299D01*
X141063478Y-98220958D01*
X141201632Y-98235958D01*
X141341524Y-98226297D01*
X141466837Y-98191973D01*
X141490292Y-98181376D01*
X141617972Y-98097472D01*
X141727825Y-97984595D01*
X141800686Y-97869266D01*
X141835555Y-97764806D01*
X141853728Y-97640596D01*
X141853877Y-97515332D01*
X141834668Y-97407710D01*
X141833759Y-97404889D01*
X141766414Y-97259137D01*
X141672873Y-97141584D01*
X141558850Y-97052616D01*
X141430061Y-96992618D01*
X141292222Y-96961973D01*
X141216917Y-96961491D01*
X141216917Y-97249030D01*
X141324995Y-97268805D01*
X141421835Y-97322813D01*
X141499462Y-97403081D01*
X141549902Y-97501636D01*
X141565470Y-97597584D01*
X141552839Y-97678869D01*
X141520715Y-97761131D01*
X141517762Y-97766485D01*
X141447954Y-97851527D01*
X141353916Y-97913459D01*
X141249180Y-97944203D01*
X141216917Y-97946137D01*
X141108838Y-97926362D01*
X141011998Y-97872354D01*
X140934371Y-97792086D01*
X140883931Y-97693531D01*
X140868363Y-97597584D01*
X140888138Y-97489505D01*
X140942146Y-97392665D01*
X141022414Y-97315038D01*
X141120969Y-97264598D01*
X141216917Y-97249030D01*
X141216917Y-96961491D01*
X141151049Y-96961068D01*
X141012258Y-96990287D01*
X140881564Y-97050014D01*
X140764683Y-97140636D01*
X140667332Y-97262535D01*
X140633201Y-97324049D01*
X140593508Y-97444271D01*
X140578531Y-97582543D01*
X140588270Y-97722544D01*
G37*
X140588270Y-97722544D02*
X140622724Y-97847956D01*
X140633201Y-97871118D01*
X140723962Y-98009049D01*
X140845398Y-98121960D01*
X140943382Y-98181299D01*
X141063478Y-98220958D01*
X141201632Y-98235958D01*
X141341524Y-98226297D01*
X141466837Y-98191973D01*
X141490292Y-98181376D01*
X141617972Y-98097472D01*
X141727825Y-97984595D01*
X141800686Y-97869266D01*
X141835555Y-97764806D01*
X141853728Y-97640596D01*
X141853877Y-97515332D01*
X141834668Y-97407710D01*
X141833759Y-97404889D01*
X141766414Y-97259137D01*
X141672873Y-97141584D01*
X141558850Y-97052616D01*
X141430061Y-96992618D01*
X141292222Y-96961973D01*
X141216917Y-96961491D01*
X141216917Y-97249030D01*
X141324995Y-97268805D01*
X141421835Y-97322813D01*
X141499462Y-97403081D01*
X141549902Y-97501636D01*
X141565470Y-97597584D01*
X141552839Y-97678869D01*
X141520715Y-97761131D01*
X141517762Y-97766485D01*
X141447954Y-97851527D01*
X141353916Y-97913459D01*
X141249180Y-97944203D01*
X141216917Y-97946137D01*
X141108838Y-97926362D01*
X141011998Y-97872354D01*
X140934371Y-97792086D01*
X140883931Y-97693531D01*
X140868363Y-97597584D01*
X140888138Y-97489505D01*
X140942146Y-97392665D01*
X141022414Y-97315038D01*
X141120969Y-97264598D01*
X141216917Y-97249030D01*
X141216917Y-96961491D01*
X141151049Y-96961068D01*
X141012258Y-96990287D01*
X140881564Y-97050014D01*
X140764683Y-97140636D01*
X140667332Y-97262535D01*
X140633201Y-97324049D01*
X140593508Y-97444271D01*
X140578531Y-97582543D01*
X140588270Y-97722544D01*
G36*
X140570273Y-95836991D02*
G01*
X140571571Y-95888899D01*
X140571809Y-96052417D01*
X140836154Y-96177192D01*
X140931938Y-96223283D01*
X141012227Y-96263594D01*
X141070086Y-96294513D01*
X141098581Y-96312430D01*
X141100368Y-96314776D01*
X141081799Y-96326894D01*
X141031006Y-96351149D01*
X140955209Y-96384301D01*
X140861625Y-96423110D01*
X140836046Y-96433417D01*
X140571856Y-96539250D01*
X140571595Y-96704541D01*
X140573465Y-96780413D01*
X140578666Y-96835049D01*
X140586181Y-96859164D01*
X140588480Y-96859235D01*
X140610177Y-96849701D01*
X140665379Y-96826439D01*
X140748424Y-96791786D01*
X140853650Y-96748078D01*
X140975395Y-96697652D01*
X141107997Y-96642847D01*
X141245795Y-96585998D01*
X141383126Y-96529444D01*
X141514330Y-96475520D01*
X141633743Y-96426565D01*
X141735705Y-96384916D01*
X141814553Y-96352909D01*
X141836042Y-96344256D01*
X141851985Y-96316945D01*
X141860654Y-96249970D01*
X141862500Y-96175726D01*
X141861485Y-96095218D01*
X141857100Y-96049088D01*
X141847330Y-96029400D01*
X141830161Y-96028219D01*
X141825416Y-96029584D01*
X141788290Y-96043342D01*
X141725312Y-96068529D01*
X141649545Y-96099911D01*
X141643058Y-96102644D01*
X141497785Y-96163933D01*
X141082184Y-95963244D01*
X140927624Y-95888185D01*
X140807428Y-95829832D01*
X140717334Y-95787563D01*
X140653081Y-95760759D01*
X140610407Y-95748800D01*
X140585051Y-95751063D01*
X140572751Y-95766930D01*
X140569245Y-95795780D01*
X140570273Y-95836991D01*
G37*
X140570273Y-95836991D02*
X140571571Y-95888899D01*
X140571809Y-96052417D01*
X140836154Y-96177192D01*
X140931938Y-96223283D01*
X141012227Y-96263594D01*
X141070086Y-96294513D01*
X141098581Y-96312430D01*
X141100368Y-96314776D01*
X141081799Y-96326894D01*
X141031006Y-96351149D01*
X140955209Y-96384301D01*
X140861625Y-96423110D01*
X140836046Y-96433417D01*
X140571856Y-96539250D01*
X140571595Y-96704541D01*
X140573465Y-96780413D01*
X140578666Y-96835049D01*
X140586181Y-96859164D01*
X140588480Y-96859235D01*
X140610177Y-96849701D01*
X140665379Y-96826439D01*
X140748424Y-96791786D01*
X140853650Y-96748078D01*
X140975395Y-96697652D01*
X141107997Y-96642847D01*
X141245795Y-96585998D01*
X141383126Y-96529444D01*
X141514330Y-96475520D01*
X141633743Y-96426565D01*
X141735705Y-96384916D01*
X141814553Y-96352909D01*
X141836042Y-96344256D01*
X141851985Y-96316945D01*
X141860654Y-96249970D01*
X141862500Y-96175726D01*
X141861485Y-96095218D01*
X141857100Y-96049088D01*
X141847330Y-96029400D01*
X141830161Y-96028219D01*
X141825416Y-96029584D01*
X141788290Y-96043342D01*
X141725312Y-96068529D01*
X141649545Y-96099911D01*
X141643058Y-96102644D01*
X141497785Y-96163933D01*
X141082184Y-95963244D01*
X140927624Y-95888185D01*
X140807428Y-95829832D01*
X140717334Y-95787563D01*
X140653081Y-95760759D01*
X140610407Y-95748800D01*
X140585051Y-95751063D01*
X140572751Y-95766930D01*
X140569245Y-95795780D01*
X140570273Y-95836991D01*
G36*
X141566167Y-94920000D02*
G01*
X141566167Y-95385667D01*
X141862500Y-95385667D01*
X141862500Y-94623667D01*
X140571333Y-94623667D01*
X140571333Y-94920000D01*
X141566167Y-94920000D01*
G37*
X141566167Y-94920000D02*
X141566167Y-95385667D01*
X141862500Y-95385667D01*
X141862500Y-94623667D01*
X140571333Y-94623667D01*
X140571333Y-94920000D01*
X141566167Y-94920000D01*
G36*
X141566167Y-94009834D02*
G01*
X141566167Y-94475500D01*
X141862500Y-94475500D01*
X141862500Y-93713500D01*
X140571333Y-93713500D01*
X140571333Y-94009834D01*
X141566167Y-94009834D01*
G37*
X141566167Y-94009834D02*
X141566167Y-94475500D01*
X141862500Y-94475500D01*
X141862500Y-93713500D01*
X140571333Y-93713500D01*
X140571333Y-94009834D01*
X141566167Y-94009834D01*
G36*
X140730083Y-93259798D02*
G01*
X140792916Y-93279444D01*
X140888150Y-93309667D01*
X141007932Y-93347952D01*
X141144403Y-93391783D01*
X141289709Y-93438647D01*
X141371228Y-93465024D01*
X141864207Y-93624735D01*
X141858062Y-93463472D01*
X141851917Y-93302208D01*
X141714333Y-93262876D01*
X141714333Y-92854171D01*
X141788417Y-92827382D01*
X141862500Y-92800593D01*
X141862500Y-92486936D01*
X141418000Y-92638588D01*
X141418000Y-92951864D01*
X141418000Y-93058942D01*
X141416656Y-93121541D01*
X141409460Y-93150988D01*
X141391666Y-93156449D01*
X141370375Y-93150913D01*
X141301702Y-93128171D01*
X141232528Y-93103744D01*
X141173141Y-93081482D01*
X141133831Y-93065235D01*
X141124438Y-93058880D01*
X141149538Y-93051155D01*
X141202935Y-93032301D01*
X141273380Y-93006297D01*
X141277896Y-93004599D01*
X141418000Y-92951864D01*
X141418000Y-92638588D01*
X141222208Y-92705388D01*
X140581917Y-92923841D01*
X140581917Y-93214282D01*
X140730083Y-93259798D01*
G37*
X140730083Y-93259798D02*
X140792916Y-93279444D01*
X140888150Y-93309667D01*
X141007932Y-93347952D01*
X141144403Y-93391783D01*
X141289709Y-93438647D01*
X141371228Y-93465024D01*
X141864207Y-93624735D01*
X141858062Y-93463472D01*
X141851917Y-93302208D01*
X141714333Y-93262876D01*
X141714333Y-92854171D01*
X141788417Y-92827382D01*
X141862500Y-92800593D01*
X141862500Y-92486936D01*
X141418000Y-92638588D01*
X141418000Y-92951864D01*
X141418000Y-93058942D01*
X141416656Y-93121541D01*
X141409460Y-93150988D01*
X141391666Y-93156449D01*
X141370375Y-93150913D01*
X141301702Y-93128171D01*
X141232528Y-93103744D01*
X141173141Y-93081482D01*
X141133831Y-93065235D01*
X141124438Y-93058880D01*
X141149538Y-93051155D01*
X141202935Y-93032301D01*
X141273380Y-93006297D01*
X141277896Y-93004599D01*
X141418000Y-92951864D01*
X141418000Y-92638588D01*
X141222208Y-92705388D01*
X140581917Y-92923841D01*
X140581917Y-93214282D01*
X140730083Y-93259798D01*
G36*
X140588270Y-91668878D02*
G01*
X140622724Y-91794289D01*
X140633201Y-91817452D01*
X140723962Y-91955382D01*
X140845398Y-92068293D01*
X140943382Y-92127632D01*
X141063478Y-92167291D01*
X141201632Y-92182291D01*
X141341524Y-92172630D01*
X141466837Y-92138306D01*
X141490292Y-92127709D01*
X141617972Y-92043806D01*
X141727825Y-91930929D01*
X141800686Y-91815599D01*
X141835555Y-91711139D01*
X141853728Y-91586929D01*
X141853877Y-91461665D01*
X141834668Y-91354043D01*
X141833759Y-91351222D01*
X141766414Y-91205470D01*
X141672873Y-91087918D01*
X141558850Y-90998950D01*
X141430061Y-90938951D01*
X141292222Y-90908307D01*
X141216917Y-90907824D01*
X141216917Y-91195363D01*
X141324995Y-91215138D01*
X141421835Y-91269146D01*
X141499462Y-91349414D01*
X141549902Y-91447969D01*
X141565470Y-91543917D01*
X141552839Y-91625203D01*
X141520715Y-91707464D01*
X141517762Y-91712819D01*
X141447954Y-91797860D01*
X141353916Y-91859792D01*
X141249180Y-91890536D01*
X141216917Y-91892470D01*
X141108838Y-91872696D01*
X141011998Y-91818688D01*
X140934371Y-91738419D01*
X140883931Y-91639865D01*
X140868363Y-91543917D01*
X140888138Y-91435838D01*
X140942146Y-91338999D01*
X141022414Y-91261372D01*
X141120969Y-91210931D01*
X141216917Y-91195363D01*
X141216917Y-90907824D01*
X141151049Y-90907401D01*
X141012258Y-90936620D01*
X140881564Y-90996348D01*
X140764683Y-91086969D01*
X140667332Y-91208869D01*
X140633201Y-91270382D01*
X140593508Y-91390604D01*
X140578531Y-91528876D01*
X140588270Y-91668878D01*
G37*
X140588270Y-91668878D02*
X140622724Y-91794289D01*
X140633201Y-91817452D01*
X140723962Y-91955382D01*
X140845398Y-92068293D01*
X140943382Y-92127632D01*
X141063478Y-92167291D01*
X141201632Y-92182291D01*
X141341524Y-92172630D01*
X141466837Y-92138306D01*
X141490292Y-92127709D01*
X141617972Y-92043806D01*
X141727825Y-91930929D01*
X141800686Y-91815599D01*
X141835555Y-91711139D01*
X141853728Y-91586929D01*
X141853877Y-91461665D01*
X141834668Y-91354043D01*
X141833759Y-91351222D01*
X141766414Y-91205470D01*
X141672873Y-91087918D01*
X141558850Y-90998950D01*
X141430061Y-90938951D01*
X141292222Y-90908307D01*
X141216917Y-90907824D01*
X141216917Y-91195363D01*
X141324995Y-91215138D01*
X141421835Y-91269146D01*
X141499462Y-91349414D01*
X141549902Y-91447969D01*
X141565470Y-91543917D01*
X141552839Y-91625203D01*
X141520715Y-91707464D01*
X141517762Y-91712819D01*
X141447954Y-91797860D01*
X141353916Y-91859792D01*
X141249180Y-91890536D01*
X141216917Y-91892470D01*
X141108838Y-91872696D01*
X141011998Y-91818688D01*
X140934371Y-91738419D01*
X140883931Y-91639865D01*
X140868363Y-91543917D01*
X140888138Y-91435838D01*
X140942146Y-91338999D01*
X141022414Y-91261372D01*
X141120969Y-91210931D01*
X141216917Y-91195363D01*
X141216917Y-90907824D01*
X141151049Y-90907401D01*
X141012258Y-90936620D01*
X140881564Y-90996348D01*
X140764683Y-91086969D01*
X140667332Y-91208869D01*
X140633201Y-91270382D01*
X140593508Y-91390604D01*
X140578531Y-91528876D01*
X140588270Y-91668878D01*
G36*
X140867667Y-90856000D02*
G01*
X140867667Y-90602000D01*
X141862500Y-90602000D01*
X141862500Y-90305667D01*
X140867667Y-90305667D01*
X140867667Y-90051667D01*
X140571333Y-90051667D01*
X140571333Y-90856000D01*
X140867667Y-90856000D01*
G37*
X140867667Y-90856000D02*
X140867667Y-90602000D01*
X141862500Y-90602000D01*
X141862500Y-90305667D01*
X140867667Y-90305667D01*
X140867667Y-90051667D01*
X140571333Y-90051667D01*
X140571333Y-90856000D01*
X140867667Y-90856000D01*
G36*
X142899667Y-112530667D02*
G01*
X142899667Y-112001500D01*
X143090167Y-112001500D01*
X143090167Y-112424834D01*
X143386500Y-112424834D01*
X143386500Y-112001500D01*
X143598167Y-112001500D01*
X143598167Y-112530667D01*
X143894500Y-112530667D01*
X143894500Y-111705167D01*
X142603333Y-111705167D01*
X142603333Y-112530667D01*
X142899667Y-112530667D01*
G37*
X142899667Y-112530667D02*
X142899667Y-112001500D01*
X143090167Y-112001500D01*
X143090167Y-112424834D01*
X143386500Y-112424834D01*
X143386500Y-112001500D01*
X143598167Y-112001500D01*
X143598167Y-112530667D01*
X143894500Y-112530667D01*
X143894500Y-111705167D01*
X142603333Y-111705167D01*
X142603333Y-112530667D01*
X142899667Y-112530667D01*
G36*
X142692393Y-111565531D02*
G01*
X142741351Y-111570108D01*
X142824477Y-111576176D01*
X142933657Y-111583216D01*
X143060772Y-111590707D01*
X143197708Y-111598131D01*
X143217167Y-111599134D01*
X143357478Y-111606612D01*
X143491606Y-111614303D01*
X143610738Y-111621660D01*
X143706064Y-111628138D01*
X143768771Y-111633189D01*
X143772792Y-111633583D01*
X143894500Y-111645823D01*
X143894500Y-111350872D01*
X143815125Y-111337753D01*
X143752485Y-111330972D01*
X143666855Y-111326150D01*
X143583541Y-111324400D01*
X143507540Y-111322087D01*
X143449681Y-111316212D01*
X143421520Y-111307999D01*
X143420825Y-111307167D01*
X143435530Y-111294471D01*
X143483300Y-111272289D01*
X143556775Y-111243691D01*
X143648593Y-111211750D01*
X143653302Y-111210196D01*
X143896285Y-111130225D01*
X143890101Y-110980789D01*
X143883917Y-110831354D01*
X143632120Y-110742357D01*
X143529518Y-110705636D01*
X143462535Y-110679963D01*
X143426690Y-110662816D01*
X143417503Y-110651669D01*
X143430494Y-110644000D01*
X143449558Y-110639514D01*
X143513289Y-110631126D01*
X143593557Y-110626074D01*
X143627271Y-110625434D01*
X143709777Y-110622565D01*
X143789759Y-110615619D01*
X143815125Y-110612081D01*
X143894500Y-110598961D01*
X143894500Y-110453564D01*
X143893795Y-110381315D01*
X143891944Y-110329308D01*
X143889338Y-110308343D01*
X143889208Y-110308303D01*
X143867583Y-110309704D01*
X143808978Y-110313601D01*
X143718654Y-110319642D01*
X143601868Y-110327474D01*
X143463880Y-110336745D01*
X143309947Y-110347103D01*
X143259500Y-110350500D01*
X143101039Y-110361144D01*
X142956315Y-110370806D01*
X142830706Y-110379134D01*
X142729587Y-110385771D01*
X142658337Y-110390365D01*
X142622333Y-110392559D01*
X142619208Y-110392697D01*
X142611510Y-110412175D01*
X142605882Y-110463441D01*
X142603411Y-110535964D01*
X142603378Y-110546292D01*
X142603423Y-110699750D01*
X142995647Y-110834884D01*
X143115161Y-110876876D01*
X143218720Y-110914827D01*
X143300503Y-110946475D01*
X143354688Y-110969554D01*
X143375454Y-110981799D01*
X143375308Y-110982580D01*
X143352219Y-110993173D01*
X143295555Y-111015076D01*
X143211800Y-111045905D01*
X143107433Y-111083273D01*
X142988939Y-111124795D01*
X142988331Y-111125006D01*
X142613917Y-111254870D01*
X142607726Y-111404503D01*
X142601536Y-111554137D01*
X142692393Y-111565531D01*
G37*
X142692393Y-111565531D02*
X142741351Y-111570108D01*
X142824477Y-111576176D01*
X142933657Y-111583216D01*
X143060772Y-111590707D01*
X143197708Y-111598131D01*
X143217167Y-111599134D01*
X143357478Y-111606612D01*
X143491606Y-111614303D01*
X143610738Y-111621660D01*
X143706064Y-111628138D01*
X143768771Y-111633189D01*
X143772792Y-111633583D01*
X143894500Y-111645823D01*
X143894500Y-111350872D01*
X143815125Y-111337753D01*
X143752485Y-111330972D01*
X143666855Y-111326150D01*
X143583541Y-111324400D01*
X143507540Y-111322087D01*
X143449681Y-111316212D01*
X143421520Y-111307999D01*
X143420825Y-111307167D01*
X143435530Y-111294471D01*
X143483300Y-111272289D01*
X143556775Y-111243691D01*
X143648593Y-111211750D01*
X143653302Y-111210196D01*
X143896285Y-111130225D01*
X143890101Y-110980789D01*
X143883917Y-110831354D01*
X143632120Y-110742357D01*
X143529518Y-110705636D01*
X143462535Y-110679963D01*
X143426690Y-110662816D01*
X143417503Y-110651669D01*
X143430494Y-110644000D01*
X143449558Y-110639514D01*
X143513289Y-110631126D01*
X143593557Y-110626074D01*
X143627271Y-110625434D01*
X143709777Y-110622565D01*
X143789759Y-110615619D01*
X143815125Y-110612081D01*
X143894500Y-110598961D01*
X143894500Y-110453564D01*
X143893795Y-110381315D01*
X143891944Y-110329308D01*
X143889338Y-110308343D01*
X143889208Y-110308303D01*
X143867583Y-110309704D01*
X143808978Y-110313601D01*
X143718654Y-110319642D01*
X143601868Y-110327474D01*
X143463880Y-110336745D01*
X143309947Y-110347103D01*
X143259500Y-110350500D01*
X143101039Y-110361144D01*
X142956315Y-110370806D01*
X142830706Y-110379134D01*
X142729587Y-110385771D01*
X142658337Y-110390365D01*
X142622333Y-110392559D01*
X142619208Y-110392697D01*
X142611510Y-110412175D01*
X142605882Y-110463441D01*
X142603411Y-110535964D01*
X142603378Y-110546292D01*
X142603423Y-110699750D01*
X142995647Y-110834884D01*
X143115161Y-110876876D01*
X143218720Y-110914827D01*
X143300503Y-110946475D01*
X143354688Y-110969554D01*
X143375454Y-110981799D01*
X143375308Y-110982580D01*
X143352219Y-110993173D01*
X143295555Y-111015076D01*
X143211800Y-111045905D01*
X143107433Y-111083273D01*
X142988939Y-111124795D01*
X142988331Y-111125006D01*
X142613917Y-111254870D01*
X142607726Y-111404503D01*
X142601536Y-111554137D01*
X142692393Y-111565531D01*
G36*
X142899667Y-109969500D02*
G01*
X142899667Y-109715500D01*
X143894500Y-109715500D01*
X143894500Y-109419167D01*
X142899667Y-109419167D01*
X142899667Y-109165167D01*
X142603333Y-109165167D01*
X142603333Y-109969500D01*
X142899667Y-109969500D01*
G37*
X142899667Y-109969500D02*
X142899667Y-109715500D01*
X143894500Y-109715500D01*
X143894500Y-109419167D01*
X142899667Y-109419167D01*
X142899667Y-109165167D01*
X142603333Y-109165167D01*
X142603333Y-109969500D01*
X142899667Y-109969500D01*
G36*
X142607327Y-108376709D02*
G01*
X142616840Y-108514430D01*
X142635909Y-108620544D01*
X142668285Y-108705378D01*
X142717720Y-108779259D01*
X142776103Y-108841302D01*
X142887616Y-108922259D01*
X143009740Y-108965677D01*
X143135584Y-108971199D01*
X143258258Y-108938465D01*
X143365134Y-108871987D01*
X143438297Y-108810908D01*
X143629357Y-108927777D01*
X143712705Y-108979603D01*
X143785429Y-109026361D01*
X143837982Y-109061828D01*
X143857458Y-109076437D01*
X143875283Y-109088988D01*
X143886238Y-109084718D01*
X143891984Y-109056907D01*
X143894181Y-108998834D01*
X143894500Y-108926534D01*
X143894500Y-108744841D01*
X143730458Y-108644125D01*
X143657477Y-108599256D01*
X143599479Y-108563484D01*
X143564955Y-108542052D01*
X143559192Y-108538383D01*
X143558949Y-108517083D01*
X143565910Y-108489429D01*
X143577479Y-108466726D01*
X143600694Y-108453496D01*
X143645233Y-108447257D01*
X143720772Y-108445525D01*
X143737176Y-108445500D01*
X143894500Y-108445500D01*
X143894500Y-108149167D01*
X143079583Y-108149167D01*
X143079583Y-108445500D01*
X143176484Y-108447793D01*
X143235355Y-108457548D01*
X143260382Y-108479075D01*
X143255752Y-108516686D01*
X143225650Y-108574694D01*
X143217744Y-108587807D01*
X143160654Y-108648974D01*
X143092875Y-108673864D01*
X143024058Y-108663325D01*
X142963855Y-108618204D01*
X142930317Y-108562549D01*
X142910146Y-108508843D01*
X142899965Y-108471101D01*
X142899667Y-108467347D01*
X142919799Y-108456270D01*
X142976256Y-108448771D01*
X143063123Y-108445566D01*
X143079583Y-108445500D01*
X143079583Y-108149167D01*
X142598650Y-108149167D01*
X142607327Y-108376709D01*
G37*
X142607327Y-108376709D02*
X142616840Y-108514430D01*
X142635909Y-108620544D01*
X142668285Y-108705378D01*
X142717720Y-108779259D01*
X142776103Y-108841302D01*
X142887616Y-108922259D01*
X143009740Y-108965677D01*
X143135584Y-108971199D01*
X143258258Y-108938465D01*
X143365134Y-108871987D01*
X143438297Y-108810908D01*
X143629357Y-108927777D01*
X143712705Y-108979603D01*
X143785429Y-109026361D01*
X143837982Y-109061828D01*
X143857458Y-109076437D01*
X143875283Y-109088988D01*
X143886238Y-109084718D01*
X143891984Y-109056907D01*
X143894181Y-108998834D01*
X143894500Y-108926534D01*
X143894500Y-108744841D01*
X143730458Y-108644125D01*
X143657477Y-108599256D01*
X143599479Y-108563484D01*
X143564955Y-108542052D01*
X143559192Y-108538383D01*
X143558949Y-108517083D01*
X143565910Y-108489429D01*
X143577479Y-108466726D01*
X143600694Y-108453496D01*
X143645233Y-108447257D01*
X143720772Y-108445525D01*
X143737176Y-108445500D01*
X143894500Y-108445500D01*
X143894500Y-108149167D01*
X143079583Y-108149167D01*
X143079583Y-108445500D01*
X143176484Y-108447793D01*
X143235355Y-108457548D01*
X143260382Y-108479075D01*
X143255752Y-108516686D01*
X143225650Y-108574694D01*
X143217744Y-108587807D01*
X143160654Y-108648974D01*
X143092875Y-108673864D01*
X143024058Y-108663325D01*
X142963855Y-108618204D01*
X142930317Y-108562549D01*
X142910146Y-108508843D01*
X142899965Y-108471101D01*
X142899667Y-108467347D01*
X142919799Y-108456270D01*
X142976256Y-108448771D01*
X143063123Y-108445566D01*
X143079583Y-108445500D01*
X143079583Y-108149167D01*
X142598650Y-108149167D01*
X142607327Y-108376709D01*
G36*
X142620270Y-107522711D02*
G01*
X142654724Y-107648122D01*
X142665201Y-107671285D01*
X142755962Y-107809216D01*
X142877398Y-107922126D01*
X142975382Y-107981465D01*
X143095478Y-108021124D01*
X143233632Y-108036124D01*
X143373524Y-108026464D01*
X143498837Y-107992139D01*
X143522292Y-107981542D01*
X143649972Y-107897639D01*
X143759825Y-107784762D01*
X143832686Y-107669433D01*
X143867555Y-107564972D01*
X143885728Y-107440762D01*
X143885877Y-107315498D01*
X143866668Y-107207876D01*
X143865759Y-107205055D01*
X143798414Y-107059303D01*
X143704873Y-106941751D01*
X143590850Y-106852783D01*
X143462061Y-106792784D01*
X143324222Y-106762140D01*
X143248917Y-106761658D01*
X143248917Y-107049197D01*
X143356995Y-107068971D01*
X143453835Y-107122979D01*
X143531462Y-107203248D01*
X143581902Y-107301802D01*
X143597470Y-107397750D01*
X143584839Y-107479036D01*
X143552715Y-107561298D01*
X143549762Y-107566652D01*
X143479954Y-107651694D01*
X143385916Y-107713626D01*
X143281180Y-107744369D01*
X143248917Y-107746304D01*
X143140838Y-107726529D01*
X143043998Y-107672521D01*
X142966371Y-107592253D01*
X142915931Y-107493698D01*
X142900363Y-107397750D01*
X142920138Y-107289672D01*
X142974146Y-107192832D01*
X143054414Y-107115205D01*
X143152969Y-107064764D01*
X143248917Y-107049197D01*
X143248917Y-106761658D01*
X143183049Y-106761235D01*
X143044258Y-106790453D01*
X142913564Y-106850181D01*
X142796683Y-106940802D01*
X142699332Y-107062702D01*
X142665201Y-107124215D01*
X142625508Y-107244438D01*
X142610531Y-107382710D01*
X142620270Y-107522711D01*
G37*
X142620270Y-107522711D02*
X142654724Y-107648122D01*
X142665201Y-107671285D01*
X142755962Y-107809216D01*
X142877398Y-107922126D01*
X142975382Y-107981465D01*
X143095478Y-108021124D01*
X143233632Y-108036124D01*
X143373524Y-108026464D01*
X143498837Y-107992139D01*
X143522292Y-107981542D01*
X143649972Y-107897639D01*
X143759825Y-107784762D01*
X143832686Y-107669433D01*
X143867555Y-107564972D01*
X143885728Y-107440762D01*
X143885877Y-107315498D01*
X143866668Y-107207876D01*
X143865759Y-107205055D01*
X143798414Y-107059303D01*
X143704873Y-106941751D01*
X143590850Y-106852783D01*
X143462061Y-106792784D01*
X143324222Y-106762140D01*
X143248917Y-106761658D01*
X143248917Y-107049197D01*
X143356995Y-107068971D01*
X143453835Y-107122979D01*
X143531462Y-107203248D01*
X143581902Y-107301802D01*
X143597470Y-107397750D01*
X143584839Y-107479036D01*
X143552715Y-107561298D01*
X143549762Y-107566652D01*
X143479954Y-107651694D01*
X143385916Y-107713626D01*
X143281180Y-107744369D01*
X143248917Y-107746304D01*
X143140838Y-107726529D01*
X143043998Y-107672521D01*
X142966371Y-107592253D01*
X142915931Y-107493698D01*
X142900363Y-107397750D01*
X142920138Y-107289672D01*
X142974146Y-107192832D01*
X143054414Y-107115205D01*
X143152969Y-107064764D01*
X143248917Y-107049197D01*
X143248917Y-106761658D01*
X143183049Y-106761235D01*
X143044258Y-106790453D01*
X142913564Y-106850181D01*
X142796683Y-106940802D01*
X142699332Y-107062702D01*
X142665201Y-107124215D01*
X142625508Y-107244438D01*
X142610531Y-107382710D01*
X142620270Y-107522711D01*
G36*
X142606962Y-106058959D02*
G01*
X142615430Y-106191300D01*
X142632961Y-106292501D01*
X142663419Y-106373438D01*
X142710671Y-106444984D01*
X142765611Y-106505222D01*
X142881970Y-106594997D01*
X143009248Y-106647868D01*
X143141231Y-106665646D01*
X143271708Y-106650139D01*
X143394463Y-106603156D01*
X143503286Y-106526507D01*
X143591962Y-106422000D01*
X143654278Y-106291445D01*
X143668123Y-106242433D01*
X143692851Y-106138334D01*
X143894500Y-106138334D01*
X143894500Y-105842000D01*
X143143083Y-105842000D01*
X143143083Y-106138334D01*
X143258723Y-106140220D01*
X143338804Y-106145721D01*
X143380690Y-106154594D01*
X143386500Y-106160551D01*
X143377447Y-106193482D01*
X143355547Y-106242612D01*
X143354392Y-106244860D01*
X143298916Y-106311068D01*
X143219622Y-106356513D01*
X143143083Y-106371167D01*
X143065336Y-106354657D01*
X142991816Y-106311593D01*
X142933734Y-106251676D01*
X142902300Y-106184606D01*
X142899667Y-106160551D01*
X142920340Y-106149996D01*
X142980602Y-106142687D01*
X143077813Y-106138864D01*
X143143083Y-106138334D01*
X143143083Y-105842000D01*
X142599480Y-105842000D01*
X142606962Y-106058959D01*
G37*
X142606962Y-106058959D02*
X142615430Y-106191300D01*
X142632961Y-106292501D01*
X142663419Y-106373438D01*
X142710671Y-106444984D01*
X142765611Y-106505222D01*
X142881970Y-106594997D01*
X143009248Y-106647868D01*
X143141231Y-106665646D01*
X143271708Y-106650139D01*
X143394463Y-106603156D01*
X143503286Y-106526507D01*
X143591962Y-106422000D01*
X143654278Y-106291445D01*
X143668123Y-106242433D01*
X143692851Y-106138334D01*
X143894500Y-106138334D01*
X143894500Y-105842000D01*
X143143083Y-105842000D01*
X143143083Y-106138334D01*
X143258723Y-106140220D01*
X143338804Y-106145721D01*
X143380690Y-106154594D01*
X143386500Y-106160551D01*
X143377447Y-106193482D01*
X143355547Y-106242612D01*
X143354392Y-106244860D01*
X143298916Y-106311068D01*
X143219622Y-106356513D01*
X143143083Y-106371167D01*
X143065336Y-106354657D01*
X142991816Y-106311593D01*
X142933734Y-106251676D01*
X142902300Y-106184606D01*
X142899667Y-106160551D01*
X142920340Y-106149996D01*
X142980602Y-106142687D01*
X143077813Y-106138864D01*
X143143083Y-106138334D01*
X143143083Y-105842000D01*
X142599480Y-105842000D01*
X142606962Y-106058959D01*
G36*
X142606962Y-105042959D02*
G01*
X142615430Y-105175300D01*
X142632961Y-105276501D01*
X142663419Y-105357438D01*
X142710671Y-105428984D01*
X142765611Y-105489222D01*
X142881970Y-105578997D01*
X143009248Y-105631868D01*
X143141231Y-105649646D01*
X143271708Y-105634139D01*
X143394463Y-105587156D01*
X143503286Y-105510507D01*
X143591962Y-105406000D01*
X143654278Y-105275445D01*
X143668123Y-105226433D01*
X143692851Y-105122334D01*
X143894500Y-105122334D01*
X143894500Y-104826000D01*
X143143083Y-104826000D01*
X143143083Y-105122334D01*
X143258723Y-105124220D01*
X143338804Y-105129721D01*
X143380690Y-105138594D01*
X143386500Y-105144551D01*
X143377447Y-105177482D01*
X143355547Y-105226612D01*
X143354392Y-105228860D01*
X143298916Y-105295068D01*
X143219622Y-105340513D01*
X143143083Y-105355167D01*
X143065336Y-105338657D01*
X142991816Y-105295593D01*
X142933734Y-105235676D01*
X142902300Y-105168606D01*
X142899667Y-105144551D01*
X142920340Y-105133996D01*
X142980602Y-105126687D01*
X143077813Y-105122864D01*
X143143083Y-105122334D01*
X143143083Y-104826000D01*
X142599480Y-104826000D01*
X142606962Y-105042959D01*
G37*
X142606962Y-105042959D02*
X142615430Y-105175300D01*
X142632961Y-105276501D01*
X142663419Y-105357438D01*
X142710671Y-105428984D01*
X142765611Y-105489222D01*
X142881970Y-105578997D01*
X143009248Y-105631868D01*
X143141231Y-105649646D01*
X143271708Y-105634139D01*
X143394463Y-105587156D01*
X143503286Y-105510507D01*
X143591962Y-105406000D01*
X143654278Y-105275445D01*
X143668123Y-105226433D01*
X143692851Y-105122334D01*
X143894500Y-105122334D01*
X143894500Y-104826000D01*
X143143083Y-104826000D01*
X143143083Y-105122334D01*
X143258723Y-105124220D01*
X143338804Y-105129721D01*
X143380690Y-105138594D01*
X143386500Y-105144551D01*
X143377447Y-105177482D01*
X143355547Y-105226612D01*
X143354392Y-105228860D01*
X143298916Y-105295068D01*
X143219622Y-105340513D01*
X143143083Y-105355167D01*
X143065336Y-105338657D01*
X142991816Y-105295593D01*
X142933734Y-105235676D01*
X142902300Y-105168606D01*
X142899667Y-105144551D01*
X142920340Y-105133996D01*
X142980602Y-105126687D01*
X143077813Y-105122864D01*
X143143083Y-105122334D01*
X143143083Y-104826000D01*
X142599480Y-104826000D01*
X142606962Y-105042959D01*
G36*
X143474423Y-103958167D02*
G01*
X143536295Y-104020039D01*
X143586422Y-104090547D01*
X143598167Y-104148667D01*
X143579277Y-104221641D01*
X143536295Y-104277295D01*
X143474423Y-104339167D01*
X142603333Y-104339167D01*
X142603333Y-104635500D01*
X143053125Y-104635293D01*
X143203343Y-104634999D01*
X143317875Y-104633874D01*
X143403367Y-104631318D01*
X143466466Y-104626732D01*
X143513818Y-104619516D01*
X143552070Y-104609071D01*
X143587869Y-104594797D01*
X143608750Y-104585178D01*
X143710645Y-104526333D01*
X143784157Y-104454393D01*
X143842717Y-104355683D01*
X143850388Y-104339167D01*
X143888607Y-104206585D01*
X143884759Y-104071703D01*
X143844178Y-103947584D01*
X143785333Y-103845689D01*
X143713392Y-103772177D01*
X143614683Y-103713617D01*
X143598167Y-103705945D01*
X143562670Y-103691417D01*
X143524710Y-103680526D01*
X143477744Y-103672751D01*
X143415227Y-103667566D01*
X143330618Y-103664448D01*
X143217372Y-103662873D01*
X143068947Y-103662317D01*
X143053125Y-103662298D01*
X142603333Y-103661834D01*
X142603333Y-103958167D01*
X143474423Y-103958167D01*
G37*
X143474423Y-103958167D02*
X143536295Y-104020039D01*
X143586422Y-104090547D01*
X143598167Y-104148667D01*
X143579277Y-104221641D01*
X143536295Y-104277295D01*
X143474423Y-104339167D01*
X142603333Y-104339167D01*
X142603333Y-104635500D01*
X143053125Y-104635293D01*
X143203343Y-104634999D01*
X143317875Y-104633874D01*
X143403367Y-104631318D01*
X143466466Y-104626732D01*
X143513818Y-104619516D01*
X143552070Y-104609071D01*
X143587869Y-104594797D01*
X143608750Y-104585178D01*
X143710645Y-104526333D01*
X143784157Y-104454393D01*
X143842717Y-104355683D01*
X143850388Y-104339167D01*
X143888607Y-104206585D01*
X143884759Y-104071703D01*
X143844178Y-103947584D01*
X143785333Y-103845689D01*
X143713392Y-103772177D01*
X143614683Y-103713617D01*
X143598167Y-103705945D01*
X143562670Y-103691417D01*
X143524710Y-103680526D01*
X143477744Y-103672751D01*
X143415227Y-103667566D01*
X143330618Y-103664448D01*
X143217372Y-103662873D01*
X143068947Y-103662317D01*
X143053125Y-103662298D01*
X142603333Y-103661834D01*
X142603333Y-103958167D01*
X143474423Y-103958167D01*
G36*
X142899667Y-102286000D02*
G01*
X142899667Y-102032000D01*
X143894500Y-102032000D01*
X143894500Y-101735667D01*
X142899667Y-101735667D01*
X142899667Y-101481667D01*
X142603333Y-101481667D01*
X142603333Y-102286000D01*
X142899667Y-102286000D01*
G37*
X142899667Y-102286000D02*
X142899667Y-102032000D01*
X143894500Y-102032000D01*
X143894500Y-101735667D01*
X142899667Y-101735667D01*
X142899667Y-101481667D01*
X142603333Y-101481667D01*
X142603333Y-102286000D01*
X142899667Y-102286000D01*
G36*
X142762083Y-101091464D02*
G01*
X142824916Y-101111111D01*
X142920150Y-101141334D01*
X143039932Y-101179619D01*
X143176403Y-101223450D01*
X143321709Y-101270314D01*
X143403228Y-101296691D01*
X143896207Y-101456402D01*
X143890062Y-101295138D01*
X143883917Y-101133875D01*
X143746333Y-101094543D01*
X143746333Y-100685838D01*
X143820417Y-100659049D01*
X143894500Y-100632260D01*
X143894500Y-100318602D01*
X143450000Y-100470255D01*
X143450000Y-100783531D01*
X143450000Y-100890608D01*
X143448656Y-100953208D01*
X143441460Y-100982655D01*
X143423666Y-100988116D01*
X143402375Y-100982580D01*
X143333702Y-100959838D01*
X143264528Y-100935411D01*
X143205141Y-100913149D01*
X143165831Y-100896901D01*
X143156438Y-100890547D01*
X143181538Y-100882822D01*
X143234935Y-100863968D01*
X143305380Y-100837963D01*
X143309896Y-100836265D01*
X143450000Y-100783531D01*
X143450000Y-100470255D01*
X143254208Y-100537055D01*
X142613917Y-100755508D01*
X142613917Y-101045948D01*
X142762083Y-101091464D01*
G37*
X142762083Y-101091464D02*
X142824916Y-101111111D01*
X142920150Y-101141334D01*
X143039932Y-101179619D01*
X143176403Y-101223450D01*
X143321709Y-101270314D01*
X143403228Y-101296691D01*
X143896207Y-101456402D01*
X143890062Y-101295138D01*
X143883917Y-101133875D01*
X143746333Y-101094543D01*
X143746333Y-100685838D01*
X143820417Y-100659049D01*
X143894500Y-100632260D01*
X143894500Y-100318602D01*
X143450000Y-100470255D01*
X143450000Y-100783531D01*
X143450000Y-100890608D01*
X143448656Y-100953208D01*
X143441460Y-100982655D01*
X143423666Y-100988116D01*
X143402375Y-100982580D01*
X143333702Y-100959838D01*
X143264528Y-100935411D01*
X143205141Y-100913149D01*
X143165831Y-100896901D01*
X143156438Y-100890547D01*
X143181538Y-100882822D01*
X143234935Y-100863968D01*
X143305380Y-100837963D01*
X143309896Y-100836265D01*
X143450000Y-100783531D01*
X143450000Y-100470255D01*
X143254208Y-100537055D01*
X142613917Y-100755508D01*
X142613917Y-101045948D01*
X142762083Y-101091464D01*
G36*
X143111333Y-99597834D02*
G01*
X143111333Y-99957667D01*
X142603333Y-99957667D01*
X142603333Y-100254000D01*
X143894500Y-100254000D01*
X143894500Y-99957667D01*
X143407667Y-99957667D01*
X143407667Y-99597834D01*
X143894500Y-99597834D01*
X143894500Y-99301500D01*
X142603333Y-99301500D01*
X142603333Y-99597834D01*
X143111333Y-99597834D01*
G37*
X143111333Y-99597834D02*
X143111333Y-99957667D01*
X142603333Y-99957667D01*
X142603333Y-100254000D01*
X143894500Y-100254000D01*
X143894500Y-99957667D01*
X143407667Y-99957667D01*
X143407667Y-99597834D01*
X143894500Y-99597834D01*
X143894500Y-99301500D01*
X142603333Y-99301500D01*
X142603333Y-99597834D01*
X143111333Y-99597834D01*
G36*
X142899667Y-99195667D02*
G01*
X142899667Y-98941667D01*
X143894500Y-98941667D01*
X143894500Y-98645334D01*
X142899667Y-98645334D01*
X142899667Y-98391334D01*
X142603333Y-98391334D01*
X142603333Y-99195667D01*
X142899667Y-99195667D01*
G37*
X142899667Y-99195667D02*
X142899667Y-98941667D01*
X143894500Y-98941667D01*
X143894500Y-98645334D01*
X142899667Y-98645334D01*
X142899667Y-98391334D01*
X142603333Y-98391334D01*
X142603333Y-99195667D01*
X142899667Y-99195667D01*
G36*
X142899667Y-97079000D02*
G01*
X142899667Y-96825000D01*
X143894500Y-96825000D01*
X143894500Y-96528667D01*
X142899667Y-96528667D01*
X142899667Y-96274667D01*
X142603333Y-96274667D01*
X142603333Y-97079000D01*
X142899667Y-97079000D01*
G37*
X142899667Y-97079000D02*
X142899667Y-96825000D01*
X143894500Y-96825000D01*
X143894500Y-96528667D01*
X142899667Y-96528667D01*
X142899667Y-96274667D01*
X142603333Y-96274667D01*
X142603333Y-97079000D01*
X142899667Y-97079000D01*
G36*
X142607734Y-95274161D02*
G01*
X142613917Y-95437822D01*
X142977395Y-95639286D01*
X143340874Y-95840750D01*
X142972103Y-95846530D01*
X142603333Y-95852310D01*
X142603333Y-96147667D01*
X143896281Y-96147667D01*
X143883917Y-95820345D01*
X143156959Y-95417417D01*
X143525730Y-95411637D01*
X143894500Y-95405857D01*
X143894500Y-95110500D01*
X142601552Y-95110500D01*
X142607734Y-95274161D01*
G37*
X142607734Y-95274161D02*
X142613917Y-95437822D01*
X142977395Y-95639286D01*
X143340874Y-95840750D01*
X142972103Y-95846530D01*
X142603333Y-95852310D01*
X142603333Y-96147667D01*
X143896281Y-96147667D01*
X143883917Y-95820345D01*
X143156959Y-95417417D01*
X143525730Y-95411637D01*
X143894500Y-95405857D01*
X143894500Y-95110500D01*
X142601552Y-95110500D01*
X142607734Y-95274161D01*
G36*
X143894500Y-94941167D02*
G01*
X143894500Y-94644834D01*
X142603333Y-94644834D01*
X142603333Y-94941167D01*
X143894500Y-94941167D01*
G37*
X143894500Y-94941167D02*
X143894500Y-94644834D01*
X142603333Y-94644834D01*
X142603333Y-94941167D01*
X143894500Y-94941167D01*
G36*
X142692393Y-94484031D02*
G01*
X142741351Y-94488608D01*
X142824477Y-94494676D01*
X142933657Y-94501716D01*
X143060772Y-94509207D01*
X143197708Y-94516631D01*
X143217167Y-94517634D01*
X143357478Y-94525112D01*
X143491606Y-94532803D01*
X143610738Y-94540160D01*
X143706064Y-94546638D01*
X143768771Y-94551689D01*
X143772792Y-94552083D01*
X143894500Y-94564323D01*
X143894500Y-94269372D01*
X143815125Y-94256253D01*
X143752485Y-94249472D01*
X143666855Y-94244650D01*
X143583541Y-94242900D01*
X143507540Y-94240587D01*
X143449681Y-94234712D01*
X143421520Y-94226499D01*
X143420825Y-94225667D01*
X143435530Y-94212971D01*
X143483300Y-94190789D01*
X143556775Y-94162191D01*
X143648593Y-94130250D01*
X143653302Y-94128696D01*
X143896285Y-94048725D01*
X143890101Y-93899289D01*
X143883917Y-93749854D01*
X143632120Y-93660857D01*
X143529518Y-93624136D01*
X143462535Y-93598463D01*
X143426690Y-93581316D01*
X143417503Y-93570169D01*
X143430494Y-93562500D01*
X143449558Y-93558014D01*
X143513289Y-93549626D01*
X143593557Y-93544574D01*
X143627271Y-93543934D01*
X143709777Y-93541065D01*
X143789759Y-93534119D01*
X143815125Y-93530581D01*
X143894500Y-93517461D01*
X143894500Y-93372064D01*
X143893795Y-93299815D01*
X143891944Y-93247808D01*
X143889338Y-93226843D01*
X143889208Y-93226803D01*
X143867583Y-93228204D01*
X143808978Y-93232101D01*
X143718654Y-93238142D01*
X143601868Y-93245974D01*
X143463880Y-93255245D01*
X143309947Y-93265603D01*
X143259500Y-93269000D01*
X143101039Y-93279644D01*
X142956315Y-93289306D01*
X142830706Y-93297634D01*
X142729587Y-93304271D01*
X142658337Y-93308865D01*
X142622333Y-93311059D01*
X142619208Y-93311197D01*
X142611510Y-93330675D01*
X142605882Y-93381941D01*
X142603411Y-93454464D01*
X142603378Y-93464792D01*
X142603423Y-93618250D01*
X142995647Y-93753384D01*
X143115161Y-93795376D01*
X143218720Y-93833327D01*
X143300503Y-93864975D01*
X143354688Y-93888054D01*
X143375454Y-93900299D01*
X143375308Y-93901080D01*
X143352219Y-93911673D01*
X143295555Y-93933576D01*
X143211800Y-93964405D01*
X143107433Y-94001773D01*
X142988939Y-94043295D01*
X142988331Y-94043506D01*
X142613917Y-94173370D01*
X142607726Y-94323003D01*
X142601536Y-94472637D01*
X142692393Y-94484031D01*
G37*
X142692393Y-94484031D02*
X142741351Y-94488608D01*
X142824477Y-94494676D01*
X142933657Y-94501716D01*
X143060772Y-94509207D01*
X143197708Y-94516631D01*
X143217167Y-94517634D01*
X143357478Y-94525112D01*
X143491606Y-94532803D01*
X143610738Y-94540160D01*
X143706064Y-94546638D01*
X143768771Y-94551689D01*
X143772792Y-94552083D01*
X143894500Y-94564323D01*
X143894500Y-94269372D01*
X143815125Y-94256253D01*
X143752485Y-94249472D01*
X143666855Y-94244650D01*
X143583541Y-94242900D01*
X143507540Y-94240587D01*
X143449681Y-94234712D01*
X143421520Y-94226499D01*
X143420825Y-94225667D01*
X143435530Y-94212971D01*
X143483300Y-94190789D01*
X143556775Y-94162191D01*
X143648593Y-94130250D01*
X143653302Y-94128696D01*
X143896285Y-94048725D01*
X143890101Y-93899289D01*
X143883917Y-93749854D01*
X143632120Y-93660857D01*
X143529518Y-93624136D01*
X143462535Y-93598463D01*
X143426690Y-93581316D01*
X143417503Y-93570169D01*
X143430494Y-93562500D01*
X143449558Y-93558014D01*
X143513289Y-93549626D01*
X143593557Y-93544574D01*
X143627271Y-93543934D01*
X143709777Y-93541065D01*
X143789759Y-93534119D01*
X143815125Y-93530581D01*
X143894500Y-93517461D01*
X143894500Y-93372064D01*
X143893795Y-93299815D01*
X143891944Y-93247808D01*
X143889338Y-93226843D01*
X143889208Y-93226803D01*
X143867583Y-93228204D01*
X143808978Y-93232101D01*
X143718654Y-93238142D01*
X143601868Y-93245974D01*
X143463880Y-93255245D01*
X143309947Y-93265603D01*
X143259500Y-93269000D01*
X143101039Y-93279644D01*
X142956315Y-93289306D01*
X142830706Y-93297634D01*
X142729587Y-93304271D01*
X142658337Y-93308865D01*
X142622333Y-93311059D01*
X142619208Y-93311197D01*
X142611510Y-93330675D01*
X142605882Y-93381941D01*
X142603411Y-93454464D01*
X142603378Y-93464792D01*
X142603423Y-93618250D01*
X142995647Y-93753384D01*
X143115161Y-93795376D01*
X143218720Y-93833327D01*
X143300503Y-93864975D01*
X143354688Y-93888054D01*
X143375454Y-93900299D01*
X143375308Y-93901080D01*
X143352219Y-93911673D01*
X143295555Y-93933576D01*
X143211800Y-93964405D01*
X143107433Y-94001773D01*
X142988939Y-94043295D01*
X142988331Y-94043506D01*
X142613917Y-94173370D01*
X142607726Y-94323003D01*
X142601536Y-94472637D01*
X142692393Y-94484031D01*
G36*
X142607327Y-92459375D02*
G01*
X142616840Y-92597096D01*
X142635909Y-92703211D01*
X142668285Y-92788045D01*
X142717720Y-92861926D01*
X142776103Y-92923969D01*
X142887616Y-93004925D01*
X143009740Y-93048344D01*
X143135584Y-93053866D01*
X143258258Y-93021132D01*
X143365134Y-92954654D01*
X143438297Y-92893575D01*
X143629357Y-93010443D01*
X143712705Y-93062269D01*
X143785429Y-93109027D01*
X143837982Y-93144495D01*
X143857458Y-93159103D01*
X143875283Y-93171655D01*
X143886238Y-93167385D01*
X143891984Y-93139574D01*
X143894181Y-93081501D01*
X143894500Y-93009201D01*
X143894500Y-92827508D01*
X143730458Y-92726791D01*
X143657477Y-92681922D01*
X143599479Y-92646151D01*
X143564955Y-92624719D01*
X143559192Y-92621049D01*
X143558949Y-92599749D01*
X143565910Y-92572095D01*
X143577479Y-92549393D01*
X143600694Y-92536163D01*
X143645233Y-92529923D01*
X143720772Y-92528191D01*
X143737176Y-92528167D01*
X143894500Y-92528167D01*
X143894500Y-92231834D01*
X143079583Y-92231834D01*
X143079583Y-92528167D01*
X143176484Y-92530460D01*
X143235355Y-92540214D01*
X143260382Y-92561741D01*
X143255752Y-92599353D01*
X143225650Y-92657361D01*
X143217744Y-92670474D01*
X143160654Y-92731641D01*
X143092875Y-92756531D01*
X143024058Y-92745991D01*
X142963855Y-92700871D01*
X142930317Y-92645216D01*
X142910146Y-92591510D01*
X142899965Y-92553768D01*
X142899667Y-92550013D01*
X142919799Y-92538937D01*
X142976256Y-92531438D01*
X143063123Y-92528233D01*
X143079583Y-92528167D01*
X143079583Y-92231834D01*
X142598650Y-92231834D01*
X142607327Y-92459375D01*
G37*
X142607327Y-92459375D02*
X142616840Y-92597096D01*
X142635909Y-92703211D01*
X142668285Y-92788045D01*
X142717720Y-92861926D01*
X142776103Y-92923969D01*
X142887616Y-93004925D01*
X143009740Y-93048344D01*
X143135584Y-93053866D01*
X143258258Y-93021132D01*
X143365134Y-92954654D01*
X143438297Y-92893575D01*
X143629357Y-93010443D01*
X143712705Y-93062269D01*
X143785429Y-93109027D01*
X143837982Y-93144495D01*
X143857458Y-93159103D01*
X143875283Y-93171655D01*
X143886238Y-93167385D01*
X143891984Y-93139574D01*
X143894181Y-93081501D01*
X143894500Y-93009201D01*
X143894500Y-92827508D01*
X143730458Y-92726791D01*
X143657477Y-92681922D01*
X143599479Y-92646151D01*
X143564955Y-92624719D01*
X143559192Y-92621049D01*
X143558949Y-92599749D01*
X143565910Y-92572095D01*
X143577479Y-92549393D01*
X143600694Y-92536163D01*
X143645233Y-92529923D01*
X143720772Y-92528191D01*
X143737176Y-92528167D01*
X143894500Y-92528167D01*
X143894500Y-92231834D01*
X143079583Y-92231834D01*
X143079583Y-92528167D01*
X143176484Y-92530460D01*
X143235355Y-92540214D01*
X143260382Y-92561741D01*
X143255752Y-92599353D01*
X143225650Y-92657361D01*
X143217744Y-92670474D01*
X143160654Y-92731641D01*
X143092875Y-92756531D01*
X143024058Y-92745991D01*
X142963855Y-92700871D01*
X142930317Y-92645216D01*
X142910146Y-92591510D01*
X142899965Y-92553768D01*
X142899667Y-92550013D01*
X142919799Y-92538937D01*
X142976256Y-92531438D01*
X143063123Y-92528233D01*
X143079583Y-92528167D01*
X143079583Y-92231834D01*
X142598650Y-92231834D01*
X142607327Y-92459375D01*
G36*
X142762083Y-91778131D02*
G01*
X142824916Y-91797778D01*
X142920150Y-91828001D01*
X143039932Y-91866285D01*
X143176403Y-91910117D01*
X143321709Y-91956980D01*
X143403228Y-91983358D01*
X143896207Y-92143068D01*
X143883917Y-91820542D01*
X143746333Y-91781210D01*
X143746333Y-91372504D01*
X143820417Y-91345716D01*
X143894500Y-91318927D01*
X143894500Y-91005269D01*
X143450000Y-91156922D01*
X143450000Y-91470197D01*
X143450000Y-91577275D01*
X143448656Y-91639874D01*
X143441460Y-91669321D01*
X143423666Y-91674782D01*
X143402375Y-91669246D01*
X143333702Y-91646505D01*
X143264528Y-91622078D01*
X143205141Y-91599815D01*
X143165831Y-91583568D01*
X143156438Y-91577213D01*
X143181538Y-91569489D01*
X143234935Y-91550635D01*
X143305380Y-91524630D01*
X143309896Y-91522932D01*
X143450000Y-91470197D01*
X143450000Y-91156922D01*
X143254208Y-91223722D01*
X142613917Y-91442174D01*
X142613917Y-91732615D01*
X142762083Y-91778131D01*
G37*
X142762083Y-91778131D02*
X142824916Y-91797778D01*
X142920150Y-91828001D01*
X143039932Y-91866285D01*
X143176403Y-91910117D01*
X143321709Y-91956980D01*
X143403228Y-91983358D01*
X143896207Y-92143068D01*
X143883917Y-91820542D01*
X143746333Y-91781210D01*
X143746333Y-91372504D01*
X143820417Y-91345716D01*
X143894500Y-91318927D01*
X143894500Y-91005269D01*
X143450000Y-91156922D01*
X143450000Y-91470197D01*
X143450000Y-91577275D01*
X143448656Y-91639874D01*
X143441460Y-91669321D01*
X143423666Y-91674782D01*
X143402375Y-91669246D01*
X143333702Y-91646505D01*
X143264528Y-91622078D01*
X143205141Y-91599815D01*
X143165831Y-91583568D01*
X143156438Y-91577213D01*
X143181538Y-91569489D01*
X143234935Y-91550635D01*
X143305380Y-91524630D01*
X143309896Y-91522932D01*
X143450000Y-91470197D01*
X143450000Y-91156922D01*
X143254208Y-91223722D01*
X142613917Y-91442174D01*
X142613917Y-91732615D01*
X142762083Y-91778131D01*
G36*
X142605350Y-91000130D02*
G01*
X142612043Y-91047633D01*
X142624375Y-91063679D01*
X142629792Y-91063003D01*
X142655782Y-91054143D01*
X142716760Y-91033436D01*
X142807617Y-91002616D01*
X142923243Y-90963415D01*
X143058530Y-90917565D01*
X143208369Y-90866799D01*
X143275375Y-90844101D01*
X143894500Y-90634391D01*
X143894500Y-90492837D01*
X143893706Y-90417359D01*
X143888259Y-90373317D01*
X143873565Y-90349814D01*
X143845027Y-90335953D01*
X143825708Y-90329728D01*
X143787810Y-90317677D01*
X143715594Y-90294553D01*
X143615029Y-90262274D01*
X143492089Y-90222757D01*
X143352744Y-90177923D01*
X143202966Y-90129688D01*
X143194633Y-90127003D01*
X143047951Y-90079902D01*
X142914502Y-90037360D01*
X142799567Y-90001034D01*
X142708422Y-89972582D01*
X142646346Y-89953661D01*
X142618619Y-89945931D01*
X142617841Y-89945834D01*
X142610829Y-89965241D01*
X142605746Y-90016451D01*
X142603573Y-90088943D01*
X142603555Y-90099292D01*
X142603777Y-90252750D01*
X142984333Y-90369167D01*
X143103549Y-90406201D01*
X143207504Y-90439574D01*
X143289926Y-90467183D01*
X143344544Y-90486925D01*
X143365086Y-90496698D01*
X143365111Y-90496827D01*
X143346076Y-90506637D01*
X143292954Y-90527241D01*
X143211941Y-90556412D01*
X143109231Y-90591922D01*
X142991019Y-90631543D01*
X142984333Y-90633750D01*
X142603333Y-90759430D01*
X142603333Y-90915813D01*
X142605350Y-91000130D01*
G37*
X142605350Y-91000130D02*
X142612043Y-91047633D01*
X142624375Y-91063679D01*
X142629792Y-91063003D01*
X142655782Y-91054143D01*
X142716760Y-91033436D01*
X142807617Y-91002616D01*
X142923243Y-90963415D01*
X143058530Y-90917565D01*
X143208369Y-90866799D01*
X143275375Y-90844101D01*
X143894500Y-90634391D01*
X143894500Y-90492837D01*
X143893706Y-90417359D01*
X143888259Y-90373317D01*
X143873565Y-90349814D01*
X143845027Y-90335953D01*
X143825708Y-90329728D01*
X143787810Y-90317677D01*
X143715594Y-90294553D01*
X143615029Y-90262274D01*
X143492089Y-90222757D01*
X143352744Y-90177923D01*
X143202966Y-90129688D01*
X143194633Y-90127003D01*
X143047951Y-90079902D01*
X142914502Y-90037360D01*
X142799567Y-90001034D01*
X142708422Y-89972582D01*
X142646346Y-89953661D01*
X142618619Y-89945931D01*
X142617841Y-89945834D01*
X142610829Y-89965241D01*
X142605746Y-90016451D01*
X142603573Y-90088943D01*
X142603555Y-90099292D01*
X142603777Y-90252750D01*
X142984333Y-90369167D01*
X143103549Y-90406201D01*
X143207504Y-90439574D01*
X143289926Y-90467183D01*
X143344544Y-90486925D01*
X143365086Y-90496698D01*
X143365111Y-90496827D01*
X143346076Y-90506637D01*
X143292954Y-90527241D01*
X143211941Y-90556412D01*
X143109231Y-90591922D01*
X142991019Y-90631543D01*
X142984333Y-90633750D01*
X142603333Y-90759430D01*
X142603333Y-90915813D01*
X142605350Y-91000130D01*
G36*
X142589036Y-103188597D02*
G01*
X142611310Y-103265638D01*
X142666179Y-103352509D01*
X142744805Y-103425178D01*
X142835050Y-103474788D01*
X142922211Y-103492500D01*
X142943773Y-103488140D01*
X142956128Y-103469064D01*
X142961763Y-103426276D01*
X142963163Y-103350783D01*
X142963167Y-103344334D01*
X142961252Y-103263598D01*
X142954431Y-103217413D01*
X142941081Y-103198122D01*
X142931820Y-103196167D01*
X142904413Y-103177911D01*
X142885530Y-103134594D01*
X142880831Y-103083390D01*
X142886320Y-103058151D01*
X142916505Y-103016778D01*
X142956480Y-103010931D01*
X142999828Y-103037025D01*
X143040129Y-103091480D01*
X143067817Y-103159466D01*
X143127395Y-103306228D01*
X143209044Y-103417336D01*
X143266631Y-103465692D01*
X143321357Y-103498806D01*
X143375018Y-103516601D01*
X143444692Y-103523473D01*
X143493825Y-103524191D01*
X143577355Y-103521642D01*
X143636077Y-103510754D01*
X143687362Y-103486794D01*
X143726669Y-103460750D01*
X143822108Y-103369289D01*
X143884148Y-103257632D01*
X143910766Y-103133880D01*
X143899941Y-103006128D01*
X143864353Y-102909211D01*
X143794594Y-102803145D01*
X143706172Y-102730098D01*
X143621466Y-102691815D01*
X143547626Y-102669189D01*
X143502963Y-102667812D01*
X143480200Y-102693430D01*
X143472061Y-102751791D01*
X143471167Y-102810526D01*
X143472124Y-102886927D01*
X143477740Y-102931991D01*
X143492128Y-102956715D01*
X143519402Y-102972091D01*
X143533711Y-102977660D01*
X143583322Y-103015199D01*
X143609839Y-103072808D01*
X143612640Y-103136989D01*
X143591102Y-103194248D01*
X143545386Y-103230794D01*
X143491908Y-103240610D01*
X143446077Y-103222224D01*
X143403407Y-103171567D01*
X143359414Y-103084571D01*
X143344318Y-103048376D01*
X143280886Y-102917072D01*
X143209319Y-102822442D01*
X143124509Y-102758936D01*
X143050226Y-102728716D01*
X142935543Y-102715300D01*
X142822485Y-102740520D01*
X142719029Y-102801156D01*
X142633150Y-102893990D01*
X142630295Y-102898176D01*
X142595768Y-102980103D01*
X142581722Y-103082571D01*
X142589036Y-103188597D01*
G37*
X142589036Y-103188597D02*
X142611310Y-103265638D01*
X142666179Y-103352509D01*
X142744805Y-103425178D01*
X142835050Y-103474788D01*
X142922211Y-103492500D01*
X142943773Y-103488140D01*
X142956128Y-103469064D01*
X142961763Y-103426276D01*
X142963163Y-103350783D01*
X142963167Y-103344334D01*
X142961252Y-103263598D01*
X142954431Y-103217413D01*
X142941081Y-103198122D01*
X142931820Y-103196167D01*
X142904413Y-103177911D01*
X142885530Y-103134594D01*
X142880831Y-103083390D01*
X142886320Y-103058151D01*
X142916505Y-103016778D01*
X142956480Y-103010931D01*
X142999828Y-103037025D01*
X143040129Y-103091480D01*
X143067817Y-103159466D01*
X143127395Y-103306228D01*
X143209044Y-103417336D01*
X143266631Y-103465692D01*
X143321357Y-103498806D01*
X143375018Y-103516601D01*
X143444692Y-103523473D01*
X143493825Y-103524191D01*
X143577355Y-103521642D01*
X143636077Y-103510754D01*
X143687362Y-103486794D01*
X143726669Y-103460750D01*
X143822108Y-103369289D01*
X143884148Y-103257632D01*
X143910766Y-103133880D01*
X143899941Y-103006128D01*
X143864353Y-102909211D01*
X143794594Y-102803145D01*
X143706172Y-102730098D01*
X143621466Y-102691815D01*
X143547626Y-102669189D01*
X143502963Y-102667812D01*
X143480200Y-102693430D01*
X143472061Y-102751791D01*
X143471167Y-102810526D01*
X143472124Y-102886927D01*
X143477740Y-102931991D01*
X143492128Y-102956715D01*
X143519402Y-102972091D01*
X143533711Y-102977660D01*
X143583322Y-103015199D01*
X143609839Y-103072808D01*
X143612640Y-103136989D01*
X143591102Y-103194248D01*
X143545386Y-103230794D01*
X143491908Y-103240610D01*
X143446077Y-103222224D01*
X143403407Y-103171567D01*
X143359414Y-103084571D01*
X143344318Y-103048376D01*
X143280886Y-102917072D01*
X143209319Y-102822442D01*
X143124509Y-102758936D01*
X143050226Y-102728716D01*
X142935543Y-102715300D01*
X142822485Y-102740520D01*
X142719029Y-102801156D01*
X142633150Y-102893990D01*
X142630295Y-102898176D01*
X142595768Y-102980103D01*
X142581722Y-103082571D01*
X142589036Y-103188597D01*
G36*
X142589036Y-97685263D02*
G01*
X142611310Y-97762305D01*
X142666179Y-97849176D01*
X142744805Y-97921845D01*
X142835050Y-97971455D01*
X142922211Y-97989167D01*
X142943773Y-97984807D01*
X142956128Y-97965731D01*
X142961763Y-97922943D01*
X142963163Y-97847449D01*
X142963167Y-97841000D01*
X142961252Y-97760265D01*
X142954431Y-97714080D01*
X142941081Y-97694788D01*
X142931820Y-97692834D01*
X142904413Y-97674578D01*
X142885530Y-97631260D01*
X142880831Y-97580056D01*
X142886320Y-97554817D01*
X142916505Y-97513445D01*
X142956480Y-97507597D01*
X142999828Y-97533692D01*
X143040129Y-97588146D01*
X143067817Y-97656133D01*
X143127395Y-97802894D01*
X143209044Y-97914003D01*
X143266631Y-97962359D01*
X143321357Y-97995473D01*
X143375018Y-98013267D01*
X143444692Y-98020140D01*
X143493825Y-98020858D01*
X143577355Y-98018308D01*
X143636077Y-98007420D01*
X143687362Y-97983461D01*
X143726669Y-97957417D01*
X143822108Y-97865955D01*
X143884148Y-97754299D01*
X143910766Y-97630546D01*
X143899941Y-97502795D01*
X143864353Y-97405878D01*
X143794594Y-97299811D01*
X143706172Y-97226765D01*
X143621466Y-97188481D01*
X143547626Y-97165856D01*
X143502963Y-97164478D01*
X143480200Y-97190097D01*
X143472061Y-97248458D01*
X143471167Y-97307193D01*
X143472124Y-97383593D01*
X143477740Y-97428658D01*
X143492128Y-97453381D01*
X143519402Y-97468757D01*
X143533711Y-97474327D01*
X143583322Y-97511866D01*
X143609839Y-97569474D01*
X143612640Y-97633656D01*
X143591102Y-97690915D01*
X143545386Y-97727460D01*
X143491908Y-97737277D01*
X143446077Y-97718890D01*
X143403407Y-97668233D01*
X143359414Y-97581237D01*
X143344318Y-97545043D01*
X143280886Y-97413738D01*
X143209319Y-97319108D01*
X143124509Y-97255602D01*
X143050226Y-97225383D01*
X142935543Y-97211967D01*
X142822485Y-97237186D01*
X142719029Y-97297823D01*
X142633150Y-97390657D01*
X142630295Y-97394842D01*
X142595768Y-97476770D01*
X142581722Y-97579237D01*
X142589036Y-97685263D01*
G37*
X142589036Y-97685263D02*
X142611310Y-97762305D01*
X142666179Y-97849176D01*
X142744805Y-97921845D01*
X142835050Y-97971455D01*
X142922211Y-97989167D01*
X142943773Y-97984807D01*
X142956128Y-97965731D01*
X142961763Y-97922943D01*
X142963163Y-97847449D01*
X142963167Y-97841000D01*
X142961252Y-97760265D01*
X142954431Y-97714080D01*
X142941081Y-97694788D01*
X142931820Y-97692834D01*
X142904413Y-97674578D01*
X142885530Y-97631260D01*
X142880831Y-97580056D01*
X142886320Y-97554817D01*
X142916505Y-97513445D01*
X142956480Y-97507597D01*
X142999828Y-97533692D01*
X143040129Y-97588146D01*
X143067817Y-97656133D01*
X143127395Y-97802894D01*
X143209044Y-97914003D01*
X143266631Y-97962359D01*
X143321357Y-97995473D01*
X143375018Y-98013267D01*
X143444692Y-98020140D01*
X143493825Y-98020858D01*
X143577355Y-98018308D01*
X143636077Y-98007420D01*
X143687362Y-97983461D01*
X143726669Y-97957417D01*
X143822108Y-97865955D01*
X143884148Y-97754299D01*
X143910766Y-97630546D01*
X143899941Y-97502795D01*
X143864353Y-97405878D01*
X143794594Y-97299811D01*
X143706172Y-97226765D01*
X143621466Y-97188481D01*
X143547626Y-97165856D01*
X143502963Y-97164478D01*
X143480200Y-97190097D01*
X143472061Y-97248458D01*
X143471167Y-97307193D01*
X143472124Y-97383593D01*
X143477740Y-97428658D01*
X143492128Y-97453381D01*
X143519402Y-97468757D01*
X143533711Y-97474327D01*
X143583322Y-97511866D01*
X143609839Y-97569474D01*
X143612640Y-97633656D01*
X143591102Y-97690915D01*
X143545386Y-97727460D01*
X143491908Y-97737277D01*
X143446077Y-97718890D01*
X143403407Y-97668233D01*
X143359414Y-97581237D01*
X143344318Y-97545043D01*
X143280886Y-97413738D01*
X143209319Y-97319108D01*
X143124509Y-97255602D01*
X143050226Y-97225383D01*
X142935543Y-97211967D01*
X142822485Y-97237186D01*
X142719029Y-97297823D01*
X142633150Y-97390657D01*
X142630295Y-97394842D01*
X142595768Y-97476770D01*
X142581722Y-97579237D01*
X142589036Y-97685263D01*
G36*
X144074417Y-112871948D02*
G01*
X144080715Y-112743782D01*
X144083420Y-112673469D01*
X144080514Y-112636998D01*
X144068739Y-112625942D01*
X144044833Y-112631875D01*
X144038381Y-112634332D01*
X143993027Y-112652927D01*
X143925627Y-112681817D01*
X143868042Y-112707109D01*
X143746333Y-112761171D01*
X143746333Y-113014428D01*
X144074417Y-112871948D01*
G37*
X144074417Y-112871948D02*
X144080715Y-112743782D01*
X144083420Y-112673469D01*
X144080514Y-112636998D01*
X144068739Y-112625942D01*
X144044833Y-112631875D01*
X144038381Y-112634332D01*
X143993027Y-112652927D01*
X143925627Y-112681817D01*
X143868042Y-112707109D01*
X143746333Y-112761171D01*
X143746333Y-113014428D01*
X144074417Y-112871948D01*
G36*
X153757106Y-115162158D02*
G01*
X153758404Y-115214066D01*
X153758642Y-115377584D01*
X154022988Y-115502359D01*
X154118772Y-115548450D01*
X154199060Y-115588761D01*
X154256919Y-115619680D01*
X154285414Y-115637597D01*
X154287201Y-115639942D01*
X154268632Y-115652060D01*
X154217840Y-115676316D01*
X154142042Y-115709468D01*
X154048458Y-115748277D01*
X154022879Y-115758584D01*
X153758689Y-115864417D01*
X153758428Y-116029708D01*
X153760299Y-116105579D01*
X153765499Y-116160216D01*
X153773015Y-116184331D01*
X153775313Y-116184401D01*
X153797011Y-116174868D01*
X153852213Y-116151606D01*
X153935258Y-116116952D01*
X154040483Y-116073244D01*
X154162228Y-116022819D01*
X154294830Y-115968013D01*
X154432628Y-115911165D01*
X154569960Y-115854610D01*
X154701163Y-115800687D01*
X154820576Y-115751732D01*
X154922538Y-115710082D01*
X155001386Y-115678075D01*
X155022875Y-115669423D01*
X155038818Y-115642112D01*
X155047488Y-115575136D01*
X155049333Y-115500893D01*
X155048319Y-115420385D01*
X155043933Y-115374254D01*
X155034163Y-115354566D01*
X155016995Y-115353386D01*
X155012249Y-115354751D01*
X154975123Y-115368508D01*
X154912145Y-115393695D01*
X154836378Y-115425078D01*
X154829892Y-115427810D01*
X154684618Y-115489100D01*
X154269017Y-115288411D01*
X154114457Y-115213352D01*
X153994261Y-115154998D01*
X153904167Y-115112730D01*
X153839914Y-115085926D01*
X153797240Y-115073966D01*
X153771884Y-115076230D01*
X153759584Y-115092097D01*
X153756079Y-115120946D01*
X153757106Y-115162158D01*
G37*
X153757106Y-115162158D02*
X153758404Y-115214066D01*
X153758642Y-115377584D01*
X154022988Y-115502359D01*
X154118772Y-115548450D01*
X154199060Y-115588761D01*
X154256919Y-115619680D01*
X154285414Y-115637597D01*
X154287201Y-115639942D01*
X154268632Y-115652060D01*
X154217840Y-115676316D01*
X154142042Y-115709468D01*
X154048458Y-115748277D01*
X154022879Y-115758584D01*
X153758689Y-115864417D01*
X153758428Y-116029708D01*
X153760299Y-116105579D01*
X153765499Y-116160216D01*
X153773015Y-116184331D01*
X153775313Y-116184401D01*
X153797011Y-116174868D01*
X153852213Y-116151606D01*
X153935258Y-116116952D01*
X154040483Y-116073244D01*
X154162228Y-116022819D01*
X154294830Y-115968013D01*
X154432628Y-115911165D01*
X154569960Y-115854610D01*
X154701163Y-115800687D01*
X154820576Y-115751732D01*
X154922538Y-115710082D01*
X155001386Y-115678075D01*
X155022875Y-115669423D01*
X155038818Y-115642112D01*
X155047488Y-115575136D01*
X155049333Y-115500893D01*
X155048319Y-115420385D01*
X155043933Y-115374254D01*
X155034163Y-115354566D01*
X155016995Y-115353386D01*
X155012249Y-115354751D01*
X154975123Y-115368508D01*
X154912145Y-115393695D01*
X154836378Y-115425078D01*
X154829892Y-115427810D01*
X154684618Y-115489100D01*
X154269017Y-115288411D01*
X154114457Y-115213352D01*
X153994261Y-115154998D01*
X153904167Y-115112730D01*
X153839914Y-115085926D01*
X153797240Y-115073966D01*
X153771884Y-115076230D01*
X153759584Y-115092097D01*
X153756079Y-115120946D01*
X153757106Y-115162158D01*
G36*
X154753000Y-114541500D02*
G01*
X154753000Y-115007167D01*
X155049333Y-115007167D01*
X155049333Y-114245167D01*
X153758167Y-114245167D01*
X153758167Y-114541500D01*
X154753000Y-114541500D01*
G37*
X154753000Y-114541500D02*
X154753000Y-115007167D01*
X155049333Y-115007167D01*
X155049333Y-114245167D01*
X153758167Y-114245167D01*
X153758167Y-114541500D01*
X154753000Y-114541500D01*
G36*
X154054500Y-114097000D02*
G01*
X154054500Y-113567834D01*
X154245000Y-113567834D01*
X154245000Y-113991167D01*
X154541333Y-113991167D01*
X154541333Y-113567834D01*
X154753000Y-113567834D01*
X154753000Y-114097000D01*
X155049333Y-114097000D01*
X155049333Y-113271500D01*
X153758167Y-113271500D01*
X153758167Y-114097000D01*
X154054500Y-114097000D01*
G37*
X154054500Y-114097000D02*
X154054500Y-113567834D01*
X154245000Y-113567834D01*
X154245000Y-113991167D01*
X154541333Y-113991167D01*
X154541333Y-113567834D01*
X154753000Y-113567834D01*
X154753000Y-114097000D01*
X155049333Y-114097000D01*
X155049333Y-113271500D01*
X153758167Y-113271500D01*
X153758167Y-114097000D01*
X154054500Y-114097000D01*
G36*
X153762160Y-112419542D02*
G01*
X153771673Y-112557263D01*
X153790742Y-112663377D01*
X153823118Y-112748212D01*
X153872553Y-112822093D01*
X153930937Y-112884136D01*
X154042450Y-112965092D01*
X154164573Y-113008510D01*
X154290417Y-113014032D01*
X154413092Y-112981298D01*
X154519967Y-112914821D01*
X154593131Y-112853741D01*
X154784190Y-112970610D01*
X154867538Y-113022436D01*
X154940263Y-113069194D01*
X154992815Y-113104661D01*
X155012292Y-113119270D01*
X155030116Y-113131821D01*
X155041071Y-113127552D01*
X155046817Y-113099741D01*
X155049014Y-113041668D01*
X155049333Y-112969368D01*
X155049333Y-112787674D01*
X154885292Y-112686958D01*
X154812310Y-112642089D01*
X154754312Y-112606318D01*
X154719788Y-112584886D01*
X154714026Y-112581216D01*
X154713782Y-112559916D01*
X154720744Y-112532262D01*
X154732312Y-112509560D01*
X154755527Y-112496330D01*
X154800066Y-112490090D01*
X154875605Y-112488358D01*
X154892010Y-112488334D01*
X155049333Y-112488334D01*
X155049333Y-112192000D01*
X154234417Y-112192000D01*
X154234417Y-112488334D01*
X154331317Y-112490627D01*
X154390188Y-112500381D01*
X154415215Y-112521908D01*
X154410585Y-112559520D01*
X154380483Y-112617528D01*
X154372577Y-112630640D01*
X154315488Y-112691808D01*
X154247708Y-112716697D01*
X154178891Y-112706158D01*
X154118689Y-112661037D01*
X154085150Y-112605383D01*
X154064980Y-112551676D01*
X154054798Y-112513934D01*
X154054500Y-112510180D01*
X154074633Y-112499104D01*
X154131089Y-112491604D01*
X154217956Y-112488400D01*
X154234417Y-112488334D01*
X154234417Y-112192000D01*
X153753483Y-112192000D01*
X153762160Y-112419542D01*
G37*
X153762160Y-112419542D02*
X153771673Y-112557263D01*
X153790742Y-112663377D01*
X153823118Y-112748212D01*
X153872553Y-112822093D01*
X153930937Y-112884136D01*
X154042450Y-112965092D01*
X154164573Y-113008510D01*
X154290417Y-113014032D01*
X154413092Y-112981298D01*
X154519967Y-112914821D01*
X154593131Y-112853741D01*
X154784190Y-112970610D01*
X154867538Y-113022436D01*
X154940263Y-113069194D01*
X154992815Y-113104661D01*
X155012292Y-113119270D01*
X155030116Y-113131821D01*
X155041071Y-113127552D01*
X155046817Y-113099741D01*
X155049014Y-113041668D01*
X155049333Y-112969368D01*
X155049333Y-112787674D01*
X154885292Y-112686958D01*
X154812310Y-112642089D01*
X154754312Y-112606318D01*
X154719788Y-112584886D01*
X154714026Y-112581216D01*
X154713782Y-112559916D01*
X154720744Y-112532262D01*
X154732312Y-112509560D01*
X154755527Y-112496330D01*
X154800066Y-112490090D01*
X154875605Y-112488358D01*
X154892010Y-112488334D01*
X155049333Y-112488334D01*
X155049333Y-112192000D01*
X154234417Y-112192000D01*
X154234417Y-112488334D01*
X154331317Y-112490627D01*
X154390188Y-112500381D01*
X154415215Y-112521908D01*
X154410585Y-112559520D01*
X154380483Y-112617528D01*
X154372577Y-112630640D01*
X154315488Y-112691808D01*
X154247708Y-112716697D01*
X154178891Y-112706158D01*
X154118689Y-112661037D01*
X154085150Y-112605383D01*
X154064980Y-112551676D01*
X154054798Y-112513934D01*
X154054500Y-112510180D01*
X154074633Y-112499104D01*
X154131089Y-112491604D01*
X154217956Y-112488400D01*
X154234417Y-112488334D01*
X154234417Y-112192000D01*
X153753483Y-112192000D01*
X153762160Y-112419542D01*
G36*
X154054500Y-112043834D02*
G01*
X154054500Y-111514667D01*
X154245000Y-111514667D01*
X154245000Y-111938000D01*
X154541333Y-111938000D01*
X154541333Y-111514667D01*
X154753000Y-111514667D01*
X154753000Y-112043834D01*
X155049333Y-112043834D01*
X155049333Y-111218334D01*
X153758167Y-111218334D01*
X153758167Y-112043834D01*
X154054500Y-112043834D01*
G37*
X154054500Y-112043834D02*
X154054500Y-111514667D01*
X154245000Y-111514667D01*
X154245000Y-111938000D01*
X154541333Y-111938000D01*
X154541333Y-111514667D01*
X154753000Y-111514667D01*
X154753000Y-112043834D01*
X155049333Y-112043834D01*
X155049333Y-111218334D01*
X153758167Y-111218334D01*
X153758167Y-112043834D01*
X154054500Y-112043834D01*
G36*
X153770473Y-110812403D02*
G01*
X153815152Y-110958117D01*
X153872349Y-111057939D01*
X153940523Y-111153827D01*
X154054997Y-111037914D01*
X154105810Y-110983686D01*
X154138686Y-110943031D01*
X154148105Y-110922974D01*
X154146033Y-110922000D01*
X154122736Y-110903300D01*
X154097102Y-110855810D01*
X154074067Y-110792441D01*
X154058569Y-110726109D01*
X154054848Y-110683447D01*
X154073580Y-110593571D01*
X154122778Y-110503452D01*
X154193241Y-110427634D01*
X154234848Y-110398905D01*
X154342134Y-110359188D01*
X154448439Y-110356478D01*
X154547547Y-110385832D01*
X154633247Y-110442305D01*
X154699324Y-110520953D01*
X154739565Y-110616831D01*
X154747757Y-110724997D01*
X154734005Y-110796096D01*
X154710904Y-110856421D01*
X154684929Y-110901648D01*
X154679888Y-110907421D01*
X154668493Y-110926782D01*
X154675541Y-110951635D01*
X154705463Y-110989556D01*
X154761532Y-111046975D01*
X154872822Y-111156883D01*
X154930780Y-111073250D01*
X155005334Y-110929770D01*
X155042384Y-110773250D01*
X155040736Y-110612367D01*
X155011298Y-110487920D01*
X154941620Y-110345296D01*
X154844309Y-110229593D01*
X154725514Y-110142220D01*
X154591380Y-110084583D01*
X154448056Y-110058090D01*
X154301689Y-110064148D01*
X154158426Y-110104165D01*
X154024416Y-110179547D01*
X153948667Y-110244667D01*
X153852010Y-110369117D01*
X153789616Y-110510295D01*
X153762199Y-110660592D01*
X153770473Y-110812403D01*
G37*
X153770473Y-110812403D02*
X153815152Y-110958117D01*
X153872349Y-111057939D01*
X153940523Y-111153827D01*
X154054997Y-111037914D01*
X154105810Y-110983686D01*
X154138686Y-110943031D01*
X154148105Y-110922974D01*
X154146033Y-110922000D01*
X154122736Y-110903300D01*
X154097102Y-110855810D01*
X154074067Y-110792441D01*
X154058569Y-110726109D01*
X154054848Y-110683447D01*
X154073580Y-110593571D01*
X154122778Y-110503452D01*
X154193241Y-110427634D01*
X154234848Y-110398905D01*
X154342134Y-110359188D01*
X154448439Y-110356478D01*
X154547547Y-110385832D01*
X154633247Y-110442305D01*
X154699324Y-110520953D01*
X154739565Y-110616831D01*
X154747757Y-110724997D01*
X154734005Y-110796096D01*
X154710904Y-110856421D01*
X154684929Y-110901648D01*
X154679888Y-110907421D01*
X154668493Y-110926782D01*
X154675541Y-110951635D01*
X154705463Y-110989556D01*
X154761532Y-111046975D01*
X154872822Y-111156883D01*
X154930780Y-111073250D01*
X155005334Y-110929770D01*
X155042384Y-110773250D01*
X155040736Y-110612367D01*
X155011298Y-110487920D01*
X154941620Y-110345296D01*
X154844309Y-110229593D01*
X154725514Y-110142220D01*
X154591380Y-110084583D01*
X154448056Y-110058090D01*
X154301689Y-110064148D01*
X154158426Y-110104165D01*
X154024416Y-110179547D01*
X153948667Y-110244667D01*
X153852010Y-110369117D01*
X153789616Y-110510295D01*
X153762199Y-110660592D01*
X153770473Y-110812403D01*
G36*
X153762568Y-109095994D02*
G01*
X153768750Y-109259655D01*
X154132228Y-109461119D01*
X154495707Y-109662584D01*
X153758167Y-109674144D01*
X153758167Y-109969500D01*
X155051114Y-109969500D01*
X155038750Y-109642178D01*
X154675271Y-109440714D01*
X154311793Y-109239250D01*
X155049333Y-109227690D01*
X155049333Y-108932334D01*
X153756386Y-108932334D01*
X153762568Y-109095994D01*
G37*
X153762568Y-109095994D02*
X153768750Y-109259655D01*
X154132228Y-109461119D01*
X154495707Y-109662584D01*
X153758167Y-109674144D01*
X153758167Y-109969500D01*
X155051114Y-109969500D01*
X155038750Y-109642178D01*
X154675271Y-109440714D01*
X154311793Y-109239250D01*
X155049333Y-109227690D01*
X155049333Y-108932334D01*
X153756386Y-108932334D01*
X153762568Y-109095994D01*
G36*
X155049333Y-108741834D02*
G01*
X155049333Y-108445500D01*
X153758167Y-108445500D01*
X153758167Y-108741834D01*
X155049333Y-108741834D01*
G37*
X155049333Y-108741834D02*
X155049333Y-108445500D01*
X153758167Y-108445500D01*
X153758167Y-108741834D01*
X155049333Y-108741834D01*
G36*
X153743869Y-107972263D02*
G01*
X153766143Y-108049305D01*
X153821012Y-108136176D01*
X153899638Y-108208845D01*
X153989883Y-108258455D01*
X154077044Y-108276167D01*
X154098607Y-108271807D01*
X154110962Y-108252731D01*
X154116596Y-108209943D01*
X154117996Y-108134449D01*
X154118000Y-108128000D01*
X154116086Y-108047265D01*
X154109264Y-108001080D01*
X154095914Y-107981788D01*
X154086653Y-107979834D01*
X154059247Y-107961578D01*
X154040363Y-107918260D01*
X154035664Y-107867056D01*
X154041154Y-107841817D01*
X154071339Y-107800445D01*
X154111314Y-107794597D01*
X154154661Y-107820692D01*
X154194963Y-107875146D01*
X154222651Y-107943133D01*
X154282228Y-108089894D01*
X154363877Y-108201003D01*
X154421464Y-108249359D01*
X154476190Y-108282473D01*
X154529851Y-108300267D01*
X154599525Y-108307140D01*
X154648659Y-108307858D01*
X154732189Y-108305308D01*
X154790910Y-108294420D01*
X154842196Y-108270461D01*
X154881502Y-108244417D01*
X154976942Y-108152955D01*
X155038981Y-108041299D01*
X155065599Y-107917546D01*
X155054774Y-107789795D01*
X155019187Y-107692878D01*
X154949427Y-107586811D01*
X154861005Y-107513765D01*
X154776300Y-107475481D01*
X154702459Y-107452856D01*
X154657796Y-107451478D01*
X154635033Y-107477097D01*
X154626895Y-107535458D01*
X154626000Y-107594193D01*
X154626957Y-107670593D01*
X154632573Y-107715658D01*
X154646961Y-107740381D01*
X154674235Y-107755757D01*
X154688545Y-107761327D01*
X154738155Y-107798866D01*
X154764672Y-107856474D01*
X154767473Y-107920656D01*
X154745936Y-107977915D01*
X154700219Y-108014460D01*
X154646742Y-108024277D01*
X154600910Y-108005890D01*
X154558240Y-107955233D01*
X154514247Y-107868237D01*
X154499152Y-107832043D01*
X154435719Y-107700738D01*
X154364152Y-107606108D01*
X154279343Y-107542602D01*
X154205059Y-107512383D01*
X154090377Y-107498967D01*
X153977319Y-107524186D01*
X153873862Y-107584823D01*
X153787983Y-107677657D01*
X153785129Y-107681842D01*
X153750601Y-107763770D01*
X153736556Y-107866237D01*
X153743869Y-107972263D01*
G37*
X153743869Y-107972263D02*
X153766143Y-108049305D01*
X153821012Y-108136176D01*
X153899638Y-108208845D01*
X153989883Y-108258455D01*
X154077044Y-108276167D01*
X154098607Y-108271807D01*
X154110962Y-108252731D01*
X154116596Y-108209943D01*
X154117996Y-108134449D01*
X154118000Y-108128000D01*
X154116086Y-108047265D01*
X154109264Y-108001080D01*
X154095914Y-107981788D01*
X154086653Y-107979834D01*
X154059247Y-107961578D01*
X154040363Y-107918260D01*
X154035664Y-107867056D01*
X154041154Y-107841817D01*
X154071339Y-107800445D01*
X154111314Y-107794597D01*
X154154661Y-107820692D01*
X154194963Y-107875146D01*
X154222651Y-107943133D01*
X154282228Y-108089894D01*
X154363877Y-108201003D01*
X154421464Y-108249359D01*
X154476190Y-108282473D01*
X154529851Y-108300267D01*
X154599525Y-108307140D01*
X154648659Y-108307858D01*
X154732189Y-108305308D01*
X154790910Y-108294420D01*
X154842196Y-108270461D01*
X154881502Y-108244417D01*
X154976942Y-108152955D01*
X155038981Y-108041299D01*
X155065599Y-107917546D01*
X155054774Y-107789795D01*
X155019187Y-107692878D01*
X154949427Y-107586811D01*
X154861005Y-107513765D01*
X154776300Y-107475481D01*
X154702459Y-107452856D01*
X154657796Y-107451478D01*
X154635033Y-107477097D01*
X154626895Y-107535458D01*
X154626000Y-107594193D01*
X154626957Y-107670593D01*
X154632573Y-107715658D01*
X154646961Y-107740381D01*
X154674235Y-107755757D01*
X154688545Y-107761327D01*
X154738155Y-107798866D01*
X154764672Y-107856474D01*
X154767473Y-107920656D01*
X154745936Y-107977915D01*
X154700219Y-108014460D01*
X154646742Y-108024277D01*
X154600910Y-108005890D01*
X154558240Y-107955233D01*
X154514247Y-107868237D01*
X154499152Y-107832043D01*
X154435719Y-107700738D01*
X154364152Y-107606108D01*
X154279343Y-107542602D01*
X154205059Y-107512383D01*
X154090377Y-107498967D01*
X153977319Y-107524186D01*
X153873862Y-107584823D01*
X153787983Y-107677657D01*
X153785129Y-107681842D01*
X153750601Y-107763770D01*
X153736556Y-107866237D01*
X153743869Y-107972263D01*
G36*
X155065208Y-116605021D02*
G01*
X155229250Y-116533781D01*
X155235548Y-116405615D01*
X155238253Y-116335303D01*
X155235348Y-116298831D01*
X155223572Y-116287776D01*
X155199667Y-116293709D01*
X155193215Y-116296165D01*
X155147860Y-116314760D01*
X155080460Y-116343651D01*
X155022875Y-116368942D01*
X154901167Y-116423004D01*
X154901167Y-116676262D01*
X155065208Y-116605021D01*
G37*
X155065208Y-116605021D02*
X155229250Y-116533781D01*
X155235548Y-116405615D01*
X155238253Y-116335303D01*
X155235348Y-116298831D01*
X155223572Y-116287776D01*
X155199667Y-116293709D01*
X155193215Y-116296165D01*
X155147860Y-116314760D01*
X155080460Y-116343651D01*
X155022875Y-116368942D01*
X154901167Y-116423004D01*
X154901167Y-116676262D01*
X155065208Y-116605021D01*
G36*
X156771199Y-123680732D02*
G01*
X156811707Y-123744253D01*
X156812822Y-123745311D01*
X156879998Y-123784626D01*
X156949565Y-123783968D01*
X157013086Y-123743460D01*
X157014144Y-123742344D01*
X157053459Y-123675168D01*
X157052801Y-123605602D01*
X157012293Y-123542080D01*
X157011177Y-123541023D01*
X156944001Y-123501708D01*
X156874435Y-123502366D01*
X156810913Y-123542874D01*
X156809856Y-123543989D01*
X156770541Y-123611165D01*
X156771199Y-123680732D01*
G37*
X156771199Y-123680732D02*
X156811707Y-123744253D01*
X156812822Y-123745311D01*
X156879998Y-123784626D01*
X156949565Y-123783968D01*
X157013086Y-123743460D01*
X157014144Y-123742344D01*
X157053459Y-123675168D01*
X157052801Y-123605602D01*
X157012293Y-123542080D01*
X157011177Y-123541023D01*
X156944001Y-123501708D01*
X156874435Y-123502366D01*
X156810913Y-123542874D01*
X156809856Y-123543989D01*
X156770541Y-123611165D01*
X156771199Y-123680732D01*
G36*
X155772993Y-122685375D02*
G01*
X155782506Y-122823096D01*
X155801575Y-122929211D01*
X155833951Y-123014045D01*
X155883386Y-123087926D01*
X155941770Y-123149969D01*
X156053283Y-123230925D01*
X156175406Y-123274344D01*
X156301250Y-123279866D01*
X156423925Y-123247132D01*
X156530801Y-123180654D01*
X156603964Y-123119575D01*
X156795024Y-123236443D01*
X156878372Y-123288269D01*
X156951096Y-123335027D01*
X157003648Y-123370495D01*
X157023125Y-123385103D01*
X157040950Y-123397655D01*
X157051905Y-123393385D01*
X157057651Y-123365574D01*
X157059848Y-123307501D01*
X157060167Y-123235201D01*
X157060167Y-123053508D01*
X156896125Y-122952791D01*
X156823143Y-122907922D01*
X156765146Y-122872151D01*
X156730621Y-122850719D01*
X156724859Y-122847049D01*
X156724616Y-122825749D01*
X156731577Y-122798095D01*
X156743146Y-122775393D01*
X156766361Y-122762163D01*
X156810899Y-122755923D01*
X156886439Y-122754191D01*
X156902843Y-122754167D01*
X157060167Y-122754167D01*
X157060167Y-122457834D01*
X156245250Y-122457834D01*
X156245250Y-122754167D01*
X156342151Y-122756460D01*
X156401022Y-122766214D01*
X156426049Y-122787741D01*
X156421418Y-122825353D01*
X156391316Y-122883361D01*
X156383411Y-122896474D01*
X156326321Y-122957641D01*
X156258542Y-122982531D01*
X156189725Y-122971991D01*
X156129522Y-122926871D01*
X156095983Y-122871216D01*
X156075813Y-122817510D01*
X156065631Y-122779768D01*
X156065333Y-122776013D01*
X156085466Y-122764937D01*
X156141922Y-122757438D01*
X156228789Y-122754233D01*
X156245250Y-122754167D01*
X156245250Y-122457834D01*
X155764317Y-122457834D01*
X155772993Y-122685375D01*
G37*
X155772993Y-122685375D02*
X155782506Y-122823096D01*
X155801575Y-122929211D01*
X155833951Y-123014045D01*
X155883386Y-123087926D01*
X155941770Y-123149969D01*
X156053283Y-123230925D01*
X156175406Y-123274344D01*
X156301250Y-123279866D01*
X156423925Y-123247132D01*
X156530801Y-123180654D01*
X156603964Y-123119575D01*
X156795024Y-123236443D01*
X156878372Y-123288269D01*
X156951096Y-123335027D01*
X157003648Y-123370495D01*
X157023125Y-123385103D01*
X157040950Y-123397655D01*
X157051905Y-123393385D01*
X157057651Y-123365574D01*
X157059848Y-123307501D01*
X157060167Y-123235201D01*
X157060167Y-123053508D01*
X156896125Y-122952791D01*
X156823143Y-122907922D01*
X156765146Y-122872151D01*
X156730621Y-122850719D01*
X156724859Y-122847049D01*
X156724616Y-122825749D01*
X156731577Y-122798095D01*
X156743146Y-122775393D01*
X156766361Y-122762163D01*
X156810899Y-122755923D01*
X156886439Y-122754191D01*
X156902843Y-122754167D01*
X157060167Y-122754167D01*
X157060167Y-122457834D01*
X156245250Y-122457834D01*
X156245250Y-122754167D01*
X156342151Y-122756460D01*
X156401022Y-122766214D01*
X156426049Y-122787741D01*
X156421418Y-122825353D01*
X156391316Y-122883361D01*
X156383411Y-122896474D01*
X156326321Y-122957641D01*
X156258542Y-122982531D01*
X156189725Y-122971991D01*
X156129522Y-122926871D01*
X156095983Y-122871216D01*
X156075813Y-122817510D01*
X156065631Y-122779768D01*
X156065333Y-122776013D01*
X156085466Y-122764937D01*
X156141922Y-122757438D01*
X156228789Y-122754233D01*
X156245250Y-122754167D01*
X156245250Y-122457834D01*
X155764317Y-122457834D01*
X155772993Y-122685375D01*
G36*
X156208208Y-122288293D02*
G01*
X156360298Y-122288013D01*
X156476590Y-122286941D01*
X156563618Y-122284498D01*
X156627916Y-122280108D01*
X156676019Y-122273190D01*
X156714462Y-122263167D01*
X156749779Y-122249461D01*
X156774417Y-122238178D01*
X156876311Y-122179333D01*
X156949823Y-122107393D01*
X157008383Y-122008683D01*
X157016055Y-121992167D01*
X157051149Y-121869454D01*
X157054099Y-121738279D01*
X157031186Y-121635235D01*
X156978030Y-121535049D01*
X156899492Y-121445032D01*
X156805581Y-121373199D01*
X156706305Y-121327559D01*
X156631542Y-121315298D01*
X156601146Y-121316671D01*
X156583752Y-121327538D01*
X156575730Y-121357106D01*
X156573453Y-121414585D01*
X156573333Y-121463000D01*
X156575034Y-121542724D01*
X156581369Y-121588406D01*
X156594184Y-121608245D01*
X156606711Y-121611167D01*
X156654264Y-121629130D01*
X156703545Y-121674125D01*
X156743553Y-121732813D01*
X156763284Y-121791851D01*
X156763833Y-121801667D01*
X156744944Y-121874641D01*
X156701961Y-121930295D01*
X156640090Y-121992167D01*
X155747833Y-121992167D01*
X155747833Y-122288500D01*
X156208208Y-122288293D01*
G37*
X156208208Y-122288293D02*
X156360298Y-122288013D01*
X156476590Y-122286941D01*
X156563618Y-122284498D01*
X156627916Y-122280108D01*
X156676019Y-122273190D01*
X156714462Y-122263167D01*
X156749779Y-122249461D01*
X156774417Y-122238178D01*
X156876311Y-122179333D01*
X156949823Y-122107393D01*
X157008383Y-122008683D01*
X157016055Y-121992167D01*
X157051149Y-121869454D01*
X157054099Y-121738279D01*
X157031186Y-121635235D01*
X156978030Y-121535049D01*
X156899492Y-121445032D01*
X156805581Y-121373199D01*
X156706305Y-121327559D01*
X156631542Y-121315298D01*
X156601146Y-121316671D01*
X156583752Y-121327538D01*
X156575730Y-121357106D01*
X156573453Y-121414585D01*
X156573333Y-121463000D01*
X156575034Y-121542724D01*
X156581369Y-121588406D01*
X156594184Y-121608245D01*
X156606711Y-121611167D01*
X156654264Y-121629130D01*
X156703545Y-121674125D01*
X156743553Y-121732813D01*
X156763284Y-121791851D01*
X156763833Y-121801667D01*
X156744944Y-121874641D01*
X156701961Y-121930295D01*
X156640090Y-121992167D01*
X155747833Y-121992167D01*
X155747833Y-122288500D01*
X156208208Y-122288293D01*
G36*
X156065333Y-120955000D02*
G01*
X156065333Y-120425834D01*
X156255833Y-120425834D01*
X156255833Y-120849167D01*
X156552167Y-120849167D01*
X156552167Y-120425834D01*
X156763833Y-120425834D01*
X156763833Y-120955000D01*
X157060167Y-120955000D01*
X157060167Y-120129500D01*
X155769000Y-120129500D01*
X155769000Y-120955000D01*
X156065333Y-120955000D01*
G37*
X156065333Y-120955000D02*
X156065333Y-120425834D01*
X156255833Y-120425834D01*
X156255833Y-120849167D01*
X156552167Y-120849167D01*
X156552167Y-120425834D01*
X156763833Y-120425834D01*
X156763833Y-120955000D01*
X157060167Y-120955000D01*
X157060167Y-120129500D01*
X155769000Y-120129500D01*
X155769000Y-120955000D01*
X156065333Y-120955000D01*
G36*
X155785936Y-119524211D02*
G01*
X155820390Y-119649622D01*
X155830868Y-119672785D01*
X155921628Y-119810716D01*
X156043065Y-119923626D01*
X156141048Y-119982965D01*
X156261145Y-120022624D01*
X156399299Y-120037624D01*
X156539191Y-120027964D01*
X156664503Y-119993639D01*
X156687959Y-119983042D01*
X156815638Y-119899139D01*
X156925492Y-119786262D01*
X156998353Y-119670933D01*
X157033221Y-119566472D01*
X157051395Y-119442262D01*
X157051543Y-119316998D01*
X157032334Y-119209376D01*
X157031425Y-119206555D01*
X156964081Y-119060803D01*
X156870540Y-118943251D01*
X156756516Y-118854283D01*
X156627728Y-118794284D01*
X156489889Y-118763640D01*
X156414583Y-118763158D01*
X156414583Y-119050697D01*
X156522662Y-119070471D01*
X156619501Y-119124479D01*
X156697128Y-119204748D01*
X156747569Y-119303302D01*
X156763137Y-119399250D01*
X156750505Y-119480536D01*
X156718382Y-119562798D01*
X156715429Y-119568152D01*
X156645620Y-119653194D01*
X156551583Y-119715126D01*
X156446846Y-119745869D01*
X156414583Y-119747804D01*
X156306505Y-119728029D01*
X156209665Y-119674021D01*
X156132038Y-119593753D01*
X156081597Y-119495198D01*
X156066030Y-119399250D01*
X156085804Y-119291172D01*
X156139812Y-119194332D01*
X156220081Y-119116705D01*
X156318635Y-119066264D01*
X156414583Y-119050697D01*
X156414583Y-118763158D01*
X156348716Y-118762735D01*
X156209924Y-118791953D01*
X156079230Y-118851681D01*
X155962350Y-118942302D01*
X155864999Y-119064202D01*
X155830868Y-119125715D01*
X155791175Y-119245938D01*
X155776198Y-119384210D01*
X155785936Y-119524211D01*
G37*
X155785936Y-119524211D02*
X155820390Y-119649622D01*
X155830868Y-119672785D01*
X155921628Y-119810716D01*
X156043065Y-119923626D01*
X156141048Y-119982965D01*
X156261145Y-120022624D01*
X156399299Y-120037624D01*
X156539191Y-120027964D01*
X156664503Y-119993639D01*
X156687959Y-119983042D01*
X156815638Y-119899139D01*
X156925492Y-119786262D01*
X156998353Y-119670933D01*
X157033221Y-119566472D01*
X157051395Y-119442262D01*
X157051543Y-119316998D01*
X157032334Y-119209376D01*
X157031425Y-119206555D01*
X156964081Y-119060803D01*
X156870540Y-118943251D01*
X156756516Y-118854283D01*
X156627728Y-118794284D01*
X156489889Y-118763640D01*
X156414583Y-118763158D01*
X156414583Y-119050697D01*
X156522662Y-119070471D01*
X156619501Y-119124479D01*
X156697128Y-119204748D01*
X156747569Y-119303302D01*
X156763137Y-119399250D01*
X156750505Y-119480536D01*
X156718382Y-119562798D01*
X156715429Y-119568152D01*
X156645620Y-119653194D01*
X156551583Y-119715126D01*
X156446846Y-119745869D01*
X156414583Y-119747804D01*
X156306505Y-119728029D01*
X156209665Y-119674021D01*
X156132038Y-119593753D01*
X156081597Y-119495198D01*
X156066030Y-119399250D01*
X156085804Y-119291172D01*
X156139812Y-119194332D01*
X156220081Y-119116705D01*
X156318635Y-119066264D01*
X156414583Y-119050697D01*
X156414583Y-118763158D01*
X156348716Y-118762735D01*
X156209924Y-118791953D01*
X156079230Y-118851681D01*
X155962350Y-118942302D01*
X155864999Y-119064202D01*
X155830868Y-119125715D01*
X155791175Y-119245938D01*
X155776198Y-119384210D01*
X155785936Y-119524211D01*
G36*
X156208208Y-118668793D02*
G01*
X156360298Y-118668513D01*
X156476590Y-118667441D01*
X156563618Y-118664998D01*
X156627916Y-118660608D01*
X156676019Y-118653690D01*
X156714462Y-118643667D01*
X156749779Y-118629961D01*
X156774417Y-118618678D01*
X156876311Y-118559833D01*
X156949823Y-118487893D01*
X157008383Y-118389183D01*
X157016055Y-118372667D01*
X157051149Y-118249954D01*
X157054099Y-118118779D01*
X157031186Y-118015735D01*
X156978030Y-117915549D01*
X156899492Y-117825532D01*
X156805581Y-117753699D01*
X156706305Y-117708059D01*
X156631542Y-117695798D01*
X156601146Y-117697171D01*
X156583752Y-117708038D01*
X156575730Y-117737606D01*
X156573453Y-117795085D01*
X156573333Y-117843500D01*
X156575034Y-117923224D01*
X156581369Y-117968906D01*
X156594184Y-117988745D01*
X156606711Y-117991667D01*
X156654264Y-118009630D01*
X156703545Y-118054625D01*
X156743553Y-118113313D01*
X156763284Y-118172351D01*
X156763833Y-118182167D01*
X156744944Y-118255141D01*
X156701961Y-118310795D01*
X156640090Y-118372667D01*
X155747833Y-118372667D01*
X155747833Y-118669000D01*
X156208208Y-118668793D01*
G37*
X156208208Y-118668793D02*
X156360298Y-118668513D01*
X156476590Y-118667441D01*
X156563618Y-118664998D01*
X156627916Y-118660608D01*
X156676019Y-118653690D01*
X156714462Y-118643667D01*
X156749779Y-118629961D01*
X156774417Y-118618678D01*
X156876311Y-118559833D01*
X156949823Y-118487893D01*
X157008383Y-118389183D01*
X157016055Y-118372667D01*
X157051149Y-118249954D01*
X157054099Y-118118779D01*
X157031186Y-118015735D01*
X156978030Y-117915549D01*
X156899492Y-117825532D01*
X156805581Y-117753699D01*
X156706305Y-117708059D01*
X156631542Y-117695798D01*
X156601146Y-117697171D01*
X156583752Y-117708038D01*
X156575730Y-117737606D01*
X156573453Y-117795085D01*
X156573333Y-117843500D01*
X156575034Y-117923224D01*
X156581369Y-117968906D01*
X156594184Y-117988745D01*
X156606711Y-117991667D01*
X156654264Y-118009630D01*
X156703545Y-118054625D01*
X156743553Y-118113313D01*
X156763284Y-118172351D01*
X156763833Y-118182167D01*
X156744944Y-118255141D01*
X156701961Y-118310795D01*
X156640090Y-118372667D01*
X155747833Y-118372667D01*
X155747833Y-118669000D01*
X156208208Y-118668793D01*
G36*
X156065333Y-117335500D02*
G01*
X156065333Y-116806334D01*
X156255833Y-116806334D01*
X156255833Y-117229667D01*
X156552167Y-117229667D01*
X156552167Y-116806334D01*
X156763833Y-116806334D01*
X156763833Y-117335500D01*
X157060167Y-117335500D01*
X157060167Y-116510000D01*
X155769000Y-116510000D01*
X155769000Y-117335500D01*
X156065333Y-117335500D01*
G37*
X156065333Y-117335500D02*
X156065333Y-116806334D01*
X156255833Y-116806334D01*
X156255833Y-117229667D01*
X156552167Y-117229667D01*
X156552167Y-116806334D01*
X156763833Y-116806334D01*
X156763833Y-117335500D01*
X157060167Y-117335500D01*
X157060167Y-116510000D01*
X155769000Y-116510000D01*
X155769000Y-117335500D01*
X156065333Y-117335500D01*
G36*
X155785936Y-115904711D02*
G01*
X155820390Y-116030122D01*
X155830868Y-116053285D01*
X155921628Y-116191216D01*
X156043065Y-116304126D01*
X156141048Y-116363465D01*
X156261145Y-116403124D01*
X156399299Y-116418124D01*
X156539191Y-116408464D01*
X156664503Y-116374139D01*
X156687959Y-116363542D01*
X156815638Y-116279639D01*
X156925492Y-116166762D01*
X156998353Y-116051433D01*
X157033221Y-115946972D01*
X157051395Y-115822762D01*
X157051543Y-115697498D01*
X157032334Y-115589876D01*
X157031425Y-115587055D01*
X156964081Y-115441303D01*
X156870540Y-115323751D01*
X156756516Y-115234783D01*
X156627728Y-115174784D01*
X156489889Y-115144140D01*
X156414583Y-115143658D01*
X156414583Y-115431197D01*
X156522662Y-115450971D01*
X156619501Y-115504979D01*
X156697128Y-115585248D01*
X156747569Y-115683802D01*
X156763137Y-115779750D01*
X156750505Y-115861036D01*
X156718382Y-115943298D01*
X156715429Y-115948652D01*
X156645620Y-116033694D01*
X156551583Y-116095626D01*
X156446846Y-116126369D01*
X156414583Y-116128304D01*
X156306505Y-116108529D01*
X156209665Y-116054521D01*
X156132038Y-115974253D01*
X156081597Y-115875698D01*
X156066030Y-115779750D01*
X156085804Y-115671672D01*
X156139812Y-115574832D01*
X156220081Y-115497205D01*
X156318635Y-115446764D01*
X156414583Y-115431197D01*
X156414583Y-115143658D01*
X156348716Y-115143235D01*
X156209924Y-115172453D01*
X156079230Y-115232181D01*
X155962350Y-115322802D01*
X155864999Y-115444702D01*
X155830868Y-115506215D01*
X155791175Y-115626438D01*
X155776198Y-115764710D01*
X155785936Y-115904711D01*
G37*
X155785936Y-115904711D02*
X155820390Y-116030122D01*
X155830868Y-116053285D01*
X155921628Y-116191216D01*
X156043065Y-116304126D01*
X156141048Y-116363465D01*
X156261145Y-116403124D01*
X156399299Y-116418124D01*
X156539191Y-116408464D01*
X156664503Y-116374139D01*
X156687959Y-116363542D01*
X156815638Y-116279639D01*
X156925492Y-116166762D01*
X156998353Y-116051433D01*
X157033221Y-115946972D01*
X157051395Y-115822762D01*
X157051543Y-115697498D01*
X157032334Y-115589876D01*
X157031425Y-115587055D01*
X156964081Y-115441303D01*
X156870540Y-115323751D01*
X156756516Y-115234783D01*
X156627728Y-115174784D01*
X156489889Y-115144140D01*
X156414583Y-115143658D01*
X156414583Y-115431197D01*
X156522662Y-115450971D01*
X156619501Y-115504979D01*
X156697128Y-115585248D01*
X156747569Y-115683802D01*
X156763137Y-115779750D01*
X156750505Y-115861036D01*
X156718382Y-115943298D01*
X156715429Y-115948652D01*
X156645620Y-116033694D01*
X156551583Y-116095626D01*
X156446846Y-116126369D01*
X156414583Y-116128304D01*
X156306505Y-116108529D01*
X156209665Y-116054521D01*
X156132038Y-115974253D01*
X156081597Y-115875698D01*
X156066030Y-115779750D01*
X156085804Y-115671672D01*
X156139812Y-115574832D01*
X156220081Y-115497205D01*
X156318635Y-115446764D01*
X156414583Y-115431197D01*
X156414583Y-115143658D01*
X156348716Y-115143235D01*
X156209924Y-115172453D01*
X156079230Y-115232181D01*
X155962350Y-115322802D01*
X155864999Y-115444702D01*
X155830868Y-115506215D01*
X155791175Y-115626438D01*
X155776198Y-115764710D01*
X155785936Y-115904711D01*
G36*
X156208208Y-115049293D02*
G01*
X156360298Y-115049013D01*
X156476590Y-115047941D01*
X156563618Y-115045498D01*
X156627916Y-115041108D01*
X156676019Y-115034190D01*
X156714462Y-115024167D01*
X156749779Y-115010461D01*
X156774417Y-114999178D01*
X156876311Y-114940333D01*
X156949823Y-114868393D01*
X157008383Y-114769683D01*
X157016055Y-114753167D01*
X157051149Y-114630454D01*
X157054099Y-114499279D01*
X157031186Y-114396235D01*
X156978030Y-114296049D01*
X156899492Y-114206032D01*
X156805581Y-114134199D01*
X156706305Y-114088559D01*
X156631542Y-114076298D01*
X156601146Y-114077671D01*
X156583752Y-114088538D01*
X156575730Y-114118106D01*
X156573453Y-114175585D01*
X156573333Y-114224000D01*
X156575034Y-114303724D01*
X156581369Y-114349406D01*
X156594184Y-114369245D01*
X156606711Y-114372167D01*
X156654264Y-114390130D01*
X156703545Y-114435125D01*
X156743553Y-114493813D01*
X156763284Y-114552851D01*
X156763833Y-114562667D01*
X156744944Y-114635641D01*
X156701961Y-114691295D01*
X156640090Y-114753167D01*
X155747833Y-114753167D01*
X155747833Y-115049500D01*
X156208208Y-115049293D01*
G37*
X156208208Y-115049293D02*
X156360298Y-115049013D01*
X156476590Y-115047941D01*
X156563618Y-115045498D01*
X156627916Y-115041108D01*
X156676019Y-115034190D01*
X156714462Y-115024167D01*
X156749779Y-115010461D01*
X156774417Y-114999178D01*
X156876311Y-114940333D01*
X156949823Y-114868393D01*
X157008383Y-114769683D01*
X157016055Y-114753167D01*
X157051149Y-114630454D01*
X157054099Y-114499279D01*
X157031186Y-114396235D01*
X156978030Y-114296049D01*
X156899492Y-114206032D01*
X156805581Y-114134199D01*
X156706305Y-114088559D01*
X156631542Y-114076298D01*
X156601146Y-114077671D01*
X156583752Y-114088538D01*
X156575730Y-114118106D01*
X156573453Y-114175585D01*
X156573333Y-114224000D01*
X156575034Y-114303724D01*
X156581369Y-114349406D01*
X156594184Y-114369245D01*
X156606711Y-114372167D01*
X156654264Y-114390130D01*
X156703545Y-114435125D01*
X156743553Y-114493813D01*
X156763284Y-114552851D01*
X156763833Y-114562667D01*
X156744944Y-114635641D01*
X156701961Y-114691295D01*
X156640090Y-114753167D01*
X155747833Y-114753167D01*
X155747833Y-115049500D01*
X156208208Y-115049293D01*
G36*
X155767940Y-112664491D02*
G01*
X155769238Y-112716399D01*
X155769476Y-112879917D01*
X156033821Y-113004692D01*
X156129605Y-113050783D01*
X156209894Y-113091094D01*
X156267753Y-113122013D01*
X156296248Y-113139930D01*
X156298035Y-113142276D01*
X156279466Y-113154394D01*
X156228673Y-113178649D01*
X156152876Y-113211801D01*
X156059291Y-113250610D01*
X156033713Y-113260917D01*
X155769523Y-113366750D01*
X155769261Y-113532041D01*
X155771132Y-113607913D01*
X155776332Y-113662549D01*
X155783848Y-113686664D01*
X155786146Y-113686735D01*
X155807844Y-113677201D01*
X155863046Y-113653939D01*
X155946091Y-113619286D01*
X156051317Y-113575578D01*
X156173062Y-113525152D01*
X156305664Y-113470347D01*
X156443462Y-113413498D01*
X156580793Y-113356944D01*
X156711996Y-113303020D01*
X156831410Y-113254065D01*
X156933371Y-113212416D01*
X157012220Y-113180409D01*
X157033708Y-113171756D01*
X157049651Y-113144445D01*
X157058321Y-113077470D01*
X157060167Y-113003226D01*
X157059152Y-112922718D01*
X157054766Y-112876588D01*
X157044996Y-112856900D01*
X157027828Y-112855719D01*
X157023082Y-112857084D01*
X156985957Y-112870842D01*
X156922979Y-112896029D01*
X156847211Y-112927411D01*
X156840725Y-112930144D01*
X156695452Y-112991433D01*
X156279851Y-112790744D01*
X156125291Y-112715685D01*
X156005094Y-112657332D01*
X155915001Y-112615063D01*
X155850747Y-112588259D01*
X155808074Y-112576300D01*
X155782717Y-112578563D01*
X155770417Y-112594430D01*
X155766912Y-112623280D01*
X155767940Y-112664491D01*
G37*
X155767940Y-112664491D02*
X155769238Y-112716399D01*
X155769476Y-112879917D01*
X156033821Y-113004692D01*
X156129605Y-113050783D01*
X156209894Y-113091094D01*
X156267753Y-113122013D01*
X156296248Y-113139930D01*
X156298035Y-113142276D01*
X156279466Y-113154394D01*
X156228673Y-113178649D01*
X156152876Y-113211801D01*
X156059291Y-113250610D01*
X156033713Y-113260917D01*
X155769523Y-113366750D01*
X155769261Y-113532041D01*
X155771132Y-113607913D01*
X155776332Y-113662549D01*
X155783848Y-113686664D01*
X155786146Y-113686735D01*
X155807844Y-113677201D01*
X155863046Y-113653939D01*
X155946091Y-113619286D01*
X156051317Y-113575578D01*
X156173062Y-113525152D01*
X156305664Y-113470347D01*
X156443462Y-113413498D01*
X156580793Y-113356944D01*
X156711996Y-113303020D01*
X156831410Y-113254065D01*
X156933371Y-113212416D01*
X157012220Y-113180409D01*
X157033708Y-113171756D01*
X157049651Y-113144445D01*
X157058321Y-113077470D01*
X157060167Y-113003226D01*
X157059152Y-112922718D01*
X157054766Y-112876588D01*
X157044996Y-112856900D01*
X157027828Y-112855719D01*
X157023082Y-112857084D01*
X156985957Y-112870842D01*
X156922979Y-112896029D01*
X156847211Y-112927411D01*
X156840725Y-112930144D01*
X156695452Y-112991433D01*
X156279851Y-112790744D01*
X156125291Y-112715685D01*
X156005094Y-112657332D01*
X155915001Y-112615063D01*
X155850747Y-112588259D01*
X155808074Y-112576300D01*
X155782717Y-112578563D01*
X155770417Y-112594430D01*
X155766912Y-112623280D01*
X155767940Y-112664491D01*
G36*
X156065333Y-112488334D02*
G01*
X156065333Y-111959167D01*
X156255833Y-111959167D01*
X156255833Y-112382500D01*
X156552167Y-112382500D01*
X156552167Y-111959167D01*
X156763833Y-111959167D01*
X156763833Y-112488334D01*
X157060167Y-112488334D01*
X157060167Y-111662834D01*
X155769000Y-111662834D01*
X155769000Y-112488334D01*
X156065333Y-112488334D01*
G37*
X156065333Y-112488334D02*
X156065333Y-111959167D01*
X156255833Y-111959167D01*
X156255833Y-112382500D01*
X156552167Y-112382500D01*
X156552167Y-111959167D01*
X156763833Y-111959167D01*
X156763833Y-112488334D01*
X157060167Y-112488334D01*
X157060167Y-111662834D01*
X155769000Y-111662834D01*
X155769000Y-112488334D01*
X156065333Y-112488334D01*
G36*
X155785936Y-111057544D02*
G01*
X155820390Y-111182956D01*
X155830868Y-111206118D01*
X155921628Y-111344049D01*
X156043065Y-111456960D01*
X156141048Y-111516299D01*
X156261145Y-111555958D01*
X156399299Y-111570958D01*
X156539191Y-111561297D01*
X156664503Y-111526973D01*
X156687959Y-111516376D01*
X156815638Y-111432472D01*
X156925492Y-111319595D01*
X156998353Y-111204266D01*
X157033221Y-111099806D01*
X157051395Y-110975596D01*
X157051543Y-110850332D01*
X157032334Y-110742710D01*
X157031425Y-110739889D01*
X156964081Y-110594137D01*
X156870540Y-110476584D01*
X156756516Y-110387616D01*
X156627728Y-110327618D01*
X156489889Y-110296973D01*
X156414583Y-110296491D01*
X156414583Y-110584030D01*
X156522662Y-110603805D01*
X156619501Y-110657813D01*
X156697128Y-110738081D01*
X156747569Y-110836636D01*
X156763137Y-110932584D01*
X156750505Y-111013869D01*
X156718382Y-111096131D01*
X156715429Y-111101485D01*
X156645620Y-111186527D01*
X156551583Y-111248459D01*
X156446846Y-111279203D01*
X156414583Y-111281137D01*
X156306505Y-111261362D01*
X156209665Y-111207354D01*
X156132038Y-111127086D01*
X156081597Y-111028531D01*
X156066030Y-110932584D01*
X156085804Y-110824505D01*
X156139812Y-110727665D01*
X156220081Y-110650038D01*
X156318635Y-110599598D01*
X156414583Y-110584030D01*
X156414583Y-110296491D01*
X156348716Y-110296068D01*
X156209924Y-110325287D01*
X156079230Y-110385014D01*
X155962350Y-110475636D01*
X155864999Y-110597535D01*
X155830868Y-110659049D01*
X155791175Y-110779271D01*
X155776198Y-110917543D01*
X155785936Y-111057544D01*
G37*
X155785936Y-111057544D02*
X155820390Y-111182956D01*
X155830868Y-111206118D01*
X155921628Y-111344049D01*
X156043065Y-111456960D01*
X156141048Y-111516299D01*
X156261145Y-111555958D01*
X156399299Y-111570958D01*
X156539191Y-111561297D01*
X156664503Y-111526973D01*
X156687959Y-111516376D01*
X156815638Y-111432472D01*
X156925492Y-111319595D01*
X156998353Y-111204266D01*
X157033221Y-111099806D01*
X157051395Y-110975596D01*
X157051543Y-110850332D01*
X157032334Y-110742710D01*
X157031425Y-110739889D01*
X156964081Y-110594137D01*
X156870540Y-110476584D01*
X156756516Y-110387616D01*
X156627728Y-110327618D01*
X156489889Y-110296973D01*
X156414583Y-110296491D01*
X156414583Y-110584030D01*
X156522662Y-110603805D01*
X156619501Y-110657813D01*
X156697128Y-110738081D01*
X156747569Y-110836636D01*
X156763137Y-110932584D01*
X156750505Y-111013869D01*
X156718382Y-111096131D01*
X156715429Y-111101485D01*
X156645620Y-111186527D01*
X156551583Y-111248459D01*
X156446846Y-111279203D01*
X156414583Y-111281137D01*
X156306505Y-111261362D01*
X156209665Y-111207354D01*
X156132038Y-111127086D01*
X156081597Y-111028531D01*
X156066030Y-110932584D01*
X156085804Y-110824505D01*
X156139812Y-110727665D01*
X156220081Y-110650038D01*
X156318635Y-110599598D01*
X156414583Y-110584030D01*
X156414583Y-110296491D01*
X156348716Y-110296068D01*
X156209924Y-110325287D01*
X156079230Y-110385014D01*
X155962350Y-110475636D01*
X155864999Y-110597535D01*
X155830868Y-110659049D01*
X155791175Y-110779271D01*
X155776198Y-110917543D01*
X155785936Y-111057544D01*
G36*
X156208208Y-110202127D02*
G01*
X156360298Y-110201846D01*
X156476590Y-110200774D01*
X156563618Y-110198332D01*
X156627916Y-110193941D01*
X156676019Y-110187023D01*
X156714462Y-110177000D01*
X156749779Y-110163294D01*
X156774417Y-110152011D01*
X156876311Y-110093167D01*
X156949823Y-110021226D01*
X157008383Y-109922517D01*
X157016055Y-109906000D01*
X157051149Y-109783287D01*
X157054099Y-109652112D01*
X157031186Y-109549068D01*
X156978030Y-109448882D01*
X156899492Y-109358866D01*
X156805581Y-109287032D01*
X156706305Y-109241392D01*
X156631542Y-109229132D01*
X156601146Y-109230505D01*
X156583752Y-109241371D01*
X156575730Y-109270940D01*
X156573453Y-109328419D01*
X156573333Y-109376834D01*
X156575034Y-109456557D01*
X156581369Y-109502239D01*
X156594184Y-109522078D01*
X156606711Y-109525000D01*
X156654264Y-109542963D01*
X156703545Y-109587959D01*
X156743553Y-109646646D01*
X156763284Y-109705684D01*
X156763833Y-109715500D01*
X156744944Y-109788474D01*
X156701961Y-109844128D01*
X156640090Y-109906000D01*
X155747833Y-109906000D01*
X155747833Y-110202334D01*
X156208208Y-110202127D01*
G37*
X156208208Y-110202127D02*
X156360298Y-110201846D01*
X156476590Y-110200774D01*
X156563618Y-110198332D01*
X156627916Y-110193941D01*
X156676019Y-110187023D01*
X156714462Y-110177000D01*
X156749779Y-110163294D01*
X156774417Y-110152011D01*
X156876311Y-110093167D01*
X156949823Y-110021226D01*
X157008383Y-109922517D01*
X157016055Y-109906000D01*
X157051149Y-109783287D01*
X157054099Y-109652112D01*
X157031186Y-109549068D01*
X156978030Y-109448882D01*
X156899492Y-109358866D01*
X156805581Y-109287032D01*
X156706305Y-109241392D01*
X156631542Y-109229132D01*
X156601146Y-109230505D01*
X156583752Y-109241371D01*
X156575730Y-109270940D01*
X156573453Y-109328419D01*
X156573333Y-109376834D01*
X156575034Y-109456557D01*
X156581369Y-109502239D01*
X156594184Y-109522078D01*
X156606711Y-109525000D01*
X156654264Y-109542963D01*
X156703545Y-109587959D01*
X156743553Y-109646646D01*
X156763284Y-109705684D01*
X156763833Y-109715500D01*
X156744944Y-109788474D01*
X156701961Y-109844128D01*
X156640090Y-109906000D01*
X155747833Y-109906000D01*
X155747833Y-110202334D01*
X156208208Y-110202127D01*
G36*
X147579080Y-96662847D02*
G01*
X147579080Y-95816180D01*
X150986913Y-95816180D01*
X150986913Y-94800180D01*
X147579080Y-94800180D01*
X147579080Y-93953513D01*
X146563080Y-93953513D01*
X146563080Y-96662847D01*
X147579080Y-96662847D01*
G37*
X147579080Y-96662847D02*
X147579080Y-95816180D01*
X150986913Y-95816180D01*
X150986913Y-94800180D01*
X147579080Y-94800180D01*
X147579080Y-93953513D01*
X146563080Y-93953513D01*
X146563080Y-96662847D01*
X147579080Y-96662847D01*
G36*
X148319913Y-98017513D02*
G01*
X148319913Y-99287513D01*
X146584247Y-99287513D01*
X146584247Y-100303513D01*
X150986913Y-100303513D01*
X150986913Y-99287513D01*
X149335913Y-99287513D01*
X149335913Y-98017513D01*
X150986913Y-98017513D01*
X150986913Y-97001513D01*
X146584247Y-97001513D01*
X146584247Y-98017513D01*
X148319913Y-98017513D01*
G37*
X148319913Y-98017513D02*
X148319913Y-99287513D01*
X146584247Y-99287513D01*
X146584247Y-100303513D01*
X150986913Y-100303513D01*
X150986913Y-99287513D01*
X149335913Y-99287513D01*
X149335913Y-98017513D01*
X150986913Y-98017513D01*
X150986913Y-97001513D01*
X146584247Y-97001513D01*
X146584247Y-98017513D01*
X148319913Y-98017513D01*
G36*
X146588126Y-102410648D02*
G01*
X146589147Y-102501678D01*
X146594830Y-102980512D01*
X148774997Y-103684102D01*
X149068043Y-103778633D01*
X149349801Y-103869441D01*
X149617653Y-103955686D01*
X149868981Y-104036530D01*
X150101170Y-104111133D01*
X150311601Y-104178656D01*
X150497659Y-104238261D01*
X150656725Y-104289108D01*
X150786184Y-104330359D01*
X150883418Y-104361174D01*
X150945810Y-104380714D01*
X150970743Y-104388140D01*
X150971038Y-104388186D01*
X150975384Y-104368105D01*
X150979276Y-104311362D01*
X150982543Y-104223626D01*
X150985014Y-104110566D01*
X150986520Y-103977854D01*
X150986913Y-103861266D01*
X150986913Y-103333853D01*
X150457747Y-103157507D01*
X150457747Y-102460760D01*
X150458332Y-102272238D01*
X150460025Y-102108312D01*
X150462729Y-101972338D01*
X150466351Y-101867673D01*
X150470793Y-101797673D01*
X150475962Y-101765696D01*
X150477543Y-101764013D01*
X150504133Y-101757281D01*
X150562095Y-101738934D01*
X150642988Y-101711741D01*
X150738370Y-101678476D01*
X150742127Y-101677144D01*
X150986913Y-101590275D01*
X150986913Y-100517058D01*
X150896955Y-100549386D01*
X150864764Y-100560577D01*
X150795285Y-100584448D01*
X150691312Y-100620046D01*
X150555634Y-100666419D01*
X150391044Y-100722614D01*
X150200334Y-100787680D01*
X149986294Y-100860665D01*
X149751717Y-100940615D01*
X149499394Y-101026580D01*
X149415288Y-101055223D01*
X149415288Y-102129135D01*
X149425456Y-102134718D01*
X149432829Y-102163177D01*
X149437758Y-102219071D01*
X149440598Y-102306960D01*
X149441701Y-102431403D01*
X149441747Y-102470832D01*
X149440931Y-102587461D01*
X149438673Y-102687730D01*
X149435257Y-102764684D01*
X149430966Y-102811372D01*
X149427418Y-102822347D01*
X149400759Y-102816057D01*
X149341672Y-102798624D01*
X149256693Y-102772205D01*
X149152357Y-102738953D01*
X149035201Y-102701024D01*
X148911760Y-102660574D01*
X148788571Y-102619757D01*
X148672169Y-102580729D01*
X148569091Y-102545646D01*
X148485873Y-102516661D01*
X148429050Y-102495932D01*
X148405158Y-102485612D01*
X148404812Y-102485140D01*
X148424048Y-102475304D01*
X148478001Y-102454026D01*
X148561238Y-102423283D01*
X148668326Y-102385052D01*
X148793832Y-102341311D01*
X148896937Y-102306025D01*
X149034411Y-102259298D01*
X149159239Y-102216808D01*
X149265609Y-102180538D01*
X149347706Y-102152471D01*
X149399720Y-102134591D01*
X149415288Y-102129135D01*
X149415288Y-101055223D01*
X149232116Y-101117606D01*
X148952675Y-101212742D01*
X148732663Y-101287623D01*
X148447106Y-101384818D01*
X148172465Y-101478333D01*
X147911442Y-101567246D01*
X147666737Y-101650635D01*
X147441052Y-101727580D01*
X147237087Y-101797158D01*
X147057543Y-101858447D01*
X146905120Y-101910528D01*
X146782520Y-101952477D01*
X146692443Y-101983373D01*
X146637590Y-102002295D01*
X146620897Y-102008187D01*
X146608824Y-102015745D01*
X146599778Y-102031195D01*
X146593421Y-102059789D01*
X146589415Y-102106778D01*
X146587423Y-102177417D01*
X146587106Y-102276956D01*
X146588126Y-102410648D01*
G37*
X146588126Y-102410648D02*
X146589147Y-102501678D01*
X146594830Y-102980512D01*
X148774997Y-103684102D01*
X149068043Y-103778633D01*
X149349801Y-103869441D01*
X149617653Y-103955686D01*
X149868981Y-104036530D01*
X150101170Y-104111133D01*
X150311601Y-104178656D01*
X150497659Y-104238261D01*
X150656725Y-104289108D01*
X150786184Y-104330359D01*
X150883418Y-104361174D01*
X150945810Y-104380714D01*
X150970743Y-104388140D01*
X150971038Y-104388186D01*
X150975384Y-104368105D01*
X150979276Y-104311362D01*
X150982543Y-104223626D01*
X150985014Y-104110566D01*
X150986520Y-103977854D01*
X150986913Y-103861266D01*
X150986913Y-103333853D01*
X150457747Y-103157507D01*
X150457747Y-102460760D01*
X150458332Y-102272238D01*
X150460025Y-102108312D01*
X150462729Y-101972338D01*
X150466351Y-101867673D01*
X150470793Y-101797673D01*
X150475962Y-101765696D01*
X150477543Y-101764013D01*
X150504133Y-101757281D01*
X150562095Y-101738934D01*
X150642988Y-101711741D01*
X150738370Y-101678476D01*
X150742127Y-101677144D01*
X150986913Y-101590275D01*
X150986913Y-100517058D01*
X150896955Y-100549386D01*
X150864764Y-100560577D01*
X150795285Y-100584448D01*
X150691312Y-100620046D01*
X150555634Y-100666419D01*
X150391044Y-100722614D01*
X150200334Y-100787680D01*
X149986294Y-100860665D01*
X149751717Y-100940615D01*
X149499394Y-101026580D01*
X149415288Y-101055223D01*
X149415288Y-102129135D01*
X149425456Y-102134718D01*
X149432829Y-102163177D01*
X149437758Y-102219071D01*
X149440598Y-102306960D01*
X149441701Y-102431403D01*
X149441747Y-102470832D01*
X149440931Y-102587461D01*
X149438673Y-102687730D01*
X149435257Y-102764684D01*
X149430966Y-102811372D01*
X149427418Y-102822347D01*
X149400759Y-102816057D01*
X149341672Y-102798624D01*
X149256693Y-102772205D01*
X149152357Y-102738953D01*
X149035201Y-102701024D01*
X148911760Y-102660574D01*
X148788571Y-102619757D01*
X148672169Y-102580729D01*
X148569091Y-102545646D01*
X148485873Y-102516661D01*
X148429050Y-102495932D01*
X148405158Y-102485612D01*
X148404812Y-102485140D01*
X148424048Y-102475304D01*
X148478001Y-102454026D01*
X148561238Y-102423283D01*
X148668326Y-102385052D01*
X148793832Y-102341311D01*
X148896937Y-102306025D01*
X149034411Y-102259298D01*
X149159239Y-102216808D01*
X149265609Y-102180538D01*
X149347706Y-102152471D01*
X149399720Y-102134591D01*
X149415288Y-102129135D01*
X149415288Y-101055223D01*
X149232116Y-101117606D01*
X148952675Y-101212742D01*
X148732663Y-101287623D01*
X148447106Y-101384818D01*
X148172465Y-101478333D01*
X147911442Y-101567246D01*
X147666737Y-101650635D01*
X147441052Y-101727580D01*
X147237087Y-101797158D01*
X147057543Y-101858447D01*
X146905120Y-101910528D01*
X146782520Y-101952477D01*
X146692443Y-101983373D01*
X146637590Y-102002295D01*
X146620897Y-102008187D01*
X146608824Y-102015745D01*
X146599778Y-102031195D01*
X146593421Y-102059789D01*
X146589415Y-102106778D01*
X146587423Y-102177417D01*
X146587106Y-102276956D01*
X146588126Y-102410648D01*
G36*
X150987616Y-108262180D02*
G01*
X150981973Y-107709929D01*
X150976330Y-107157679D01*
X148438694Y-105732763D01*
X149712803Y-105727306D01*
X150986913Y-105721849D01*
X150986913Y-104706180D01*
X146604710Y-104706180D01*
X146610353Y-105261555D01*
X146615997Y-105816929D01*
X147877471Y-106526263D01*
X149138946Y-107235597D01*
X147861596Y-107241052D01*
X146584247Y-107246508D01*
X146584247Y-108262180D01*
X150987616Y-108262180D01*
G37*
X150987616Y-108262180D02*
X150981973Y-107709929D01*
X150976330Y-107157679D01*
X148438694Y-105732763D01*
X149712803Y-105727306D01*
X150986913Y-105721849D01*
X150986913Y-104706180D01*
X146604710Y-104706180D01*
X146610353Y-105261555D01*
X146615997Y-105816929D01*
X147877471Y-106526263D01*
X149138946Y-107235597D01*
X147861596Y-107241052D01*
X146584247Y-107246508D01*
X146584247Y-108262180D01*
X150987616Y-108262180D01*
G36*
X147273807Y-109833516D02*
G01*
X147963368Y-109839097D01*
X147273807Y-110542627D01*
X146584247Y-111246157D01*
X146584247Y-112703151D01*
X147300665Y-111969624D01*
X147460779Y-111805725D01*
X147626146Y-111636517D01*
X147791483Y-111467402D01*
X147951508Y-111303782D01*
X148100935Y-111151059D01*
X148234481Y-111014634D01*
X148346863Y-110899910D01*
X148401174Y-110844513D01*
X148785265Y-110452930D01*
X149245797Y-110919889D01*
X149367676Y-111043706D01*
X149512349Y-111191075D01*
X149673133Y-111355162D01*
X149843343Y-111529138D01*
X150016296Y-111706169D01*
X150185307Y-111879424D01*
X150343694Y-112042071D01*
X150346622Y-112045081D01*
X150986913Y-112703314D01*
X150985909Y-111969705D01*
X150984905Y-111236097D01*
X149614757Y-109839097D01*
X150986913Y-109827935D01*
X150986913Y-108812513D01*
X146584247Y-108812513D01*
X146584247Y-109827935D01*
X147273807Y-109833516D01*
G37*
X147273807Y-109833516D02*
X147963368Y-109839097D01*
X147273807Y-110542627D01*
X146584247Y-111246157D01*
X146584247Y-112703151D01*
X147300665Y-111969624D01*
X147460779Y-111805725D01*
X147626146Y-111636517D01*
X147791483Y-111467402D01*
X147951508Y-111303782D01*
X148100935Y-111151059D01*
X148234481Y-111014634D01*
X148346863Y-110899910D01*
X148401174Y-110844513D01*
X148785265Y-110452930D01*
X149245797Y-110919889D01*
X149367676Y-111043706D01*
X149512349Y-111191075D01*
X149673133Y-111355162D01*
X149843343Y-111529138D01*
X150016296Y-111706169D01*
X150185307Y-111879424D01*
X150343694Y-112042071D01*
X150346622Y-112045081D01*
X150986913Y-112703314D01*
X150985909Y-111969705D01*
X150984905Y-111236097D01*
X149614757Y-109839097D01*
X150986913Y-109827935D01*
X150986913Y-108812513D01*
X146584247Y-108812513D01*
X146584247Y-109827935D01*
X147273807Y-109833516D01*
G36*
X146563848Y-114601597D02*
G01*
X147505269Y-115046097D01*
X147691129Y-115134071D01*
X147864818Y-115216707D01*
X148022676Y-115292233D01*
X148161043Y-115358879D01*
X148276259Y-115414873D01*
X148364664Y-115458444D01*
X148422598Y-115487821D01*
X148446401Y-115501232D01*
X148446802Y-115501745D01*
X148427814Y-115511652D01*
X148373338Y-115535749D01*
X148287170Y-115572457D01*
X148173109Y-115620194D01*
X148034953Y-115677382D01*
X147876500Y-115742441D01*
X147701546Y-115813792D01*
X147513891Y-115889855D01*
X147505296Y-115893328D01*
X146563679Y-116273763D01*
X146563379Y-116820231D01*
X146563449Y-116986419D01*
X146564076Y-117114931D01*
X146565579Y-117210421D01*
X146568280Y-117277546D01*
X146572499Y-117320961D01*
X146578554Y-117345323D01*
X146586767Y-117355287D01*
X146597457Y-117355509D01*
X146600122Y-117354729D01*
X146624302Y-117345284D01*
X146685126Y-117320877D01*
X146780042Y-117282544D01*
X146906500Y-117231322D01*
X147061950Y-117168248D01*
X147243841Y-117094359D01*
X147449621Y-117010691D01*
X147676742Y-116918281D01*
X147922651Y-116818165D01*
X148184799Y-116711381D01*
X148460635Y-116598965D01*
X148747608Y-116481954D01*
X148806747Y-116457834D01*
X150976330Y-115572909D01*
X150981971Y-115019471D01*
X150987612Y-114466034D01*
X150876138Y-114515207D01*
X150803523Y-114546524D01*
X150707020Y-114587101D01*
X150592621Y-114634518D01*
X150466319Y-114686357D01*
X150334104Y-114740201D01*
X150201968Y-114793629D01*
X150075905Y-114844225D01*
X149961904Y-114889571D01*
X149865959Y-114927246D01*
X149794061Y-114954834D01*
X149752202Y-114969916D01*
X149744317Y-114972013D01*
X149722850Y-114963203D01*
X149666329Y-114937776D01*
X149577957Y-114897237D01*
X149460938Y-114843090D01*
X149318478Y-114776841D01*
X149153779Y-114699993D01*
X148970046Y-114614051D01*
X148770484Y-114520521D01*
X148558295Y-114420906D01*
X148336685Y-114316712D01*
X148108857Y-114209443D01*
X147878015Y-114100603D01*
X147647364Y-113991698D01*
X147420108Y-113884232D01*
X147199450Y-113779710D01*
X146988595Y-113679636D01*
X146790747Y-113585516D01*
X146716538Y-113550144D01*
X146563080Y-113476951D01*
X146563848Y-114601597D01*
G37*
X146563848Y-114601597D02*
X147505269Y-115046097D01*
X147691129Y-115134071D01*
X147864818Y-115216707D01*
X148022676Y-115292233D01*
X148161043Y-115358879D01*
X148276259Y-115414873D01*
X148364664Y-115458444D01*
X148422598Y-115487821D01*
X148446401Y-115501232D01*
X148446802Y-115501745D01*
X148427814Y-115511652D01*
X148373338Y-115535749D01*
X148287170Y-115572457D01*
X148173109Y-115620194D01*
X148034953Y-115677382D01*
X147876500Y-115742441D01*
X147701546Y-115813792D01*
X147513891Y-115889855D01*
X147505296Y-115893328D01*
X146563679Y-116273763D01*
X146563379Y-116820231D01*
X146563449Y-116986419D01*
X146564076Y-117114931D01*
X146565579Y-117210421D01*
X146568280Y-117277546D01*
X146572499Y-117320961D01*
X146578554Y-117345323D01*
X146586767Y-117355287D01*
X146597457Y-117355509D01*
X146600122Y-117354729D01*
X146624302Y-117345284D01*
X146685126Y-117320877D01*
X146780042Y-117282544D01*
X146906500Y-117231322D01*
X147061950Y-117168248D01*
X147243841Y-117094359D01*
X147449621Y-117010691D01*
X147676742Y-116918281D01*
X147922651Y-116818165D01*
X148184799Y-116711381D01*
X148460635Y-116598965D01*
X148747608Y-116481954D01*
X148806747Y-116457834D01*
X150976330Y-115572909D01*
X150981971Y-115019471D01*
X150987612Y-114466034D01*
X150876138Y-114515207D01*
X150803523Y-114546524D01*
X150707020Y-114587101D01*
X150592621Y-114634518D01*
X150466319Y-114686357D01*
X150334104Y-114740201D01*
X150201968Y-114793629D01*
X150075905Y-114844225D01*
X149961904Y-114889571D01*
X149865959Y-114927246D01*
X149794061Y-114954834D01*
X149752202Y-114969916D01*
X149744317Y-114972013D01*
X149722850Y-114963203D01*
X149666329Y-114937776D01*
X149577957Y-114897237D01*
X149460938Y-114843090D01*
X149318478Y-114776841D01*
X149153779Y-114699993D01*
X148970046Y-114614051D01*
X148770484Y-114520521D01*
X148558295Y-114420906D01*
X148336685Y-114316712D01*
X148108857Y-114209443D01*
X147878015Y-114100603D01*
X147647364Y-113991698D01*
X147420108Y-113884232D01*
X147199450Y-113779710D01*
X146988595Y-113679636D01*
X146790747Y-113585516D01*
X146716538Y-113550144D01*
X146563080Y-113476951D01*
X146563848Y-114601597D01*
G36*
X146594864Y-120054715D02*
G01*
X146638430Y-120346711D01*
X146719879Y-120628032D01*
X146837107Y-120895044D01*
X146988008Y-121144111D01*
X147170478Y-121371599D01*
X147382412Y-121573873D01*
X147621704Y-121747297D01*
X147803659Y-121849233D01*
X148064952Y-121961856D01*
X148323401Y-122036027D01*
X148588577Y-122073766D01*
X148870050Y-122077093D01*
X148880830Y-122076586D01*
X149186966Y-122043324D01*
X149471678Y-121974024D01*
X149737239Y-121867725D01*
X149985925Y-121723467D01*
X150220012Y-121540287D01*
X150278805Y-121486127D01*
X150493384Y-121255059D01*
X150669976Y-121006565D01*
X150807971Y-120742065D01*
X150906759Y-120462978D01*
X150965731Y-120170724D01*
X150984277Y-119866721D01*
X150984031Y-119844107D01*
X150981755Y-119753374D01*
X150978234Y-119673346D01*
X150974116Y-119617706D01*
X150972814Y-119607513D01*
X150903777Y-119294029D01*
X150799534Y-119002374D01*
X150661371Y-118734211D01*
X150490575Y-118491201D01*
X150288433Y-118275008D01*
X150056232Y-118087294D01*
X149795258Y-117929719D01*
X149606459Y-117842455D01*
X149442162Y-117780981D01*
X149287546Y-117737675D01*
X149129283Y-117710097D01*
X148954043Y-117695811D01*
X148785580Y-117692299D01*
X148785580Y-118697972D01*
X149000912Y-118718089D01*
X149204000Y-118775960D01*
X149391098Y-118867868D01*
X149558460Y-118990098D01*
X149702342Y-119138931D01*
X149818995Y-119310650D01*
X149904676Y-119501540D01*
X149955637Y-119707882D01*
X149968837Y-119872097D01*
X149964458Y-119974605D01*
X149951634Y-120085055D01*
X149938371Y-120155664D01*
X149869694Y-120358058D01*
X149765884Y-120542372D01*
X149631625Y-120704900D01*
X149471601Y-120841938D01*
X149290497Y-120949781D01*
X149092996Y-121024724D01*
X148883782Y-121063063D01*
X148785580Y-121067387D01*
X148571183Y-121047240D01*
X148368641Y-120989329D01*
X148181748Y-120897446D01*
X148014299Y-120775385D01*
X147870087Y-120626941D01*
X147752905Y-120455908D01*
X147666547Y-120266078D01*
X147614807Y-120061246D01*
X147600872Y-119882680D01*
X147621019Y-119668283D01*
X147678931Y-119465741D01*
X147770814Y-119278848D01*
X147892874Y-119111399D01*
X148041318Y-118967187D01*
X148212352Y-118850005D01*
X148402182Y-118763647D01*
X148607014Y-118711907D01*
X148785580Y-118697972D01*
X148785580Y-117692299D01*
X148587966Y-117696832D01*
X148418273Y-117712596D01*
X148263003Y-117742062D01*
X148108661Y-117787701D01*
X147964383Y-117842586D01*
X147689188Y-117977589D01*
X147439725Y-118144352D01*
X147218074Y-118339976D01*
X147026316Y-118561562D01*
X146866532Y-118806212D01*
X146740803Y-119071026D01*
X146651208Y-119353106D01*
X146599829Y-119649552D01*
X146591288Y-119755680D01*
X146594864Y-120054715D01*
G37*
X146594864Y-120054715D02*
X146638430Y-120346711D01*
X146719879Y-120628032D01*
X146837107Y-120895044D01*
X146988008Y-121144111D01*
X147170478Y-121371599D01*
X147382412Y-121573873D01*
X147621704Y-121747297D01*
X147803659Y-121849233D01*
X148064952Y-121961856D01*
X148323401Y-122036027D01*
X148588577Y-122073766D01*
X148870050Y-122077093D01*
X148880830Y-122076586D01*
X149186966Y-122043324D01*
X149471678Y-121974024D01*
X149737239Y-121867725D01*
X149985925Y-121723467D01*
X150220012Y-121540287D01*
X150278805Y-121486127D01*
X150493384Y-121255059D01*
X150669976Y-121006565D01*
X150807971Y-120742065D01*
X150906759Y-120462978D01*
X150965731Y-120170724D01*
X150984277Y-119866721D01*
X150984031Y-119844107D01*
X150981755Y-119753374D01*
X150978234Y-119673346D01*
X150974116Y-119617706D01*
X150972814Y-119607513D01*
X150903777Y-119294029D01*
X150799534Y-119002374D01*
X150661371Y-118734211D01*
X150490575Y-118491201D01*
X150288433Y-118275008D01*
X150056232Y-118087294D01*
X149795258Y-117929719D01*
X149606459Y-117842455D01*
X149442162Y-117780981D01*
X149287546Y-117737675D01*
X149129283Y-117710097D01*
X148954043Y-117695811D01*
X148785580Y-117692299D01*
X148785580Y-118697972D01*
X149000912Y-118718089D01*
X149204000Y-118775960D01*
X149391098Y-118867868D01*
X149558460Y-118990098D01*
X149702342Y-119138931D01*
X149818995Y-119310650D01*
X149904676Y-119501540D01*
X149955637Y-119707882D01*
X149968837Y-119872097D01*
X149964458Y-119974605D01*
X149951634Y-120085055D01*
X149938371Y-120155664D01*
X149869694Y-120358058D01*
X149765884Y-120542372D01*
X149631625Y-120704900D01*
X149471601Y-120841938D01*
X149290497Y-120949781D01*
X149092996Y-121024724D01*
X148883782Y-121063063D01*
X148785580Y-121067387D01*
X148571183Y-121047240D01*
X148368641Y-120989329D01*
X148181748Y-120897446D01*
X148014299Y-120775385D01*
X147870087Y-120626941D01*
X147752905Y-120455908D01*
X147666547Y-120266078D01*
X147614807Y-120061246D01*
X147600872Y-119882680D01*
X147621019Y-119668283D01*
X147678931Y-119465741D01*
X147770814Y-119278848D01*
X147892874Y-119111399D01*
X148041318Y-118967187D01*
X148212352Y-118850005D01*
X148402182Y-118763647D01*
X148607014Y-118711907D01*
X148785580Y-118697972D01*
X148785580Y-117692299D01*
X148587966Y-117696832D01*
X148418273Y-117712596D01*
X148263003Y-117742062D01*
X148108661Y-117787701D01*
X147964383Y-117842586D01*
X147689188Y-117977589D01*
X147439725Y-118144352D01*
X147218074Y-118339976D01*
X147026316Y-118561562D01*
X146866532Y-118806212D01*
X146740803Y-119071026D01*
X146651208Y-119353106D01*
X146599829Y-119649552D01*
X146591288Y-119755680D01*
X146594864Y-120054715D01*
G36*
X147998571Y-123396347D02*
G01*
X148292129Y-123396332D01*
X148546511Y-123396485D01*
X148764875Y-123397099D01*
X148950379Y-123398470D01*
X149106181Y-123400890D01*
X149235438Y-123404654D01*
X149341308Y-123410056D01*
X149426949Y-123417390D01*
X149495519Y-123426952D01*
X149550175Y-123439034D01*
X149594075Y-123453930D01*
X149630376Y-123471936D01*
X149662237Y-123493346D01*
X149692815Y-123518452D01*
X149725268Y-123547551D01*
X149737194Y-123558320D01*
X149841880Y-123667727D01*
X149910342Y-123779698D01*
X149947738Y-123905717D01*
X149959213Y-124052513D01*
X149957472Y-124151411D01*
X149949338Y-124222677D01*
X149932231Y-124280837D01*
X149910358Y-124327680D01*
X149816370Y-124465779D01*
X149693814Y-124581690D01*
X149600497Y-124641717D01*
X149494663Y-124698097D01*
X146584247Y-124709803D01*
X146584247Y-125724680D01*
X148035056Y-125724680D01*
X148335211Y-125724603D01*
X148596355Y-125724235D01*
X148821813Y-125723371D01*
X149014906Y-125721808D01*
X149178958Y-125719340D01*
X149317291Y-125715762D01*
X149433230Y-125710870D01*
X149530095Y-125704460D01*
X149611212Y-125696326D01*
X149679902Y-125686264D01*
X149739488Y-125674069D01*
X149793294Y-125659537D01*
X149844642Y-125642463D01*
X149896856Y-125622642D01*
X149933969Y-125607727D01*
X150160848Y-125493212D01*
X150368774Y-125343789D01*
X150553574Y-125164222D01*
X150711075Y-124959272D01*
X150837105Y-124733703D01*
X150927492Y-124492276D01*
X150934996Y-124465263D01*
X150953208Y-124371386D01*
X150966954Y-124249872D01*
X150975628Y-124114628D01*
X150978624Y-123979559D01*
X150975339Y-123858569D01*
X150965388Y-123766763D01*
X150899821Y-123520223D01*
X150797456Y-123286799D01*
X150662061Y-123071108D01*
X150497402Y-122877766D01*
X150307248Y-122711389D01*
X150095364Y-122576595D01*
X149933742Y-122502570D01*
X149874071Y-122479740D01*
X149818580Y-122459945D01*
X149763884Y-122442968D01*
X149706597Y-122428594D01*
X149643334Y-122416606D01*
X149570709Y-122406788D01*
X149485339Y-122398923D01*
X149383836Y-122392794D01*
X149262817Y-122388186D01*
X149118896Y-122384882D01*
X148948687Y-122382666D01*
X148748805Y-122381321D01*
X148515865Y-122380630D01*
X148246482Y-122380378D01*
X148021718Y-122380347D01*
X146584247Y-122380347D01*
X146584247Y-123396347D01*
X147998571Y-123396347D01*
G37*
X147998571Y-123396347D02*
X148292129Y-123396332D01*
X148546511Y-123396485D01*
X148764875Y-123397099D01*
X148950379Y-123398470D01*
X149106181Y-123400890D01*
X149235438Y-123404654D01*
X149341308Y-123410056D01*
X149426949Y-123417390D01*
X149495519Y-123426952D01*
X149550175Y-123439034D01*
X149594075Y-123453930D01*
X149630376Y-123471936D01*
X149662237Y-123493346D01*
X149692815Y-123518452D01*
X149725268Y-123547551D01*
X149737194Y-123558320D01*
X149841880Y-123667727D01*
X149910342Y-123779698D01*
X149947738Y-123905717D01*
X149959213Y-124052513D01*
X149957472Y-124151411D01*
X149949338Y-124222677D01*
X149932231Y-124280837D01*
X149910358Y-124327680D01*
X149816370Y-124465779D01*
X149693814Y-124581690D01*
X149600497Y-124641717D01*
X149494663Y-124698097D01*
X146584247Y-124709803D01*
X146584247Y-125724680D01*
X148035056Y-125724680D01*
X148335211Y-125724603D01*
X148596355Y-125724235D01*
X148821813Y-125723371D01*
X149014906Y-125721808D01*
X149178958Y-125719340D01*
X149317291Y-125715762D01*
X149433230Y-125710870D01*
X149530095Y-125704460D01*
X149611212Y-125696326D01*
X149679902Y-125686264D01*
X149739488Y-125674069D01*
X149793294Y-125659537D01*
X149844642Y-125642463D01*
X149896856Y-125622642D01*
X149933969Y-125607727D01*
X150160848Y-125493212D01*
X150368774Y-125343789D01*
X150553574Y-125164222D01*
X150711075Y-124959272D01*
X150837105Y-124733703D01*
X150927492Y-124492276D01*
X150934996Y-124465263D01*
X150953208Y-124371386D01*
X150966954Y-124249872D01*
X150975628Y-124114628D01*
X150978624Y-123979559D01*
X150975339Y-123858569D01*
X150965388Y-123766763D01*
X150899821Y-123520223D01*
X150797456Y-123286799D01*
X150662061Y-123071108D01*
X150497402Y-122877766D01*
X150307248Y-122711389D01*
X150095364Y-122576595D01*
X149933742Y-122502570D01*
X149874071Y-122479740D01*
X149818580Y-122459945D01*
X149763884Y-122442968D01*
X149706597Y-122428594D01*
X149643334Y-122416606D01*
X149570709Y-122406788D01*
X149485339Y-122398923D01*
X149383836Y-122392794D01*
X149262817Y-122388186D01*
X149118896Y-122384882D01*
X148948687Y-122382666D01*
X148748805Y-122381321D01*
X148515865Y-122380630D01*
X148246482Y-122380378D01*
X148021718Y-122380347D01*
X146584247Y-122380347D01*
X146584247Y-123396347D01*
X147998571Y-123396347D01*
G36*
X149965215Y-126947978D02*
G01*
X149978830Y-127023049D01*
X150005013Y-127087107D01*
X150006507Y-127089930D01*
X150090483Y-127207754D01*
X150195355Y-127293961D01*
X150314542Y-127348546D01*
X150441461Y-127371505D01*
X150569531Y-127362833D01*
X150692170Y-127322526D01*
X150802797Y-127250579D01*
X150894829Y-127146988D01*
X150928164Y-127090552D01*
X150955992Y-127012205D01*
X150974267Y-126913394D01*
X150981185Y-126811715D01*
X150974942Y-126724767D01*
X150968406Y-126698209D01*
X150905285Y-126563937D01*
X150817397Y-126458340D01*
X150710874Y-126382024D01*
X150591846Y-126335596D01*
X150466443Y-126319661D01*
X150340795Y-126334827D01*
X150221034Y-126381699D01*
X150113290Y-126460884D01*
X150023692Y-126572987D01*
X150006507Y-126603097D01*
X149979702Y-126667023D01*
X149965591Y-126741281D01*
X149961318Y-126841252D01*
X149961311Y-126846513D01*
X149965215Y-126947978D01*
G37*
X149965215Y-126947978D02*
X149978830Y-127023049D01*
X150005013Y-127087107D01*
X150006507Y-127089930D01*
X150090483Y-127207754D01*
X150195355Y-127293961D01*
X150314542Y-127348546D01*
X150441461Y-127371505D01*
X150569531Y-127362833D01*
X150692170Y-127322526D01*
X150802797Y-127250579D01*
X150894829Y-127146988D01*
X150928164Y-127090552D01*
X150955992Y-127012205D01*
X150974267Y-126913394D01*
X150981185Y-126811715D01*
X150974942Y-126724767D01*
X150968406Y-126698209D01*
X150905285Y-126563937D01*
X150817397Y-126458340D01*
X150710874Y-126382024D01*
X150591846Y-126335596D01*
X150466443Y-126319661D01*
X150340795Y-126334827D01*
X150221034Y-126381699D01*
X150113290Y-126460884D01*
X150023692Y-126572987D01*
X150006507Y-126603097D01*
X149979702Y-126667023D01*
X149965591Y-126741281D01*
X149961318Y-126841252D01*
X149961311Y-126846513D01*
X149965215Y-126947978D01*
G36*
X149462913Y-127354513D02*
G01*
X149462913Y-126338513D01*
X146499580Y-126338513D01*
X146499580Y-127354513D01*
X149462913Y-127354513D01*
G37*
X149462913Y-127354513D02*
X149462913Y-126338513D01*
X146499580Y-126338513D01*
X146499580Y-127354513D01*
X149462913Y-127354513D01*
D11*
G36*
X152070000Y-161963000D02*
G01*
X145618000Y-161963000D01*
X145618000Y-144521000D01*
X152070000Y-144521000D01*
X152070000Y-161963000D01*
G37*
G36*
X141190481Y-134570125D02*
G01*
X141523647Y-134671190D01*
X141830694Y-134835310D01*
X142099823Y-135056178D01*
X142320691Y-135325307D01*
X142484811Y-135632354D01*
X142585876Y-135965520D01*
X142620001Y-136312000D01*
X142620001Y-146312000D01*
X142585876Y-146658480D01*
X142484811Y-146991646D01*
X142320691Y-147298693D01*
X142099823Y-147567822D01*
X141830694Y-147788690D01*
X141523647Y-147952810D01*
X141190481Y-148053875D01*
X140844001Y-148088000D01*
X140843999Y-148088000D01*
X140497519Y-148053875D01*
X140164353Y-147952810D01*
X139857306Y-147788690D01*
X139588177Y-147567822D01*
X139367309Y-147298693D01*
X139203189Y-146991646D01*
X139102124Y-146658480D01*
X139067999Y-146312000D01*
X139067999Y-136312000D01*
X139102124Y-135965520D01*
X139203189Y-135632354D01*
X139367309Y-135325307D01*
X139588177Y-135056178D01*
X139857306Y-134835310D01*
X140164353Y-134671190D01*
X140497519Y-134570125D01*
X140843999Y-134536000D01*
X140844001Y-134536000D01*
X141190481Y-134570125D01*
G37*
G36*
X151194773Y-139325938D02*
G01*
X151322349Y-139378782D01*
X151437159Y-139455495D01*
X151534805Y-139553141D01*
X151611518Y-139667951D01*
X151664362Y-139795527D01*
X151691300Y-139930956D01*
X151691300Y-140069044D01*
X151664362Y-140204473D01*
X151611518Y-140332049D01*
X151534805Y-140446859D01*
X151437159Y-140544505D01*
X151322349Y-140621218D01*
X151194773Y-140674062D01*
X151059344Y-140701000D01*
X150921256Y-140701000D01*
X150785827Y-140674062D01*
X150658251Y-140621218D01*
X150543441Y-140544505D01*
X150445795Y-140446859D01*
X150369082Y-140332049D01*
X150316238Y-140204473D01*
X150289300Y-140069044D01*
X150289300Y-139930956D01*
X150316238Y-139795527D01*
X150369082Y-139667951D01*
X150445795Y-139553141D01*
X150543441Y-139455495D01*
X150658251Y-139378782D01*
X150785827Y-139325938D01*
X150921256Y-139299000D01*
X151059344Y-139299000D01*
X151194773Y-139325938D01*
G37*
G36*
X149035773Y-139325938D02*
G01*
X149163349Y-139378782D01*
X149278159Y-139455495D01*
X149375805Y-139553141D01*
X149452518Y-139667951D01*
X149505362Y-139795527D01*
X149532300Y-139930956D01*
X149532300Y-140069044D01*
X149505362Y-140204473D01*
X149452518Y-140332049D01*
X149375805Y-140446859D01*
X149278159Y-140544505D01*
X149163349Y-140621218D01*
X149035773Y-140674062D01*
X148900344Y-140701000D01*
X148762256Y-140701000D01*
X148626827Y-140674062D01*
X148499251Y-140621218D01*
X148384441Y-140544505D01*
X148286795Y-140446859D01*
X148210082Y-140332049D01*
X148157238Y-140204473D01*
X148130300Y-140069044D01*
X148130300Y-139930956D01*
X148157238Y-139795527D01*
X148210082Y-139667951D01*
X148286795Y-139553141D01*
X148384441Y-139455495D01*
X148499251Y-139378782D01*
X148626827Y-139325938D01*
X148762256Y-139299000D01*
X148900344Y-139299000D01*
X149035773Y-139325938D01*
G37*
G36*
X147373300Y-140701000D02*
G01*
X145971300Y-140701000D01*
X145971300Y-139299000D01*
X147373300Y-139299000D01*
X147373300Y-140701000D01*
G37*
G36*
X142146795Y-124077546D02*
G01*
X142319866Y-124149234D01*
X142319867Y-124149235D01*
X142475627Y-124253310D01*
X142608090Y-124385773D01*
X142608091Y-124385775D01*
X142712166Y-124541534D01*
X142783854Y-124714605D01*
X142820400Y-124898333D01*
X142820400Y-125085667D01*
X142783854Y-125269395D01*
X142712166Y-125442466D01*
X142712165Y-125442467D01*
X142608090Y-125598227D01*
X142475627Y-125730690D01*
X142397218Y-125783081D01*
X142319866Y-125834766D01*
X142146795Y-125906454D01*
X141963067Y-125943000D01*
X141775733Y-125943000D01*
X141592005Y-125906454D01*
X141418934Y-125834766D01*
X141341582Y-125783081D01*
X141263173Y-125730690D01*
X141130710Y-125598227D01*
X141026635Y-125442467D01*
X141026634Y-125442466D01*
X140954946Y-125269395D01*
X140918400Y-125085667D01*
X140918400Y-124898333D01*
X140954946Y-124714605D01*
X141026634Y-124541534D01*
X141130709Y-124385775D01*
X141130710Y-124385773D01*
X141263173Y-124253310D01*
X141418933Y-124149235D01*
X141418934Y-124149234D01*
X141592005Y-124077546D01*
X141775733Y-124041000D01*
X141963067Y-124041000D01*
X142146795Y-124077546D01*
G37*
G36*
X142146795Y-121537546D02*
G01*
X142319866Y-121609234D01*
X142319867Y-121609235D01*
X142475627Y-121713310D01*
X142608090Y-121845773D01*
X142608091Y-121845775D01*
X142712166Y-122001534D01*
X142783854Y-122174605D01*
X142820400Y-122358333D01*
X142820400Y-122545667D01*
X142783854Y-122729395D01*
X142712166Y-122902466D01*
X142712165Y-122902467D01*
X142608090Y-123058227D01*
X142475627Y-123190690D01*
X142397218Y-123243081D01*
X142319866Y-123294766D01*
X142146795Y-123366454D01*
X141963067Y-123403000D01*
X141775733Y-123403000D01*
X141592005Y-123366454D01*
X141418934Y-123294766D01*
X141341582Y-123243081D01*
X141263173Y-123190690D01*
X141130710Y-123058227D01*
X141026635Y-122902467D01*
X141026634Y-122902466D01*
X140954946Y-122729395D01*
X140918400Y-122545667D01*
X140918400Y-122358333D01*
X140954946Y-122174605D01*
X141026634Y-122001534D01*
X141130709Y-121845775D01*
X141130710Y-121845773D01*
X141263173Y-121713310D01*
X141418933Y-121609235D01*
X141418934Y-121609234D01*
X141592005Y-121537546D01*
X141775733Y-121501000D01*
X141963067Y-121501000D01*
X142146795Y-121537546D01*
G37*
G36*
X142146795Y-118997546D02*
G01*
X142319866Y-119069234D01*
X142319867Y-119069235D01*
X142475627Y-119173310D01*
X142608090Y-119305773D01*
X142608091Y-119305775D01*
X142712166Y-119461534D01*
X142783854Y-119634605D01*
X142820400Y-119818333D01*
X142820400Y-120005667D01*
X142783854Y-120189395D01*
X142712166Y-120362466D01*
X142712165Y-120362467D01*
X142608090Y-120518227D01*
X142475627Y-120650690D01*
X142397218Y-120703081D01*
X142319866Y-120754766D01*
X142146795Y-120826454D01*
X141963067Y-120863000D01*
X141775733Y-120863000D01*
X141592005Y-120826454D01*
X141418934Y-120754766D01*
X141341582Y-120703081D01*
X141263173Y-120650690D01*
X141130710Y-120518227D01*
X141026635Y-120362467D01*
X141026634Y-120362466D01*
X140954946Y-120189395D01*
X140918400Y-120005667D01*
X140918400Y-119818333D01*
X140954946Y-119634605D01*
X141026634Y-119461534D01*
X141130709Y-119305775D01*
X141130710Y-119305773D01*
X141263173Y-119173310D01*
X141418933Y-119069235D01*
X141418934Y-119069234D01*
X141592005Y-118997546D01*
X141775733Y-118961000D01*
X141963067Y-118961000D01*
X142146795Y-118997546D01*
G37*
G36*
X142146795Y-116457546D02*
G01*
X142319866Y-116529234D01*
X142319867Y-116529235D01*
X142475627Y-116633310D01*
X142608090Y-116765773D01*
X142608091Y-116765775D01*
X142712166Y-116921534D01*
X142783854Y-117094605D01*
X142820400Y-117278333D01*
X142820400Y-117465667D01*
X142783854Y-117649395D01*
X142712166Y-117822466D01*
X142712165Y-117822467D01*
X142608090Y-117978227D01*
X142475627Y-118110690D01*
X142397218Y-118163081D01*
X142319866Y-118214766D01*
X142146795Y-118286454D01*
X141963067Y-118323000D01*
X141775733Y-118323000D01*
X141592005Y-118286454D01*
X141418934Y-118214766D01*
X141341582Y-118163081D01*
X141263173Y-118110690D01*
X141130710Y-117978227D01*
X141026635Y-117822467D01*
X141026634Y-117822466D01*
X140954946Y-117649395D01*
X140918400Y-117465667D01*
X140918400Y-117278333D01*
X140954946Y-117094605D01*
X141026634Y-116921534D01*
X141130709Y-116765775D01*
X141130710Y-116765773D01*
X141263173Y-116633310D01*
X141418933Y-116529235D01*
X141418934Y-116529234D01*
X141592005Y-116457546D01*
X141775733Y-116421000D01*
X141963067Y-116421000D01*
X142146795Y-116457546D01*
G37*
G36*
X157190481Y-79370125D02*
G01*
X157523647Y-79471190D01*
X157830694Y-79635310D01*
X158099823Y-79856178D01*
X158320691Y-80125307D01*
X158484811Y-80432354D01*
X158585876Y-80765520D01*
X158620001Y-81112000D01*
X158620001Y-91112000D01*
X158585876Y-91458480D01*
X158484811Y-91791646D01*
X158320691Y-92098693D01*
X158099823Y-92367822D01*
X157830694Y-92588690D01*
X157523647Y-92752810D01*
X157190481Y-92853875D01*
X156844001Y-92888000D01*
X156843999Y-92888000D01*
X156497519Y-92853875D01*
X156164353Y-92752810D01*
X155857306Y-92588690D01*
X155588177Y-92367822D01*
X155367309Y-92098693D01*
X155203189Y-91791646D01*
X155102124Y-91458480D01*
X155067999Y-91112000D01*
X155067999Y-81112000D01*
X155102124Y-80765520D01*
X155203189Y-80432354D01*
X155367309Y-80125307D01*
X155588177Y-79856178D01*
X155857306Y-79635310D01*
X156164353Y-79471190D01*
X156497519Y-79370125D01*
X156843999Y-79336000D01*
X156844001Y-79336000D01*
X157190481Y-79370125D01*
G37*
G36*
X141087084Y-71559942D02*
G01*
X141320825Y-71630846D01*
X141536242Y-71745989D01*
X141725056Y-71900945D01*
X141880012Y-72089759D01*
X141995155Y-72305176D01*
X142066059Y-72538917D01*
X142090001Y-72782000D01*
X142090001Y-82782000D01*
X142066059Y-83025083D01*
X141995155Y-83258824D01*
X141880012Y-83474241D01*
X141725056Y-83663055D01*
X141536242Y-83818011D01*
X141320825Y-83933154D01*
X141087084Y-84004058D01*
X140844001Y-84028000D01*
X140843999Y-84028000D01*
X140600916Y-84004058D01*
X140367175Y-83933154D01*
X140151758Y-83818011D01*
X139962944Y-83663055D01*
X139807988Y-83474241D01*
X139692845Y-83258824D01*
X139621941Y-83025083D01*
X139597999Y-82782000D01*
X139597999Y-72782000D01*
X139621941Y-72538917D01*
X139692845Y-72305176D01*
X139807988Y-72089759D01*
X139962944Y-71900945D01*
X140151758Y-71745989D01*
X140367175Y-71630846D01*
X140600916Y-71559942D01*
X140843999Y-71536000D01*
X140844001Y-71536000D01*
X141087084Y-71559942D01*
G37*
G36*
X152070000Y-83103000D02*
G01*
X145618000Y-83103000D01*
X145618000Y-65661000D01*
X152070000Y-65661000D01*
X152070000Y-83103000D01*
G37*
G36*
X160666223Y-63728113D02*
G01*
X160826642Y-63776776D01*
X160959306Y-63847686D01*
X160974478Y-63855796D01*
X161104059Y-63962141D01*
X161210404Y-64091722D01*
X161210405Y-64091724D01*
X161289424Y-64239558D01*
X161338087Y-64399977D01*
X161354517Y-64566800D01*
X161338087Y-64733623D01*
X161289424Y-64894042D01*
X161218514Y-65026706D01*
X161210404Y-65041878D01*
X161104059Y-65171459D01*
X160974478Y-65277804D01*
X160974476Y-65277805D01*
X160826642Y-65356824D01*
X160666223Y-65405487D01*
X160541204Y-65417800D01*
X160057596Y-65417800D01*
X159932577Y-65405487D01*
X159772158Y-65356824D01*
X159624324Y-65277805D01*
X159624322Y-65277804D01*
X159494741Y-65171459D01*
X159388396Y-65041878D01*
X159380286Y-65026706D01*
X159309376Y-64894042D01*
X159260713Y-64733623D01*
X159244283Y-64566800D01*
X159260713Y-64399977D01*
X159309376Y-64239558D01*
X159388395Y-64091724D01*
X159388396Y-64091722D01*
X159494741Y-63962141D01*
X159624322Y-63855796D01*
X159639494Y-63847686D01*
X159772158Y-63776776D01*
X159932577Y-63728113D01*
X160057596Y-63715800D01*
X160541204Y-63715800D01*
X160666223Y-63728113D01*
G37*
G36*
X143183400Y-64913000D02*
G01*
X140281400Y-64913000D01*
X140281400Y-62011000D01*
X143183400Y-62011000D01*
X143183400Y-64913000D01*
G37*
G36*
X157383400Y-64913000D02*
G01*
X154481400Y-64913000D01*
X154481400Y-62011000D01*
X157383400Y-62011000D01*
X157383400Y-64913000D01*
G37*
G36*
X146723400Y-64913000D02*
G01*
X143821400Y-64913000D01*
X143821400Y-62011000D01*
X146723400Y-62011000D01*
X146723400Y-64913000D01*
G37*
G36*
X153843400Y-64913000D02*
G01*
X150941400Y-64913000D01*
X150941400Y-62011000D01*
X153843400Y-62011000D01*
X153843400Y-64913000D01*
G37*
G36*
X160666223Y-61188113D02*
G01*
X160826642Y-61236776D01*
X160959306Y-61307686D01*
X160974478Y-61315796D01*
X161104059Y-61422141D01*
X161210404Y-61551722D01*
X161210405Y-61551724D01*
X161289424Y-61699558D01*
X161338087Y-61859977D01*
X161354517Y-62026800D01*
X161338087Y-62193623D01*
X161289424Y-62354042D01*
X161218514Y-62486706D01*
X161210404Y-62501878D01*
X161104059Y-62631459D01*
X160974478Y-62737804D01*
X160974476Y-62737805D01*
X160826642Y-62816824D01*
X160666223Y-62865487D01*
X160541204Y-62877800D01*
X160057596Y-62877800D01*
X159932577Y-62865487D01*
X159772158Y-62816824D01*
X159624324Y-62737805D01*
X159624322Y-62737804D01*
X159494741Y-62631459D01*
X159388396Y-62501878D01*
X159380286Y-62486706D01*
X159309376Y-62354042D01*
X159260713Y-62193623D01*
X159244283Y-62026800D01*
X159260713Y-61859977D01*
X159309376Y-61699558D01*
X159388395Y-61551724D01*
X159388396Y-61551722D01*
X159494741Y-61422141D01*
X159624322Y-61315796D01*
X159639494Y-61307686D01*
X159772158Y-61236776D01*
X159932577Y-61188113D01*
X160057596Y-61175800D01*
X160541204Y-61175800D01*
X160666223Y-61188113D01*
G37*
G36*
X160666223Y-58648113D02*
G01*
X160826642Y-58696776D01*
X160959306Y-58767686D01*
X160974478Y-58775796D01*
X161104059Y-58882141D01*
X161210404Y-59011722D01*
X161210405Y-59011724D01*
X161289424Y-59159558D01*
X161338087Y-59319977D01*
X161354517Y-59486800D01*
X161338087Y-59653623D01*
X161289424Y-59814042D01*
X161218514Y-59946706D01*
X161210404Y-59961878D01*
X161104059Y-60091459D01*
X160974478Y-60197804D01*
X160974476Y-60197805D01*
X160826642Y-60276824D01*
X160666223Y-60325487D01*
X160541204Y-60337800D01*
X160057596Y-60337800D01*
X159932577Y-60325487D01*
X159772158Y-60276824D01*
X159624324Y-60197805D01*
X159624322Y-60197804D01*
X159494741Y-60091459D01*
X159388396Y-59961878D01*
X159380286Y-59946706D01*
X159309376Y-59814042D01*
X159260713Y-59653623D01*
X159244283Y-59486800D01*
X159260713Y-59319977D01*
X159309376Y-59159558D01*
X159388395Y-59011724D01*
X159388396Y-59011722D01*
X159494741Y-58882141D01*
X159624322Y-58775796D01*
X159639494Y-58767686D01*
X159772158Y-58696776D01*
X159932577Y-58648113D01*
X160057596Y-58635800D01*
X160541204Y-58635800D01*
X160666223Y-58648113D01*
G37*
G36*
X137806223Y-56108113D02*
G01*
X137966642Y-56156776D01*
X138099306Y-56227686D01*
X138114478Y-56235796D01*
X138244059Y-56342141D01*
X138350404Y-56471722D01*
X138350405Y-56471724D01*
X138429424Y-56619558D01*
X138478087Y-56779977D01*
X138494517Y-56946800D01*
X138478087Y-57113623D01*
X138429424Y-57274042D01*
X138358514Y-57406706D01*
X138350404Y-57421878D01*
X138244059Y-57551459D01*
X138114478Y-57657804D01*
X138114476Y-57657805D01*
X137966642Y-57736824D01*
X137806223Y-57785487D01*
X137681204Y-57797800D01*
X137197596Y-57797800D01*
X137072577Y-57785487D01*
X136912158Y-57736824D01*
X136764324Y-57657805D01*
X136764322Y-57657804D01*
X136634741Y-57551459D01*
X136528396Y-57421878D01*
X136520286Y-57406706D01*
X136449376Y-57274042D01*
X136400713Y-57113623D01*
X136384283Y-56946800D01*
X136400713Y-56779977D01*
X136449376Y-56619558D01*
X136528395Y-56471724D01*
X136528396Y-56471722D01*
X136634741Y-56342141D01*
X136764322Y-56235796D01*
X136779494Y-56227686D01*
X136912158Y-56156776D01*
X137072577Y-56108113D01*
X137197596Y-56095800D01*
X137681204Y-56095800D01*
X137806223Y-56108113D01*
G37*
G36*
X160666223Y-56108113D02*
G01*
X160826642Y-56156776D01*
X160959306Y-56227686D01*
X160974478Y-56235796D01*
X161104059Y-56342141D01*
X161210404Y-56471722D01*
X161210405Y-56471724D01*
X161289424Y-56619558D01*
X161338087Y-56779977D01*
X161354517Y-56946800D01*
X161338087Y-57113623D01*
X161289424Y-57274042D01*
X161218514Y-57406706D01*
X161210404Y-57421878D01*
X161104059Y-57551459D01*
X160974478Y-57657804D01*
X160974476Y-57657805D01*
X160826642Y-57736824D01*
X160666223Y-57785487D01*
X160541204Y-57797800D01*
X160057596Y-57797800D01*
X159932577Y-57785487D01*
X159772158Y-57736824D01*
X159624324Y-57657805D01*
X159624322Y-57657804D01*
X159494741Y-57551459D01*
X159388396Y-57421878D01*
X159380286Y-57406706D01*
X159309376Y-57274042D01*
X159260713Y-57113623D01*
X159244283Y-56946800D01*
X159260713Y-56779977D01*
X159309376Y-56619558D01*
X159388395Y-56471724D01*
X159388396Y-56471722D01*
X159494741Y-56342141D01*
X159624322Y-56235796D01*
X159639494Y-56227686D01*
X159772158Y-56156776D01*
X159932577Y-56108113D01*
X160057596Y-56095800D01*
X160541204Y-56095800D01*
X160666223Y-56108113D01*
G37*
G36*
X153020028Y-54198103D02*
G01*
X153174900Y-54262253D01*
X153314281Y-54355385D01*
X153432815Y-54473919D01*
X153525947Y-54613300D01*
X153590097Y-54768172D01*
X153622800Y-54932584D01*
X153622800Y-55100216D01*
X153590097Y-55264628D01*
X153525947Y-55419500D01*
X153432815Y-55558881D01*
X153314281Y-55677415D01*
X153174900Y-55770547D01*
X153020028Y-55834697D01*
X152855616Y-55867400D01*
X152687984Y-55867400D01*
X152523572Y-55834697D01*
X152368700Y-55770547D01*
X152229319Y-55677415D01*
X152110785Y-55558881D01*
X152017653Y-55419500D01*
X151953503Y-55264628D01*
X151920800Y-55100216D01*
X151920800Y-54932584D01*
X151953503Y-54768172D01*
X152017653Y-54613300D01*
X152110785Y-54473919D01*
X152229319Y-54355385D01*
X152368700Y-54262253D01*
X152523572Y-54198103D01*
X152687984Y-54165400D01*
X152855616Y-54165400D01*
X153020028Y-54198103D01*
G37*
G36*
X145400028Y-54198103D02*
G01*
X145554900Y-54262253D01*
X145694281Y-54355385D01*
X145812815Y-54473919D01*
X145905947Y-54613300D01*
X145970097Y-54768172D01*
X146002800Y-54932584D01*
X146002800Y-55100216D01*
X145970097Y-55264628D01*
X145905947Y-55419500D01*
X145812815Y-55558881D01*
X145694281Y-55677415D01*
X145554900Y-55770547D01*
X145400028Y-55834697D01*
X145235616Y-55867400D01*
X145067984Y-55867400D01*
X144903572Y-55834697D01*
X144748700Y-55770547D01*
X144609319Y-55677415D01*
X144490785Y-55558881D01*
X144397653Y-55419500D01*
X144333503Y-55264628D01*
X144300800Y-55100216D01*
X144300800Y-54932584D01*
X144333503Y-54768172D01*
X144397653Y-54613300D01*
X144490785Y-54473919D01*
X144609319Y-54355385D01*
X144748700Y-54262253D01*
X144903572Y-54198103D01*
X145067984Y-54165400D01*
X145235616Y-54165400D01*
X145400028Y-54198103D01*
G37*
G36*
X152572028Y-51531103D02*
G01*
X152726900Y-51595253D01*
X152866281Y-51688385D01*
X152984815Y-51806919D01*
X153077947Y-51946300D01*
X153142097Y-52101172D01*
X153174800Y-52265584D01*
X153174800Y-52433216D01*
X153142097Y-52597628D01*
X153077947Y-52752500D01*
X152984815Y-52891881D01*
X152866281Y-53010415D01*
X152726900Y-53103547D01*
X152572028Y-53167697D01*
X152407616Y-53200400D01*
X152239984Y-53200400D01*
X152075572Y-53167697D01*
X151920700Y-53103547D01*
X151781319Y-53010415D01*
X151662785Y-52891881D01*
X151569653Y-52752500D01*
X151505503Y-52597628D01*
X151472800Y-52433216D01*
X151472800Y-52265584D01*
X151505503Y-52101172D01*
X151569653Y-51946300D01*
X151662785Y-51806919D01*
X151781319Y-51688385D01*
X151920700Y-51595253D01*
X152075572Y-51531103D01*
X152239984Y-51498400D01*
X152407616Y-51498400D01*
X152572028Y-51531103D01*
G37*
G36*
X146240600Y-53175000D02*
G01*
X144538600Y-53175000D01*
X144538600Y-51473000D01*
X146240600Y-51473000D01*
X146240600Y-53175000D01*
G37*
G36*
X137806223Y-51028113D02*
G01*
X137966642Y-51076776D01*
X138099306Y-51147686D01*
X138114478Y-51155796D01*
X138244059Y-51262141D01*
X138350404Y-51391722D01*
X138350405Y-51391724D01*
X138429424Y-51539558D01*
X138478087Y-51699977D01*
X138494517Y-51866800D01*
X138478087Y-52033623D01*
X138429424Y-52194042D01*
X138391184Y-52265584D01*
X138350404Y-52341878D01*
X138244059Y-52471459D01*
X138114478Y-52577804D01*
X138114476Y-52577805D01*
X137966642Y-52656824D01*
X137806223Y-52705487D01*
X137681204Y-52717800D01*
X137197596Y-52717800D01*
X137072577Y-52705487D01*
X136912158Y-52656824D01*
X136764324Y-52577805D01*
X136764322Y-52577804D01*
X136634741Y-52471459D01*
X136528396Y-52341878D01*
X136487616Y-52265584D01*
X136449376Y-52194042D01*
X136400713Y-52033623D01*
X136384283Y-51866800D01*
X136400713Y-51699977D01*
X136449376Y-51539558D01*
X136528395Y-51391724D01*
X136528396Y-51391722D01*
X136634741Y-51262141D01*
X136764322Y-51155796D01*
X136779494Y-51147686D01*
X136912158Y-51076776D01*
X137072577Y-51028113D01*
X137197596Y-51015800D01*
X137681204Y-51015800D01*
X137806223Y-51028113D01*
G37*
G36*
X137806223Y-48488113D02*
G01*
X137966642Y-48536776D01*
X138099306Y-48607686D01*
X138114478Y-48615796D01*
X138244059Y-48722141D01*
X138350404Y-48851722D01*
X138350405Y-48851724D01*
X138429424Y-48999558D01*
X138478087Y-49159977D01*
X138494517Y-49326800D01*
X138478087Y-49493623D01*
X138429424Y-49654042D01*
X138358514Y-49786706D01*
X138350404Y-49801878D01*
X138244059Y-49931459D01*
X138114478Y-50037804D01*
X138114476Y-50037805D01*
X137966642Y-50116824D01*
X137806223Y-50165487D01*
X137681204Y-50177800D01*
X137197596Y-50177800D01*
X137072577Y-50165487D01*
X136912158Y-50116824D01*
X136764324Y-50037805D01*
X136764322Y-50037804D01*
X136634741Y-49931459D01*
X136528396Y-49801878D01*
X136520286Y-49786706D01*
X136449376Y-49654042D01*
X136400713Y-49493623D01*
X136384283Y-49326800D01*
X136400713Y-49159977D01*
X136449376Y-48999558D01*
X136528395Y-48851724D01*
X136528396Y-48851722D01*
X136634741Y-48722141D01*
X136764322Y-48615796D01*
X136779494Y-48607686D01*
X136912158Y-48536776D01*
X137072577Y-48488113D01*
X137197596Y-48475800D01*
X137681204Y-48475800D01*
X137806223Y-48488113D01*
G37*
G36*
X138490400Y-47837800D02*
G01*
X136388400Y-47837800D01*
X136388400Y-45735800D01*
X138490400Y-45735800D01*
X138490400Y-47837800D01*
G37*
G36*
X152572028Y-43911103D02*
G01*
X152726900Y-43975253D01*
X152866281Y-44068385D01*
X152984815Y-44186919D01*
X153077947Y-44326300D01*
X153142097Y-44481172D01*
X153174800Y-44645584D01*
X153174800Y-44813216D01*
X153142097Y-44977628D01*
X153077947Y-45132500D01*
X152984815Y-45271881D01*
X152866281Y-45390415D01*
X152726900Y-45483547D01*
X152572028Y-45547697D01*
X152407616Y-45580400D01*
X152239984Y-45580400D01*
X152075572Y-45547697D01*
X151920700Y-45483547D01*
X151781319Y-45390415D01*
X151662785Y-45271881D01*
X151569653Y-45132500D01*
X151505503Y-44977628D01*
X151472800Y-44813216D01*
X151472800Y-44645584D01*
X151505503Y-44481172D01*
X151569653Y-44326300D01*
X151662785Y-44186919D01*
X151781319Y-44068385D01*
X151920700Y-43975253D01*
X152075572Y-43911103D01*
X152239984Y-43878400D01*
X152407616Y-43878400D01*
X152572028Y-43911103D01*
G37*
G36*
X145637828Y-43885703D02*
G01*
X145792700Y-43949853D01*
X145932081Y-44042985D01*
X146050615Y-44161519D01*
X146143747Y-44300900D01*
X146207897Y-44455772D01*
X146240600Y-44620184D01*
X146240600Y-44787816D01*
X146207897Y-44952228D01*
X146143747Y-45107100D01*
X146050615Y-45246481D01*
X145932081Y-45365015D01*
X145792700Y-45458147D01*
X145637828Y-45522297D01*
X145473416Y-45555000D01*
X145305784Y-45555000D01*
X145141372Y-45522297D01*
X144986500Y-45458147D01*
X144847119Y-45365015D01*
X144728585Y-45246481D01*
X144635453Y-45107100D01*
X144571303Y-44952228D01*
X144538600Y-44787816D01*
X144538600Y-44620184D01*
X144571303Y-44455772D01*
X144635453Y-44300900D01*
X144728585Y-44161519D01*
X144847119Y-44042985D01*
X144986500Y-43949853D01*
X145141372Y-43885703D01*
X145305784Y-43853000D01*
X145473416Y-43853000D01*
X145637828Y-43885703D01*
G37*
G36*
X144728824Y-39755360D02*
G01*
X144728827Y-39755361D01*
X144728828Y-39755361D01*
X144908092Y-39809740D01*
X144908095Y-39809742D01*
X144908096Y-39809742D01*
X145073303Y-39898046D01*
X145218112Y-40016888D01*
X145336954Y-40161697D01*
X145425258Y-40326903D01*
X145425260Y-40326907D01*
X145479639Y-40506171D01*
X145479640Y-40506175D01*
X145493400Y-40645882D01*
X145493400Y-41939318D01*
X145479640Y-42079025D01*
X145479639Y-42079028D01*
X145479639Y-42079029D01*
X145425260Y-42258293D01*
X145425258Y-42258296D01*
X145425258Y-42258297D01*
X145336954Y-42423503D01*
X145218112Y-42568312D01*
X145073303Y-42687154D01*
X144908097Y-42775458D01*
X144908093Y-42775460D01*
X144728829Y-42829839D01*
X144728828Y-42829839D01*
X144728825Y-42829840D01*
X144542400Y-42848201D01*
X144355976Y-42829840D01*
X144355973Y-42829839D01*
X144355972Y-42829839D01*
X144176708Y-42775460D01*
X144176704Y-42775458D01*
X144011498Y-42687154D01*
X143866689Y-42568312D01*
X143747847Y-42423503D01*
X143659540Y-42258292D01*
X143605160Y-42079030D01*
X143591400Y-41939318D01*
X143591400Y-40645883D01*
X143605160Y-40506176D01*
X143605161Y-40506172D01*
X143659540Y-40326908D01*
X143659543Y-40326903D01*
X143747846Y-40161697D01*
X143866688Y-40016888D01*
X144011497Y-39898046D01*
X144176703Y-39809742D01*
X144176704Y-39809742D01*
X144176707Y-39809740D01*
X144355971Y-39755361D01*
X144355972Y-39755361D01*
X144355975Y-39755360D01*
X144542400Y-39736999D01*
X144728824Y-39755360D01*
G37*
G36*
X153328824Y-39755360D02*
G01*
X153328827Y-39755361D01*
X153328828Y-39755361D01*
X153508092Y-39809740D01*
X153508095Y-39809742D01*
X153508096Y-39809742D01*
X153673303Y-39898046D01*
X153818112Y-40016888D01*
X153936954Y-40161697D01*
X154025258Y-40326903D01*
X154025260Y-40326907D01*
X154079639Y-40506171D01*
X154079640Y-40506175D01*
X154093400Y-40645882D01*
X154093400Y-41939318D01*
X154079640Y-42079025D01*
X154079639Y-42079028D01*
X154079639Y-42079029D01*
X154025260Y-42258293D01*
X154025258Y-42258296D01*
X154025258Y-42258297D01*
X153936954Y-42423503D01*
X153818112Y-42568312D01*
X153673303Y-42687154D01*
X153508097Y-42775458D01*
X153508093Y-42775460D01*
X153328829Y-42829839D01*
X153328828Y-42829839D01*
X153328825Y-42829840D01*
X153142400Y-42848201D01*
X152955976Y-42829840D01*
X152955973Y-42829839D01*
X152955972Y-42829839D01*
X152776708Y-42775460D01*
X152776704Y-42775458D01*
X152611498Y-42687154D01*
X152466689Y-42568312D01*
X152347847Y-42423503D01*
X152259540Y-42258292D01*
X152205160Y-42079030D01*
X152191400Y-41939318D01*
X152191400Y-40645883D01*
X152205160Y-40506176D01*
X152205161Y-40506172D01*
X152259540Y-40326908D01*
X152259543Y-40326903D01*
X152347846Y-40161697D01*
X152466688Y-40016888D01*
X152611497Y-39898046D01*
X152776703Y-39809742D01*
X152776704Y-39809742D01*
X152776707Y-39809740D01*
X152955971Y-39755361D01*
X152955972Y-39755361D01*
X152955975Y-39755360D01*
X153142400Y-39736999D01*
X153328824Y-39755360D01*
G37*
G36*
X151090628Y-40474303D02*
G01*
X151245500Y-40538453D01*
X151384881Y-40631585D01*
X151503415Y-40750119D01*
X151596547Y-40889500D01*
X151660697Y-41044372D01*
X151693400Y-41208784D01*
X151693400Y-41376416D01*
X151660697Y-41540828D01*
X151596547Y-41695700D01*
X151503415Y-41835081D01*
X151384881Y-41953615D01*
X151245500Y-42046747D01*
X151090628Y-42110897D01*
X150926216Y-42143600D01*
X150758584Y-42143600D01*
X150594172Y-42110897D01*
X150439300Y-42046747D01*
X150299919Y-41953615D01*
X150181385Y-41835081D01*
X150088253Y-41695700D01*
X150024103Y-41540828D01*
X149991400Y-41376416D01*
X149991400Y-41208784D01*
X150024103Y-41044372D01*
X150088253Y-40889500D01*
X150181385Y-40750119D01*
X150299919Y-40631585D01*
X150439300Y-40538453D01*
X150594172Y-40474303D01*
X150758584Y-40441600D01*
X150926216Y-40441600D01*
X151090628Y-40474303D01*
G37*
G36*
X147090628Y-40474303D02*
G01*
X147245500Y-40538453D01*
X147384881Y-40631585D01*
X147503415Y-40750119D01*
X147596547Y-40889500D01*
X147660697Y-41044372D01*
X147693400Y-41208784D01*
X147693400Y-41376416D01*
X147660697Y-41540828D01*
X147596547Y-41695700D01*
X147503415Y-41835081D01*
X147384881Y-41953615D01*
X147245500Y-42046747D01*
X147090628Y-42110897D01*
X146926216Y-42143600D01*
X146758584Y-42143600D01*
X146594172Y-42110897D01*
X146439300Y-42046747D01*
X146299919Y-41953615D01*
X146181385Y-41835081D01*
X146088253Y-41695700D01*
X146024103Y-41540828D01*
X145991400Y-41376416D01*
X145991400Y-41208784D01*
X146024103Y-41044372D01*
X146088253Y-40889500D01*
X146181385Y-40750119D01*
X146299919Y-40631585D01*
X146439300Y-40538453D01*
X146594172Y-40474303D01*
X146758584Y-40441600D01*
X146926216Y-40441600D01*
X147090628Y-40474303D01*
G37*
G36*
X149090628Y-40474303D02*
G01*
X149245500Y-40538453D01*
X149384881Y-40631585D01*
X149503415Y-40750119D01*
X149596547Y-40889500D01*
X149660697Y-41044372D01*
X149693400Y-41208784D01*
X149693400Y-41376416D01*
X149660697Y-41540828D01*
X149596547Y-41695700D01*
X149503415Y-41835081D01*
X149384881Y-41953615D01*
X149245500Y-42046747D01*
X149090628Y-42110897D01*
X148926216Y-42143600D01*
X148758584Y-42143600D01*
X148594172Y-42110897D01*
X148439300Y-42046747D01*
X148299919Y-41953615D01*
X148181385Y-41835081D01*
X148088253Y-41695700D01*
X148024103Y-41540828D01*
X147991400Y-41376416D01*
X147991400Y-41208784D01*
X148024103Y-41044372D01*
X148088253Y-40889500D01*
X148181385Y-40750119D01*
X148299919Y-40631585D01*
X148439300Y-40538453D01*
X148594172Y-40474303D01*
X148758584Y-40441600D01*
X148926216Y-40441600D01*
X149090628Y-40474303D01*
G37*
G36*
X157383400Y-42013000D02*
G01*
X154481400Y-42013000D01*
X154481400Y-39111000D01*
X157383400Y-39111000D01*
X157383400Y-42013000D01*
G37*
G36*
X143183400Y-42013000D02*
G01*
X140281400Y-42013000D01*
X140281400Y-39111000D01*
X143183400Y-39111000D01*
X143183400Y-42013000D01*
G37*
G36*
X161976823Y-39156313D02*
G01*
X162137242Y-39204976D01*
X162269906Y-39275886D01*
X162285078Y-39283996D01*
X162414659Y-39390341D01*
X162521004Y-39519922D01*
X162521005Y-39519924D01*
X162600024Y-39667758D01*
X162648687Y-39828178D01*
X162661000Y-39953197D01*
X162661000Y-40436804D01*
X162648687Y-40561823D01*
X162600024Y-40722242D01*
X162529114Y-40854906D01*
X162521004Y-40870078D01*
X162505062Y-40889503D01*
X162414659Y-40999659D01*
X162285077Y-41106005D01*
X162137241Y-41185024D01*
X161976822Y-41233687D01*
X161810000Y-41250117D01*
X161643177Y-41233687D01*
X161482758Y-41185024D01*
X161334924Y-41106005D01*
X161334922Y-41106004D01*
X161205341Y-40999659D01*
X161114938Y-40889503D01*
X161098995Y-40870077D01*
X161019976Y-40722241D01*
X160971313Y-40561822D01*
X160959000Y-40436803D01*
X160959000Y-39953196D01*
X160971313Y-39828177D01*
X161019976Y-39667758D01*
X161098995Y-39519924D01*
X161098996Y-39519922D01*
X161205342Y-39390341D01*
X161334923Y-39283996D01*
X161350095Y-39275886D01*
X161482759Y-39204976D01*
X161643178Y-39156313D01*
X161810000Y-39139883D01*
X161976823Y-39156313D01*
G37*
G36*
X159436823Y-39156313D02*
G01*
X159597242Y-39204976D01*
X159729906Y-39275886D01*
X159745078Y-39283996D01*
X159874659Y-39390341D01*
X159981004Y-39519922D01*
X159981005Y-39519924D01*
X160060024Y-39667758D01*
X160108687Y-39828178D01*
X160121000Y-39953197D01*
X160121000Y-40436804D01*
X160108687Y-40561823D01*
X160060024Y-40722242D01*
X159989114Y-40854906D01*
X159981004Y-40870078D01*
X159965062Y-40889503D01*
X159874659Y-40999659D01*
X159745077Y-41106005D01*
X159597241Y-41185024D01*
X159436822Y-41233687D01*
X159270000Y-41250117D01*
X159103177Y-41233687D01*
X158942758Y-41185024D01*
X158794924Y-41106005D01*
X158794922Y-41106004D01*
X158665341Y-40999659D01*
X158574938Y-40889503D01*
X158558995Y-40870077D01*
X158479976Y-40722241D01*
X158431313Y-40561822D01*
X158419000Y-40436803D01*
X158419000Y-39953196D01*
X158431313Y-39828177D01*
X158479976Y-39667758D01*
X158558995Y-39519924D01*
X158558996Y-39519922D01*
X158665342Y-39390341D01*
X158794923Y-39283996D01*
X158810095Y-39275886D01*
X158942759Y-39204976D01*
X159103178Y-39156313D01*
X159270000Y-39139883D01*
X159436823Y-39156313D01*
G37*
G36*
X138890831Y-35286171D02*
G01*
X139218592Y-35421934D01*
X139513570Y-35619032D01*
X139764428Y-35869890D01*
X139961526Y-36164868D01*
X140097289Y-36492629D01*
X140166500Y-36840576D01*
X140166500Y-37195344D01*
X140097289Y-37543291D01*
X139961526Y-37871052D01*
X139764428Y-38166030D01*
X139513570Y-38416888D01*
X139218592Y-38613986D01*
X138890831Y-38749749D01*
X138542884Y-38818960D01*
X138188116Y-38818960D01*
X137840169Y-38749749D01*
X137512408Y-38613986D01*
X137217430Y-38416888D01*
X136966572Y-38166030D01*
X136769474Y-37871052D01*
X136633711Y-37543291D01*
X136564500Y-37195344D01*
X136564500Y-36840576D01*
X136633711Y-36492629D01*
X136769474Y-36164868D01*
X136966572Y-35869890D01*
X137217430Y-35619032D01*
X137512408Y-35421934D01*
X137840169Y-35286171D01*
X138188116Y-35216960D01*
X138542884Y-35216960D01*
X138890831Y-35286171D01*
G37*
G36*
X159831251Y-35286171D02*
G01*
X160159012Y-35421934D01*
X160453990Y-35619032D01*
X160704848Y-35869890D01*
X160901946Y-36164868D01*
X161037709Y-36492629D01*
X161106920Y-36840576D01*
X161106920Y-37195344D01*
X161037709Y-37543291D01*
X160901946Y-37871052D01*
X160704848Y-38166030D01*
X160453990Y-38416888D01*
X160159012Y-38613986D01*
X159831251Y-38749749D01*
X159483304Y-38818960D01*
X159128536Y-38818960D01*
X158780589Y-38749749D01*
X158452828Y-38613986D01*
X158157850Y-38416888D01*
X157906992Y-38166030D01*
X157709894Y-37871052D01*
X157574131Y-37543291D01*
X157504920Y-37195344D01*
X157504920Y-36840576D01*
X157574131Y-36492629D01*
X157709894Y-36164868D01*
X157906992Y-35869890D01*
X158157850Y-35619032D01*
X158452828Y-35421934D01*
X158780589Y-35286171D01*
X159128536Y-35216960D01*
X159483304Y-35216960D01*
X159831251Y-35286171D01*
G37*
M02*
