M48
INCH,TZ
T1C0.0197
T2C0.0295
T3C0.0315
T4C0.0354
T5C0.0394
T6C0.0512
T7C0.0606
%
G90
G05
T1
X55236Y-26929
X56378Y-26260
T2
X57745Y-55118
X58595Y-55118
X59445Y-55118
T3
X57146Y-21660
X60146Y-21660
X59970Y-17610
X59970Y-20610
X57240Y-17600
X57240Y-20600
X57812Y-16257
X58599Y-16257
X59387Y-16257
T4
X55854Y-46209
X55854Y-47209
X55854Y-48209
X55854Y-49209
T5
X62705Y-15825
X63705Y-15825
X54110Y-18420
X54110Y-19420
X54110Y-20420
X54110Y-22420
X63110Y-22420
X63110Y-23420
X63110Y-24420
X63110Y-25420
T6
X56906Y-16257
X60292Y-16257
T7
X55800Y-15969
X55800Y-24985
X57194Y-24985
X59997Y-24985
X61391Y-15969
X61391Y-24985
T0
M30
