G04 #@! TF.GenerationSoftware,KiCad,Pcbnew,(5.1.5)-3*
G04 #@! TF.CreationDate,2020-05-23T22:10:46-07:00*
G04 #@! TF.ProjectId,iSpindel_PCB,69537069-6e64-4656-9c5f-5043422e6b69,rev?*
G04 #@! TF.SameCoordinates,Original*
G04 #@! TF.FileFunction,Copper,L2,Bot*
G04 #@! TF.FilePolarity,Positive*
%FSLAX46Y46*%
G04 Gerber Fmt 4.6, Leading zero omitted, Abs format (unit mm)*
G04 Created by KiCad (PCBNEW (5.1.5)-3) date 2020-05-23 22:10:46*
%MOMM*%
%LPD*%
G04 APERTURE LIST*
%ADD10R,2.800000X2.800000*%
%ADD11C,1.600000*%
%ADD12O,1.600000X1.600000*%
%ADD13O,2.000000X1.600000*%
%ADD14R,2.000000X2.000000*%
%ADD15O,1.600000X2.000000*%
%ADD16C,1.800000*%
%ADD17R,6.350000X17.340000*%
%ADD18C,0.100000*%
%ADD19O,1.800000X3.000000*%
%ADD20R,1.600000X1.600000*%
%ADD21C,1.300000*%
%ADD22R,1.300000X1.300000*%
%ADD23C,1.000000*%
%ADD24C,0.500000*%
%ADD25C,2.000000*%
%ADD26C,1.950000*%
%ADD27C,0.254000*%
G04 APERTURE END LIST*
D10*
X141732400Y-40562000D03*
X155932400Y-40562000D03*
X141732400Y-63462000D03*
X155932400Y-63462000D03*
X145272400Y-63462000D03*
X152392400Y-63462000D03*
D11*
X152771800Y-55016400D03*
D12*
X145151800Y-55016400D03*
D13*
X160299400Y-56946800D03*
X160299400Y-59486800D03*
X160299400Y-62026800D03*
X160299400Y-64566800D03*
X137439400Y-56946800D03*
X137439400Y-51866800D03*
D14*
X137439400Y-46786800D03*
D13*
X137439400Y-49326800D03*
D15*
X161810000Y-40195000D03*
X159270000Y-40195000D03*
D16*
X141869400Y-117372000D03*
X141869400Y-119912000D03*
X141869400Y-122452000D03*
X141869400Y-124992000D03*
D17*
X148844000Y-74382000D03*
X148844000Y-153242000D03*
G04 #@! TA.AperFunction,WasherPad*
D18*
G36*
X141013081Y-134595306D02*
G01*
X141180532Y-134620145D01*
X141344742Y-134661278D01*
X141504130Y-134718308D01*
X141657160Y-134790686D01*
X141802360Y-134877715D01*
X141938329Y-134978557D01*
X142063760Y-135092241D01*
X142177444Y-135217672D01*
X142278286Y-135353641D01*
X142365315Y-135498841D01*
X142437693Y-135651871D01*
X142494723Y-135811259D01*
X142535856Y-135975469D01*
X142560695Y-136142920D01*
X142569001Y-136312000D01*
X142569001Y-146312000D01*
X142560695Y-146481080D01*
X142535856Y-146648531D01*
X142494723Y-146812741D01*
X142437693Y-146972129D01*
X142365315Y-147125159D01*
X142278286Y-147270359D01*
X142177444Y-147406328D01*
X142063760Y-147531759D01*
X141938329Y-147645443D01*
X141802360Y-147746285D01*
X141657160Y-147833314D01*
X141504130Y-147905692D01*
X141344742Y-147962722D01*
X141180532Y-148003855D01*
X141013081Y-148028694D01*
X140844001Y-148037000D01*
X140843999Y-148037000D01*
X140674919Y-148028694D01*
X140507468Y-148003855D01*
X140343258Y-147962722D01*
X140183870Y-147905692D01*
X140030840Y-147833314D01*
X139885640Y-147746285D01*
X139749671Y-147645443D01*
X139624240Y-147531759D01*
X139510556Y-147406328D01*
X139409714Y-147270359D01*
X139322685Y-147125159D01*
X139250307Y-146972129D01*
X139193277Y-146812741D01*
X139152144Y-146648531D01*
X139127305Y-146481080D01*
X139118999Y-146312000D01*
X139118999Y-136312000D01*
X139127305Y-136142920D01*
X139152144Y-135975469D01*
X139193277Y-135811259D01*
X139250307Y-135651871D01*
X139322685Y-135498841D01*
X139409714Y-135353641D01*
X139510556Y-135217672D01*
X139624240Y-135092241D01*
X139749671Y-134978557D01*
X139885640Y-134877715D01*
X140030840Y-134790686D01*
X140183870Y-134718308D01*
X140343258Y-134661278D01*
X140507468Y-134620145D01*
X140674919Y-134595306D01*
X140843999Y-134587000D01*
X140844001Y-134587000D01*
X141013081Y-134595306D01*
G37*
G04 #@! TD.AperFunction*
G04 #@! TA.AperFunction,WasherPad*
G36*
X157013081Y-79395306D02*
G01*
X157180532Y-79420145D01*
X157344742Y-79461278D01*
X157504130Y-79518308D01*
X157657160Y-79590686D01*
X157802360Y-79677715D01*
X157938329Y-79778557D01*
X158063760Y-79892241D01*
X158177444Y-80017672D01*
X158278286Y-80153641D01*
X158365315Y-80298841D01*
X158437693Y-80451871D01*
X158494723Y-80611259D01*
X158535856Y-80775469D01*
X158560695Y-80942920D01*
X158569001Y-81112000D01*
X158569001Y-91112000D01*
X158560695Y-91281080D01*
X158535856Y-91448531D01*
X158494723Y-91612741D01*
X158437693Y-91772129D01*
X158365315Y-91925159D01*
X158278286Y-92070359D01*
X158177444Y-92206328D01*
X158063760Y-92331759D01*
X157938329Y-92445443D01*
X157802360Y-92546285D01*
X157657160Y-92633314D01*
X157504130Y-92705692D01*
X157344742Y-92762722D01*
X157180532Y-92803855D01*
X157013081Y-92828694D01*
X156844001Y-92837000D01*
X156843999Y-92837000D01*
X156674919Y-92828694D01*
X156507468Y-92803855D01*
X156343258Y-92762722D01*
X156183870Y-92705692D01*
X156030840Y-92633314D01*
X155885640Y-92546285D01*
X155749671Y-92445443D01*
X155624240Y-92331759D01*
X155510556Y-92206328D01*
X155409714Y-92070359D01*
X155322685Y-91925159D01*
X155250307Y-91772129D01*
X155193277Y-91612741D01*
X155152144Y-91448531D01*
X155127305Y-91281080D01*
X155118999Y-91112000D01*
X155118999Y-81112000D01*
X155127305Y-80942920D01*
X155152144Y-80775469D01*
X155193277Y-80611259D01*
X155250307Y-80451871D01*
X155322685Y-80298841D01*
X155409714Y-80153641D01*
X155510556Y-80017672D01*
X155624240Y-79892241D01*
X155749671Y-79778557D01*
X155885640Y-79677715D01*
X156030840Y-79590686D01*
X156183870Y-79518308D01*
X156343258Y-79461278D01*
X156507468Y-79420145D01*
X156674919Y-79395306D01*
X156843999Y-79387000D01*
X156844001Y-79387000D01*
X157013081Y-79395306D01*
G37*
G04 #@! TD.AperFunction*
G04 #@! TA.AperFunction,WasherPad*
G36*
X140961131Y-71592754D02*
G01*
X141077134Y-71609962D01*
X141190891Y-71638456D01*
X141301308Y-71677964D01*
X141407320Y-71728104D01*
X141507907Y-71788394D01*
X141602101Y-71858253D01*
X141688994Y-71937007D01*
X141767748Y-72023900D01*
X141837607Y-72118094D01*
X141897897Y-72218681D01*
X141948037Y-72324693D01*
X141987545Y-72435110D01*
X142016039Y-72548867D01*
X142033247Y-72664870D01*
X142039001Y-72782000D01*
X142039001Y-82782000D01*
X142033247Y-82899130D01*
X142016039Y-83015133D01*
X141987545Y-83128890D01*
X141948037Y-83239307D01*
X141897897Y-83345319D01*
X141837607Y-83445906D01*
X141767748Y-83540100D01*
X141688994Y-83626993D01*
X141602101Y-83705747D01*
X141507907Y-83775606D01*
X141407320Y-83835896D01*
X141301308Y-83886036D01*
X141190891Y-83925544D01*
X141077134Y-83954038D01*
X140961131Y-83971246D01*
X140844001Y-83977000D01*
X140843999Y-83977000D01*
X140726869Y-83971246D01*
X140610866Y-83954038D01*
X140497109Y-83925544D01*
X140386692Y-83886036D01*
X140280680Y-83835896D01*
X140180093Y-83775606D01*
X140085899Y-83705747D01*
X139999006Y-83626993D01*
X139920252Y-83540100D01*
X139850393Y-83445906D01*
X139790103Y-83345319D01*
X139739963Y-83239307D01*
X139700455Y-83128890D01*
X139671961Y-83015133D01*
X139654753Y-82899130D01*
X139648999Y-82782000D01*
X139648999Y-72782000D01*
X139654753Y-72664870D01*
X139671961Y-72548867D01*
X139700455Y-72435110D01*
X139739963Y-72324693D01*
X139790103Y-72218681D01*
X139850393Y-72118094D01*
X139920252Y-72023900D01*
X139999006Y-71937007D01*
X140085899Y-71858253D01*
X140180093Y-71788394D01*
X140280680Y-71728104D01*
X140386692Y-71677964D01*
X140497109Y-71638456D01*
X140610866Y-71609962D01*
X140726869Y-71592754D01*
X140843999Y-71587000D01*
X140844001Y-71587000D01*
X140961131Y-71592754D01*
G37*
G04 #@! TD.AperFunction*
D11*
X148842400Y-41292600D03*
X150842400Y-41292600D03*
X146842400Y-41292600D03*
D19*
X153142400Y-41292600D03*
X144542400Y-41292600D03*
D12*
X152323800Y-44729400D03*
D11*
X152323800Y-52349400D03*
D20*
X145389600Y-52324000D03*
D12*
X145389600Y-44704000D03*
D21*
X148831300Y-140000000D03*
X150990300Y-140000000D03*
D22*
X146672300Y-140000000D03*
D23*
X143200000Y-66700000D03*
X140300000Y-68400000D03*
D24*
X145169000Y-74382000D02*
X148844000Y-74382000D01*
X145132400Y-74345400D02*
X145169000Y-74382000D01*
D25*
X145132400Y-63462000D02*
X145132400Y-74345400D01*
X152354280Y-63306960D02*
X152511760Y-63464440D01*
X153619200Y-66913760D02*
X153619200Y-65857120D01*
X153619200Y-69352160D02*
X153619200Y-66913760D01*
X160319720Y-141432280D02*
X160319720Y-76052680D01*
X160319720Y-76052680D02*
X153619200Y-69352160D01*
X160319720Y-141432280D02*
X160319720Y-146700000D01*
X160319720Y-146700000D02*
X148844000Y-146700000D01*
D24*
X152392400Y-64343300D02*
X152392400Y-63462000D01*
D26*
X153695400Y-65900300D02*
X152468600Y-64105100D01*
D24*
X159270000Y-41695000D02*
X159270000Y-40195000D01*
X157622390Y-43342610D02*
X159270000Y-41695000D01*
X147882360Y-43342610D02*
X157622390Y-43342610D01*
X146520970Y-44704000D02*
X147882360Y-43342610D01*
X145389600Y-44704000D02*
X146520970Y-44704000D01*
X143200000Y-83500010D02*
X139700010Y-87000000D01*
X143200000Y-66700000D02*
X143200000Y-83500010D01*
X139700010Y-87000000D02*
X139700010Y-115000000D01*
X141643402Y-115000000D02*
X145280000Y-118636598D01*
X139700010Y-115000000D02*
X141643402Y-115000000D01*
X145280000Y-118636598D02*
X145280000Y-135700000D01*
X152323800Y-49842402D02*
X152323800Y-44729400D01*
X137439400Y-56946800D02*
X145219402Y-56946800D01*
X145219402Y-56946800D02*
X152323800Y-49842402D01*
X152190301Y-139423999D02*
X150497802Y-137731500D01*
X152190301Y-140576001D02*
X152190301Y-139423999D01*
X151566301Y-141200001D02*
X152190301Y-140576001D01*
X148831300Y-140000000D02*
X150031301Y-141200001D01*
X150031301Y-141200001D02*
X151566301Y-141200001D01*
X147311500Y-137731500D02*
X145280000Y-135700000D01*
X150497802Y-137731500D02*
X147311500Y-137731500D01*
X161799400Y-64566800D02*
X162433000Y-63933200D01*
X160299400Y-64566800D02*
X161799400Y-64566800D01*
X160478202Y-55016400D02*
X153903170Y-55016400D01*
X162433000Y-56971198D02*
X160478202Y-55016400D01*
X153903170Y-55016400D02*
X152771800Y-55016400D01*
X162433000Y-63933200D02*
X162433000Y-56971198D01*
X139592894Y-68400000D02*
X139500000Y-68492894D01*
X139500000Y-68492894D02*
X139500000Y-68500000D01*
X139500000Y-68500000D02*
X138900000Y-69100000D01*
X140300000Y-68400000D02*
X139592894Y-68400000D01*
X138900000Y-69100000D02*
X138900000Y-117000000D01*
X139272000Y-117372000D02*
X141869400Y-117372000D01*
X138900000Y-117000000D02*
X139272000Y-117372000D01*
X141869400Y-117372000D02*
X144210000Y-119712600D01*
X144210000Y-119712600D02*
X144210000Y-136844000D01*
X149790299Y-138799999D02*
X146165999Y-138799999D01*
X150990300Y-140000000D02*
X149790299Y-138799999D01*
X146165999Y-138799999D02*
X144210000Y-136844000D01*
X137639400Y-49326800D02*
X137439400Y-49326800D01*
X145151800Y-55016400D02*
X143129000Y-55016400D01*
X143129000Y-55016400D02*
X137439400Y-49326800D01*
X155845840Y-40548560D02*
X155832400Y-40562000D01*
X158864200Y-63462000D02*
X160299400Y-62026800D01*
X156132400Y-63462000D02*
X158864200Y-63462000D01*
X137959980Y-61520020D02*
X137960000Y-61520040D01*
X156082399Y-61511999D02*
X156132400Y-61562000D01*
X156132400Y-61562000D02*
X156132400Y-63462000D01*
X137968041Y-61511999D02*
X156082399Y-61511999D01*
X137960000Y-61520040D02*
X137968041Y-61511999D01*
X138582000Y-119912000D02*
X140596608Y-119912000D01*
X137960000Y-119290000D02*
X138582000Y-119912000D01*
X140596608Y-119912000D02*
X141869400Y-119912000D01*
X137960000Y-61520040D02*
X137960000Y-119290000D01*
X143319401Y-137797101D02*
X143319401Y-121362001D01*
X145522300Y-140000000D02*
X143319401Y-137797101D01*
X143319401Y-121362001D02*
X141869400Y-119912000D01*
X146672300Y-140000000D02*
X145522300Y-140000000D01*
X160299400Y-59486800D02*
X158799400Y-59486800D01*
X158799400Y-59486800D02*
X157786200Y-60500000D01*
X137159972Y-61188644D02*
X137159972Y-120992572D01*
X137848616Y-60500000D02*
X137159972Y-61188644D01*
X157786200Y-60500000D02*
X137848616Y-60500000D01*
X140596608Y-122452000D02*
X140594608Y-122450000D01*
X141869400Y-122452000D02*
X140596608Y-122452000D01*
X138617400Y-122450000D02*
X137159972Y-120992572D01*
X140594608Y-122450000D02*
X138617400Y-122450000D01*
X158799400Y-56946800D02*
X156366200Y-59380000D01*
X160299400Y-56946800D02*
X158799400Y-56946800D01*
X136325889Y-60891343D02*
X136325889Y-123105889D01*
X156366200Y-59380000D02*
X137837232Y-59380000D01*
X137837232Y-59380000D02*
X136325889Y-60891343D01*
X138212000Y-124992000D02*
X141869400Y-124992000D01*
X136325889Y-123105889D02*
X138212000Y-124992000D01*
D27*
G36*
X154480927Y-91112000D02*
G01*
X154526333Y-91573012D01*
X154660805Y-92016309D01*
X154879176Y-92424852D01*
X155173055Y-92782944D01*
X155531147Y-93076823D01*
X155939690Y-93295194D01*
X156382987Y-93429666D01*
X156843999Y-93475072D01*
X156844001Y-93475072D01*
X157305013Y-93429666D01*
X157748310Y-93295194D01*
X158156853Y-93076823D01*
X158514945Y-92782944D01*
X158684721Y-92576072D01*
X158684720Y-124573000D01*
X146165000Y-124573000D01*
X146165000Y-118680063D01*
X146169281Y-118636597D01*
X146165000Y-118593131D01*
X146165000Y-118593121D01*
X146152195Y-118463108D01*
X146101589Y-118296285D01*
X146019411Y-118142539D01*
X145908817Y-118007781D01*
X145875050Y-117980069D01*
X142299936Y-114404956D01*
X142272219Y-114371183D01*
X142137461Y-114260589D01*
X141983715Y-114178411D01*
X141816892Y-114127805D01*
X141686879Y-114115000D01*
X141686871Y-114115000D01*
X141643402Y-114110719D01*
X141599933Y-114115000D01*
X140585010Y-114115000D01*
X140585010Y-87366578D01*
X141824588Y-86127000D01*
X154480927Y-86127000D01*
X154480927Y-91112000D01*
G37*
X154480927Y-91112000D02*
X154526333Y-91573012D01*
X154660805Y-92016309D01*
X154879176Y-92424852D01*
X155173055Y-92782944D01*
X155531147Y-93076823D01*
X155939690Y-93295194D01*
X156382987Y-93429666D01*
X156843999Y-93475072D01*
X156844001Y-93475072D01*
X157305013Y-93429666D01*
X157748310Y-93295194D01*
X158156853Y-93076823D01*
X158514945Y-92782944D01*
X158684721Y-92576072D01*
X158684720Y-124573000D01*
X146165000Y-124573000D01*
X146165000Y-118680063D01*
X146169281Y-118636597D01*
X146165000Y-118593131D01*
X146165000Y-118593121D01*
X146152195Y-118463108D01*
X146101589Y-118296285D01*
X146019411Y-118142539D01*
X145908817Y-118007781D01*
X145875050Y-117980069D01*
X142299936Y-114404956D01*
X142272219Y-114371183D01*
X142137461Y-114260589D01*
X141983715Y-114178411D01*
X141816892Y-114127805D01*
X141686879Y-114115000D01*
X141686871Y-114115000D01*
X141643402Y-114110719D01*
X141599933Y-114115000D01*
X140585010Y-114115000D01*
X140585010Y-87366578D01*
X141824588Y-86127000D01*
X154480927Y-86127000D01*
X154480927Y-91112000D01*
G36*
X148877455Y-89073000D02*
G01*
X140585010Y-89073000D01*
X140585010Y-87366578D01*
X143795049Y-84156540D01*
X143828817Y-84128827D01*
X143939411Y-83994069D01*
X144021589Y-83840323D01*
X144055966Y-83727000D01*
X149068383Y-83727000D01*
X148877455Y-89073000D01*
G37*
X148877455Y-89073000D02*
X140585010Y-89073000D01*
X140585010Y-87366578D01*
X143795049Y-84156540D01*
X143828817Y-84128827D01*
X143939411Y-83994069D01*
X144021589Y-83840323D01*
X144055966Y-83727000D01*
X149068383Y-83727000D01*
X148877455Y-89073000D01*
G36*
X162166482Y-139344872D02*
G01*
X162407968Y-139417781D01*
X162630698Y-139536209D01*
X162826180Y-139695640D01*
X162986974Y-139890007D01*
X163106951Y-140111898D01*
X163181544Y-140352873D01*
X163210988Y-140633012D01*
X163210989Y-156946757D01*
X163183328Y-157228869D01*
X163110419Y-157470355D01*
X162991991Y-157693085D01*
X162832560Y-157888567D01*
X162638195Y-158049360D01*
X162416301Y-158169338D01*
X162175327Y-158243931D01*
X161895188Y-158273375D01*
X155991443Y-158273375D01*
X155898149Y-158282564D01*
X155778449Y-158318874D01*
X155668133Y-158377840D01*
X155571439Y-158457193D01*
X155492086Y-158553887D01*
X155433120Y-158664203D01*
X155396810Y-158783903D01*
X155384549Y-158908387D01*
X155384563Y-158908525D01*
X155325582Y-159510059D01*
X155150845Y-160088815D01*
X154867023Y-160622605D01*
X154484923Y-161091107D01*
X154019102Y-161476468D01*
X153487306Y-161764010D01*
X152909784Y-161942782D01*
X152651365Y-161969943D01*
X152657072Y-161912000D01*
X152657072Y-148335000D01*
X160239398Y-148335000D01*
X160319720Y-148342911D01*
X160640236Y-148311343D01*
X160948435Y-148217852D01*
X161232472Y-148066031D01*
X161481434Y-147861714D01*
X161685751Y-147612752D01*
X161837572Y-147328715D01*
X161931063Y-147020516D01*
X161954720Y-146780322D01*
X161962631Y-146700000D01*
X161954720Y-146619678D01*
X161954720Y-139324109D01*
X162166482Y-139344872D01*
G37*
X162166482Y-139344872D02*
X162407968Y-139417781D01*
X162630698Y-139536209D01*
X162826180Y-139695640D01*
X162986974Y-139890007D01*
X163106951Y-140111898D01*
X163181544Y-140352873D01*
X163210988Y-140633012D01*
X163210989Y-156946757D01*
X163183328Y-157228869D01*
X163110419Y-157470355D01*
X162991991Y-157693085D01*
X162832560Y-157888567D01*
X162638195Y-158049360D01*
X162416301Y-158169338D01*
X162175327Y-158243931D01*
X161895188Y-158273375D01*
X155991443Y-158273375D01*
X155898149Y-158282564D01*
X155778449Y-158318874D01*
X155668133Y-158377840D01*
X155571439Y-158457193D01*
X155492086Y-158553887D01*
X155433120Y-158664203D01*
X155396810Y-158783903D01*
X155384549Y-158908387D01*
X155384563Y-158908525D01*
X155325582Y-159510059D01*
X155150845Y-160088815D01*
X154867023Y-160622605D01*
X154484923Y-161091107D01*
X154019102Y-161476468D01*
X153487306Y-161764010D01*
X152909784Y-161942782D01*
X152651365Y-161969943D01*
X152657072Y-161912000D01*
X152657072Y-148335000D01*
X160239398Y-148335000D01*
X160319720Y-148342911D01*
X160640236Y-148311343D01*
X160948435Y-148217852D01*
X161232472Y-148066031D01*
X161481434Y-147861714D01*
X161685751Y-147612752D01*
X161837572Y-147328715D01*
X161931063Y-147020516D01*
X161954720Y-146780322D01*
X161962631Y-146700000D01*
X161954720Y-146619678D01*
X161954720Y-139324109D01*
X162166482Y-139344872D01*
G36*
X158684721Y-76729920D02*
G01*
X158684721Y-79647928D01*
X158514945Y-79441056D01*
X158156853Y-79147177D01*
X157748310Y-78928806D01*
X157305013Y-78794334D01*
X156844001Y-78748928D01*
X156843999Y-78748928D01*
X156382987Y-78794334D01*
X155939690Y-78928806D01*
X155531147Y-79147177D01*
X155173055Y-79441056D01*
X154879176Y-79799148D01*
X154660805Y-80207691D01*
X154526333Y-80650988D01*
X154480927Y-81112000D01*
X154480927Y-91112000D01*
X154526333Y-91573012D01*
X154660805Y-92016309D01*
X154879176Y-92424852D01*
X155173055Y-92782944D01*
X155531147Y-93076823D01*
X155939690Y-93295194D01*
X156382987Y-93429666D01*
X156843999Y-93475072D01*
X156844001Y-93475072D01*
X157305013Y-93429666D01*
X157748310Y-93295194D01*
X158156853Y-93076823D01*
X158514945Y-92782944D01*
X158684721Y-92576072D01*
X158684720Y-141351958D01*
X158684720Y-141351959D01*
X158684721Y-145065000D01*
X152657072Y-145065000D01*
X152657072Y-144572000D01*
X152644812Y-144447518D01*
X152608502Y-144327820D01*
X152549537Y-144217506D01*
X152470185Y-144120815D01*
X152373494Y-144041463D01*
X152263180Y-143982498D01*
X152143482Y-143946188D01*
X152019000Y-143933928D01*
X148970642Y-143933928D01*
X148968134Y-141388413D01*
X149374771Y-141795050D01*
X149402484Y-141828818D01*
X149436252Y-141856531D01*
X149436254Y-141856533D01*
X149537242Y-141939412D01*
X149690987Y-142021590D01*
X149820887Y-142060995D01*
X149857811Y-142072196D01*
X149987824Y-142085001D01*
X149987832Y-142085001D01*
X150031301Y-142089282D01*
X150074770Y-142085001D01*
X151522832Y-142085001D01*
X151566301Y-142089282D01*
X151609770Y-142085001D01*
X151609778Y-142085001D01*
X151739791Y-142072196D01*
X151906614Y-142021590D01*
X152060360Y-141939412D01*
X152195118Y-141828818D01*
X152222835Y-141795045D01*
X152785351Y-141232530D01*
X152819118Y-141204818D01*
X152855923Y-141159972D01*
X152929711Y-141070061D01*
X152929712Y-141070060D01*
X153011890Y-140916314D01*
X153062496Y-140749491D01*
X153075301Y-140619478D01*
X153075301Y-140619468D01*
X153079582Y-140576002D01*
X153075301Y-140532536D01*
X153075301Y-139467465D01*
X153079582Y-139423998D01*
X153075301Y-139380532D01*
X153075301Y-139380522D01*
X153062496Y-139250509D01*
X153011890Y-139083686D01*
X152929712Y-138929940D01*
X152859996Y-138844991D01*
X152846833Y-138828952D01*
X152846831Y-138828950D01*
X152819118Y-138795182D01*
X152785350Y-138767469D01*
X151154336Y-137136456D01*
X151126619Y-137102683D01*
X150991861Y-136992089D01*
X150838115Y-136909911D01*
X150671292Y-136859305D01*
X150541279Y-136846500D01*
X150541271Y-136846500D01*
X150497802Y-136842219D01*
X150454333Y-136846500D01*
X148963659Y-136846500D01*
X148911292Y-83690072D01*
X152019000Y-83690072D01*
X152143482Y-83677812D01*
X152263180Y-83641502D01*
X152373494Y-83582537D01*
X152470185Y-83503185D01*
X152549537Y-83406494D01*
X152608502Y-83296180D01*
X152644812Y-83176482D01*
X152657072Y-83052000D01*
X152657072Y-70702270D01*
X158684721Y-76729920D01*
G37*
X158684721Y-76729920D02*
X158684721Y-79647928D01*
X158514945Y-79441056D01*
X158156853Y-79147177D01*
X157748310Y-78928806D01*
X157305013Y-78794334D01*
X156844001Y-78748928D01*
X156843999Y-78748928D01*
X156382987Y-78794334D01*
X155939690Y-78928806D01*
X155531147Y-79147177D01*
X155173055Y-79441056D01*
X154879176Y-79799148D01*
X154660805Y-80207691D01*
X154526333Y-80650988D01*
X154480927Y-81112000D01*
X154480927Y-91112000D01*
X154526333Y-91573012D01*
X154660805Y-92016309D01*
X154879176Y-92424852D01*
X155173055Y-92782944D01*
X155531147Y-93076823D01*
X155939690Y-93295194D01*
X156382987Y-93429666D01*
X156843999Y-93475072D01*
X156844001Y-93475072D01*
X157305013Y-93429666D01*
X157748310Y-93295194D01*
X158156853Y-93076823D01*
X158514945Y-92782944D01*
X158684721Y-92576072D01*
X158684720Y-141351958D01*
X158684720Y-141351959D01*
X158684721Y-145065000D01*
X152657072Y-145065000D01*
X152657072Y-144572000D01*
X152644812Y-144447518D01*
X152608502Y-144327820D01*
X152549537Y-144217506D01*
X152470185Y-144120815D01*
X152373494Y-144041463D01*
X152263180Y-143982498D01*
X152143482Y-143946188D01*
X152019000Y-143933928D01*
X148970642Y-143933928D01*
X148968134Y-141388413D01*
X149374771Y-141795050D01*
X149402484Y-141828818D01*
X149436252Y-141856531D01*
X149436254Y-141856533D01*
X149537242Y-141939412D01*
X149690987Y-142021590D01*
X149820887Y-142060995D01*
X149857811Y-142072196D01*
X149987824Y-142085001D01*
X149987832Y-142085001D01*
X150031301Y-142089282D01*
X150074770Y-142085001D01*
X151522832Y-142085001D01*
X151566301Y-142089282D01*
X151609770Y-142085001D01*
X151609778Y-142085001D01*
X151739791Y-142072196D01*
X151906614Y-142021590D01*
X152060360Y-141939412D01*
X152195118Y-141828818D01*
X152222835Y-141795045D01*
X152785351Y-141232530D01*
X152819118Y-141204818D01*
X152855923Y-141159972D01*
X152929711Y-141070061D01*
X152929712Y-141070060D01*
X153011890Y-140916314D01*
X153062496Y-140749491D01*
X153075301Y-140619478D01*
X153075301Y-140619468D01*
X153079582Y-140576002D01*
X153075301Y-140532536D01*
X153075301Y-139467465D01*
X153079582Y-139423998D01*
X153075301Y-139380532D01*
X153075301Y-139380522D01*
X153062496Y-139250509D01*
X153011890Y-139083686D01*
X152929712Y-138929940D01*
X152859996Y-138844991D01*
X152846833Y-138828952D01*
X152846831Y-138828950D01*
X152819118Y-138795182D01*
X152785350Y-138767469D01*
X151154336Y-137136456D01*
X151126619Y-137102683D01*
X150991861Y-136992089D01*
X150838115Y-136909911D01*
X150671292Y-136859305D01*
X150541279Y-136846500D01*
X150541271Y-136846500D01*
X150497802Y-136842219D01*
X150454333Y-136846500D01*
X148963659Y-136846500D01*
X148911292Y-83690072D01*
X152019000Y-83690072D01*
X152143482Y-83677812D01*
X152263180Y-83641502D01*
X152373494Y-83582537D01*
X152470185Y-83503185D01*
X152549537Y-83406494D01*
X152608502Y-83296180D01*
X152644812Y-83176482D01*
X152657072Y-83052000D01*
X152657072Y-70702270D01*
X158684721Y-76729920D01*
G36*
X158657457Y-64566800D02*
G01*
X158685164Y-64848109D01*
X158767218Y-65118608D01*
X158900468Y-65367901D01*
X159079792Y-65586408D01*
X159298299Y-65765732D01*
X159547592Y-65898982D01*
X159818091Y-65981036D01*
X160028908Y-66001800D01*
X160569892Y-66001800D01*
X160780709Y-65981036D01*
X161051208Y-65898982D01*
X161300501Y-65765732D01*
X161519008Y-65586408D01*
X161629478Y-65451800D01*
X161755931Y-65451800D01*
X161799400Y-65456081D01*
X161842869Y-65451800D01*
X161842877Y-65451800D01*
X161972890Y-65438995D01*
X162139713Y-65388389D01*
X162293459Y-65306211D01*
X162428217Y-65195617D01*
X162455934Y-65161844D01*
X163028050Y-64589729D01*
X163061817Y-64562017D01*
X163098935Y-64516790D01*
X163172411Y-64427259D01*
X163210993Y-64355076D01*
X163210988Y-72788946D01*
X163183328Y-73071049D01*
X163110419Y-73312535D01*
X162991991Y-73535265D01*
X162832560Y-73730747D01*
X162638195Y-73891540D01*
X162416301Y-74011518D01*
X162175327Y-74086111D01*
X161920071Y-74112940D01*
X161915433Y-74112483D01*
X161790949Y-74124744D01*
X161671249Y-74161054D01*
X161560933Y-74220020D01*
X161464239Y-74299373D01*
X161384886Y-74396068D01*
X161325920Y-74506384D01*
X161289610Y-74626084D01*
X161282056Y-74702777D01*
X155254200Y-68674922D01*
X155254200Y-66305889D01*
X155285310Y-66199342D01*
X155313101Y-65883419D01*
X155278724Y-65568145D01*
X155257296Y-65500072D01*
X157332400Y-65500072D01*
X157456882Y-65487812D01*
X157576580Y-65451502D01*
X157686894Y-65392537D01*
X157783585Y-65313185D01*
X157862937Y-65216494D01*
X157921902Y-65106180D01*
X157958212Y-64986482D01*
X157970472Y-64862000D01*
X157970472Y-64347000D01*
X158679106Y-64347000D01*
X158657457Y-64566800D01*
G37*
X158657457Y-64566800D02*
X158685164Y-64848109D01*
X158767218Y-65118608D01*
X158900468Y-65367901D01*
X159079792Y-65586408D01*
X159298299Y-65765732D01*
X159547592Y-65898982D01*
X159818091Y-65981036D01*
X160028908Y-66001800D01*
X160569892Y-66001800D01*
X160780709Y-65981036D01*
X161051208Y-65898982D01*
X161300501Y-65765732D01*
X161519008Y-65586408D01*
X161629478Y-65451800D01*
X161755931Y-65451800D01*
X161799400Y-65456081D01*
X161842869Y-65451800D01*
X161842877Y-65451800D01*
X161972890Y-65438995D01*
X162139713Y-65388389D01*
X162293459Y-65306211D01*
X162428217Y-65195617D01*
X162455934Y-65161844D01*
X163028050Y-64589729D01*
X163061817Y-64562017D01*
X163098935Y-64516790D01*
X163172411Y-64427259D01*
X163210993Y-64355076D01*
X163210988Y-72788946D01*
X163183328Y-73071049D01*
X163110419Y-73312535D01*
X162991991Y-73535265D01*
X162832560Y-73730747D01*
X162638195Y-73891540D01*
X162416301Y-74011518D01*
X162175327Y-74086111D01*
X161920071Y-74112940D01*
X161915433Y-74112483D01*
X161790949Y-74124744D01*
X161671249Y-74161054D01*
X161560933Y-74220020D01*
X161464239Y-74299373D01*
X161384886Y-74396068D01*
X161325920Y-74506384D01*
X161289610Y-74626084D01*
X161282056Y-74702777D01*
X155254200Y-68674922D01*
X155254200Y-66305889D01*
X155285310Y-66199342D01*
X155313101Y-65883419D01*
X155278724Y-65568145D01*
X155257296Y-65500072D01*
X157332400Y-65500072D01*
X157456882Y-65487812D01*
X157576580Y-65451502D01*
X157686894Y-65392537D01*
X157783585Y-65313185D01*
X157862937Y-65216494D01*
X157921902Y-65106180D01*
X157958212Y-64986482D01*
X157970472Y-64862000D01*
X157970472Y-64347000D01*
X158679106Y-64347000D01*
X158657457Y-64566800D01*
G36*
X150354328Y-64862000D02*
G01*
X150366588Y-64986482D01*
X150393114Y-65073928D01*
X148892952Y-65073928D01*
X148890315Y-62396999D01*
X150354328Y-62396999D01*
X150354328Y-64862000D01*
G37*
X150354328Y-64862000D02*
X150366588Y-64986482D01*
X150393114Y-65073928D01*
X148892952Y-65073928D01*
X148890315Y-62396999D01*
X150354328Y-62396999D01*
X150354328Y-64862000D01*
G36*
X161548000Y-63566621D02*
G01*
X161540834Y-63573787D01*
X161519008Y-63547192D01*
X161300501Y-63367868D01*
X161167542Y-63296800D01*
X161300501Y-63225732D01*
X161519008Y-63046408D01*
X161548000Y-63011081D01*
X161548000Y-63566621D01*
G37*
X161548000Y-63566621D02*
X161540834Y-63573787D01*
X161519008Y-63547192D01*
X161300501Y-63367868D01*
X161167542Y-63296800D01*
X161300501Y-63225732D01*
X161519008Y-63046408D01*
X161548000Y-63011081D01*
X161548000Y-63566621D01*
G36*
X159079792Y-60506408D02*
G01*
X159298299Y-60685732D01*
X159431258Y-60756800D01*
X159298299Y-60827868D01*
X159079792Y-61007192D01*
X158900468Y-61225699D01*
X158767218Y-61474992D01*
X158685164Y-61745491D01*
X158657457Y-62026800D01*
X158685164Y-62308109D01*
X158704097Y-62370524D01*
X158497622Y-62577000D01*
X157970472Y-62577000D01*
X157970472Y-62062000D01*
X157958212Y-61937518D01*
X157921902Y-61817820D01*
X157862937Y-61707506D01*
X157783585Y-61610815D01*
X157686894Y-61531463D01*
X157576580Y-61472498D01*
X157456882Y-61436188D01*
X157332400Y-61423928D01*
X157008083Y-61423928D01*
X157004595Y-61388510D01*
X157003530Y-61385000D01*
X157742731Y-61385000D01*
X157786200Y-61389281D01*
X157829669Y-61385000D01*
X157829677Y-61385000D01*
X157959690Y-61372195D01*
X158126513Y-61321589D01*
X158280259Y-61239411D01*
X158415017Y-61128817D01*
X158442734Y-61095044D01*
X159057966Y-60479813D01*
X159079792Y-60506408D01*
G37*
X159079792Y-60506408D02*
X159298299Y-60685732D01*
X159431258Y-60756800D01*
X159298299Y-60827868D01*
X159079792Y-61007192D01*
X158900468Y-61225699D01*
X158767218Y-61474992D01*
X158685164Y-61745491D01*
X158657457Y-62026800D01*
X158685164Y-62308109D01*
X158704097Y-62370524D01*
X158497622Y-62577000D01*
X157970472Y-62577000D01*
X157970472Y-62062000D01*
X157958212Y-61937518D01*
X157921902Y-61817820D01*
X157862937Y-61707506D01*
X157783585Y-61610815D01*
X157686894Y-61531463D01*
X157576580Y-61472498D01*
X157456882Y-61436188D01*
X157332400Y-61423928D01*
X157008083Y-61423928D01*
X157004595Y-61388510D01*
X157003530Y-61385000D01*
X157742731Y-61385000D01*
X157786200Y-61389281D01*
X157829669Y-61385000D01*
X157829677Y-61385000D01*
X157959690Y-61372195D01*
X158126513Y-61321589D01*
X158280259Y-61239411D01*
X158415017Y-61128817D01*
X158442734Y-61095044D01*
X159057966Y-60479813D01*
X159079792Y-60506408D01*
G36*
X161548000Y-61042519D02*
G01*
X161519008Y-61007192D01*
X161300501Y-60827868D01*
X161167542Y-60756800D01*
X161300501Y-60685732D01*
X161519008Y-60506408D01*
X161548000Y-60471081D01*
X161548000Y-61042519D01*
G37*
X161548000Y-61042519D02*
X161519008Y-61007192D01*
X161300501Y-60827868D01*
X161167542Y-60756800D01*
X161300501Y-60685732D01*
X161519008Y-60506408D01*
X161548000Y-60471081D01*
X161548000Y-61042519D01*
G36*
X159079792Y-57966408D02*
G01*
X159298299Y-58145732D01*
X159431258Y-58216800D01*
X159298299Y-58287868D01*
X159079792Y-58467192D01*
X158969322Y-58601800D01*
X158842865Y-58601800D01*
X158799399Y-58597519D01*
X158755933Y-58601800D01*
X158755923Y-58601800D01*
X158625910Y-58614605D01*
X158459087Y-58665211D01*
X158305341Y-58747389D01*
X158305339Y-58747390D01*
X158305340Y-58747390D01*
X158204353Y-58830268D01*
X158204351Y-58830270D01*
X158170583Y-58857983D01*
X158142870Y-58891751D01*
X157419622Y-59615000D01*
X157382778Y-59615000D01*
X159057966Y-57939813D01*
X159079792Y-57966408D01*
G37*
X159079792Y-57966408D02*
X159298299Y-58145732D01*
X159431258Y-58216800D01*
X159298299Y-58287868D01*
X159079792Y-58467192D01*
X158969322Y-58601800D01*
X158842865Y-58601800D01*
X158799399Y-58597519D01*
X158755933Y-58601800D01*
X158755923Y-58601800D01*
X158625910Y-58614605D01*
X158459087Y-58665211D01*
X158305341Y-58747389D01*
X158305339Y-58747390D01*
X158305340Y-58747390D01*
X158204353Y-58830268D01*
X158204351Y-58830270D01*
X158170583Y-58857983D01*
X158142870Y-58891751D01*
X157419622Y-59615000D01*
X157382778Y-59615000D01*
X159057966Y-57939813D01*
X159079792Y-57966408D01*
G36*
X161548001Y-58502520D02*
G01*
X161519008Y-58467192D01*
X161300501Y-58287868D01*
X161167542Y-58216800D01*
X161300501Y-58145732D01*
X161519008Y-57966408D01*
X161548001Y-57931080D01*
X161548001Y-58502520D01*
G37*
X161548001Y-58502520D02*
X161519008Y-58467192D01*
X161300501Y-58287868D01*
X161167542Y-58216800D01*
X161300501Y-58145732D01*
X161519008Y-57966408D01*
X161548001Y-57931080D01*
X161548001Y-58502520D01*
G36*
X150943947Y-52767974D02*
G01*
X151052120Y-53029127D01*
X151209163Y-53264159D01*
X151409041Y-53464037D01*
X151644073Y-53621080D01*
X151905226Y-53729253D01*
X152067047Y-53761442D01*
X151857041Y-53901763D01*
X151657163Y-54101641D01*
X151500120Y-54336673D01*
X151391947Y-54597826D01*
X151336800Y-54875065D01*
X151336800Y-55157735D01*
X151391947Y-55434974D01*
X151500120Y-55696127D01*
X151657163Y-55931159D01*
X151857041Y-56131037D01*
X152092073Y-56288080D01*
X152353226Y-56396253D01*
X152630465Y-56451400D01*
X152913135Y-56451400D01*
X153190374Y-56396253D01*
X153451527Y-56288080D01*
X153686559Y-56131037D01*
X153886437Y-55931159D01*
X153906321Y-55901400D01*
X159111220Y-55901400D01*
X159079792Y-55927192D01*
X158969322Y-56061800D01*
X158842865Y-56061800D01*
X158799399Y-56057519D01*
X158755933Y-56061800D01*
X158755923Y-56061800D01*
X158625910Y-56074605D01*
X158459087Y-56125211D01*
X158305341Y-56207389D01*
X158305339Y-56207390D01*
X158305340Y-56207390D01*
X158204353Y-56290268D01*
X158204351Y-56290270D01*
X158170583Y-56317983D01*
X158142870Y-56351751D01*
X155999622Y-58495000D01*
X148886471Y-58495000D01*
X148882570Y-54535210D01*
X150895145Y-52522635D01*
X150943947Y-52767974D01*
G37*
X150943947Y-52767974D02*
X151052120Y-53029127D01*
X151209163Y-53264159D01*
X151409041Y-53464037D01*
X151644073Y-53621080D01*
X151905226Y-53729253D01*
X152067047Y-53761442D01*
X151857041Y-53901763D01*
X151657163Y-54101641D01*
X151500120Y-54336673D01*
X151391947Y-54597826D01*
X151336800Y-54875065D01*
X151336800Y-55157735D01*
X151391947Y-55434974D01*
X151500120Y-55696127D01*
X151657163Y-55931159D01*
X151857041Y-56131037D01*
X152092073Y-56288080D01*
X152353226Y-56396253D01*
X152630465Y-56451400D01*
X152913135Y-56451400D01*
X153190374Y-56396253D01*
X153451527Y-56288080D01*
X153686559Y-56131037D01*
X153886437Y-55931159D01*
X153906321Y-55901400D01*
X159111220Y-55901400D01*
X159079792Y-55927192D01*
X158969322Y-56061800D01*
X158842865Y-56061800D01*
X158799399Y-56057519D01*
X158755933Y-56061800D01*
X158755923Y-56061800D01*
X158625910Y-56074605D01*
X158459087Y-56125211D01*
X158305341Y-56207389D01*
X158305339Y-56207390D01*
X158305340Y-56207390D01*
X158204353Y-56290268D01*
X158204351Y-56290270D01*
X158170583Y-56317983D01*
X158142870Y-56351751D01*
X155999622Y-58495000D01*
X148886471Y-58495000D01*
X148882570Y-54535210D01*
X150895145Y-52522635D01*
X150943947Y-52767974D01*
G36*
X163213000Y-42561485D02*
G01*
X163211006Y-42581730D01*
X163211006Y-42612911D01*
X163211005Y-42612921D01*
X163211006Y-42612931D01*
X163210998Y-56549330D01*
X163172411Y-56477139D01*
X163061817Y-56342381D01*
X163028049Y-56314668D01*
X161134736Y-54421356D01*
X161107019Y-54387583D01*
X160972261Y-54276989D01*
X160818515Y-54194811D01*
X160651692Y-54144205D01*
X160521679Y-54131400D01*
X160521671Y-54131400D01*
X160478202Y-54127119D01*
X160434733Y-54131400D01*
X153906321Y-54131400D01*
X153886437Y-54101641D01*
X153686559Y-53901763D01*
X153451527Y-53744720D01*
X153190374Y-53636547D01*
X153028553Y-53604358D01*
X153238559Y-53464037D01*
X153438437Y-53264159D01*
X153595480Y-53029127D01*
X153703653Y-52767974D01*
X153758800Y-52490735D01*
X153758800Y-52208065D01*
X153703653Y-51930826D01*
X153595480Y-51669673D01*
X153438437Y-51434641D01*
X153238559Y-51234763D01*
X153003527Y-51077720D01*
X152742374Y-50969547D01*
X152497035Y-50920745D01*
X152918851Y-50498930D01*
X152952617Y-50471219D01*
X153063211Y-50336461D01*
X153145389Y-50182715D01*
X153195995Y-50015892D01*
X153208800Y-49885879D01*
X153208800Y-49885869D01*
X153213081Y-49842403D01*
X153208800Y-49798936D01*
X153208800Y-45863921D01*
X153238559Y-45844037D01*
X153438437Y-45644159D01*
X153595480Y-45409127D01*
X153703653Y-45147974D01*
X153758800Y-44870735D01*
X153758800Y-44588065D01*
X153703653Y-44310826D01*
X153669184Y-44227610D01*
X157578921Y-44227610D01*
X157622390Y-44231891D01*
X157665859Y-44227610D01*
X157665867Y-44227610D01*
X157795880Y-44214805D01*
X157962703Y-44164199D01*
X158116449Y-44082021D01*
X158251207Y-43971427D01*
X158278924Y-43937654D01*
X159865050Y-42351529D01*
X159898817Y-42323817D01*
X159945293Y-42267187D01*
X160000411Y-42200025D01*
X160009411Y-42189059D01*
X160091589Y-42035313D01*
X160142195Y-41868490D01*
X160155000Y-41738477D01*
X160155000Y-41738467D01*
X160159281Y-41695001D01*
X160155000Y-41651535D01*
X160155000Y-41525077D01*
X160289607Y-41414608D01*
X160468932Y-41196101D01*
X160540000Y-41063142D01*
X160611068Y-41196100D01*
X160790392Y-41414607D01*
X161008899Y-41593932D01*
X161258192Y-41727182D01*
X161528691Y-41809236D01*
X161810000Y-41836943D01*
X162091308Y-41809236D01*
X162361807Y-41727182D01*
X162611100Y-41593932D01*
X162829607Y-41414608D01*
X163008932Y-41196101D01*
X163142182Y-40946808D01*
X163213000Y-40713350D01*
X163213000Y-42561485D01*
G37*
X163213000Y-42561485D02*
X163211006Y-42581730D01*
X163211006Y-42612911D01*
X163211005Y-42612921D01*
X163211006Y-42612931D01*
X163210998Y-56549330D01*
X163172411Y-56477139D01*
X163061817Y-56342381D01*
X163028049Y-56314668D01*
X161134736Y-54421356D01*
X161107019Y-54387583D01*
X160972261Y-54276989D01*
X160818515Y-54194811D01*
X160651692Y-54144205D01*
X160521679Y-54131400D01*
X160521671Y-54131400D01*
X160478202Y-54127119D01*
X160434733Y-54131400D01*
X153906321Y-54131400D01*
X153886437Y-54101641D01*
X153686559Y-53901763D01*
X153451527Y-53744720D01*
X153190374Y-53636547D01*
X153028553Y-53604358D01*
X153238559Y-53464037D01*
X153438437Y-53264159D01*
X153595480Y-53029127D01*
X153703653Y-52767974D01*
X153758800Y-52490735D01*
X153758800Y-52208065D01*
X153703653Y-51930826D01*
X153595480Y-51669673D01*
X153438437Y-51434641D01*
X153238559Y-51234763D01*
X153003527Y-51077720D01*
X152742374Y-50969547D01*
X152497035Y-50920745D01*
X152918851Y-50498930D01*
X152952617Y-50471219D01*
X153063211Y-50336461D01*
X153145389Y-50182715D01*
X153195995Y-50015892D01*
X153208800Y-49885879D01*
X153208800Y-49885869D01*
X153213081Y-49842403D01*
X153208800Y-49798936D01*
X153208800Y-45863921D01*
X153238559Y-45844037D01*
X153438437Y-45644159D01*
X153595480Y-45409127D01*
X153703653Y-45147974D01*
X153758800Y-44870735D01*
X153758800Y-44588065D01*
X153703653Y-44310826D01*
X153669184Y-44227610D01*
X157578921Y-44227610D01*
X157622390Y-44231891D01*
X157665859Y-44227610D01*
X157665867Y-44227610D01*
X157795880Y-44214805D01*
X157962703Y-44164199D01*
X158116449Y-44082021D01*
X158251207Y-43971427D01*
X158278924Y-43937654D01*
X159865050Y-42351529D01*
X159898817Y-42323817D01*
X159945293Y-42267187D01*
X160000411Y-42200025D01*
X160009411Y-42189059D01*
X160091589Y-42035313D01*
X160142195Y-41868490D01*
X160155000Y-41738477D01*
X160155000Y-41738467D01*
X160159281Y-41695001D01*
X160155000Y-41651535D01*
X160155000Y-41525077D01*
X160289607Y-41414608D01*
X160468932Y-41196101D01*
X160540000Y-41063142D01*
X160611068Y-41196100D01*
X160790392Y-41414607D01*
X161008899Y-41593932D01*
X161258192Y-41727182D01*
X161528691Y-41809236D01*
X161810000Y-41836943D01*
X162091308Y-41809236D01*
X162361807Y-41727182D01*
X162611100Y-41593932D01*
X162829607Y-41414608D01*
X163008932Y-41196101D01*
X163142182Y-40946808D01*
X163213000Y-40713350D01*
X163213000Y-42561485D01*
G36*
X150943947Y-44310826D02*
G01*
X150888800Y-44588065D01*
X150888800Y-44870735D01*
X150943947Y-45147974D01*
X151052120Y-45409127D01*
X151209163Y-45644159D01*
X151409041Y-45844037D01*
X151438801Y-45863922D01*
X151438800Y-49475823D01*
X148880106Y-52034517D01*
X148872415Y-44227610D01*
X150978416Y-44227610D01*
X150943947Y-44310826D01*
G37*
X150943947Y-44310826D02*
X150888800Y-44588065D01*
X150888800Y-44870735D01*
X150943947Y-45147974D01*
X151052120Y-45409127D01*
X151209163Y-45644159D01*
X151409041Y-45844037D01*
X151438801Y-45863922D01*
X151438800Y-49475823D01*
X148880106Y-52034517D01*
X148872415Y-44227610D01*
X150978416Y-44227610D01*
X150943947Y-44310826D01*
G36*
X149927641Y-42407237D02*
G01*
X150003030Y-42457610D01*
X149681770Y-42457610D01*
X149757159Y-42407237D01*
X149842400Y-42321996D01*
X149927641Y-42407237D01*
G37*
X149927641Y-42407237D02*
X150003030Y-42457610D01*
X149681770Y-42457610D01*
X149757159Y-42407237D01*
X149842400Y-42321996D01*
X149927641Y-42407237D01*
G36*
X151709723Y-42457610D02*
G01*
X151681770Y-42457610D01*
X151705012Y-42442080D01*
X151709723Y-42457610D01*
G37*
X151709723Y-42457610D02*
X151681770Y-42457610D01*
X151705012Y-42442080D01*
X151709723Y-42457610D01*
G36*
X158071068Y-41196100D02*
G01*
X158250392Y-41414607D01*
X158276988Y-41436434D01*
X157970472Y-41742949D01*
X157970472Y-41007898D01*
X158071068Y-41196100D01*
G37*
X158071068Y-41196100D02*
X158250392Y-41414607D01*
X158276988Y-41436434D01*
X157970472Y-41742949D01*
X157970472Y-41007898D01*
X158071068Y-41196100D01*
G36*
X152552139Y-39267583D02*
G01*
X152285473Y-39410119D01*
X152051739Y-39601939D01*
X151859919Y-39835674D01*
X151717383Y-40102340D01*
X151705013Y-40143120D01*
X151522127Y-40020920D01*
X151260974Y-39912747D01*
X150983735Y-39857600D01*
X150701065Y-39857600D01*
X150423826Y-39912747D01*
X150162673Y-40020920D01*
X149927641Y-40177963D01*
X149842400Y-40263204D01*
X149757159Y-40177963D01*
X149522127Y-40020920D01*
X149260974Y-39912747D01*
X148983735Y-39857600D01*
X148868110Y-39857600D01*
X148867510Y-39248011D01*
X152616825Y-39247961D01*
X152552139Y-39267583D01*
G37*
X152552139Y-39267583D02*
X152285473Y-39410119D01*
X152051739Y-39601939D01*
X151859919Y-39835674D01*
X151717383Y-40102340D01*
X151705013Y-40143120D01*
X151522127Y-40020920D01*
X151260974Y-39912747D01*
X150983735Y-39857600D01*
X150701065Y-39857600D01*
X150423826Y-39912747D01*
X150162673Y-40020920D01*
X149927641Y-40177963D01*
X149842400Y-40263204D01*
X149757159Y-40177963D01*
X149522127Y-40020920D01*
X149260974Y-39912747D01*
X148983735Y-39857600D01*
X148868110Y-39857600D01*
X148867510Y-39248011D01*
X152616825Y-39247961D01*
X152552139Y-39267583D01*
G36*
X160581315Y-34930275D02*
G01*
X161254810Y-35236494D01*
X161858249Y-35664544D01*
X162369861Y-36198981D01*
X162771181Y-36820516D01*
X163047731Y-37506723D01*
X163192367Y-38247363D01*
X163211763Y-38643941D01*
X163213000Y-38652473D01*
X163213000Y-39676651D01*
X163142182Y-39443193D01*
X163008932Y-39193899D01*
X162829608Y-38975392D01*
X162611101Y-38796068D01*
X162361808Y-38662818D01*
X162091309Y-38580764D01*
X161810000Y-38553057D01*
X161528692Y-38580764D01*
X161258193Y-38662818D01*
X161008900Y-38796068D01*
X160790393Y-38975392D01*
X160611068Y-39193899D01*
X160540000Y-39326858D01*
X160468932Y-39193899D01*
X160422281Y-39137054D01*
X160435641Y-39131520D01*
X160826269Y-38870510D01*
X161158470Y-38538309D01*
X161419480Y-38147681D01*
X161599266Y-37713639D01*
X161690920Y-37252862D01*
X161690920Y-36783058D01*
X161599266Y-36322281D01*
X161419480Y-35888239D01*
X161158470Y-35497611D01*
X160826269Y-35165410D01*
X160435641Y-34904400D01*
X160382336Y-34882320D01*
X160581315Y-34930275D01*
G37*
X160581315Y-34930275D02*
X161254810Y-35236494D01*
X161858249Y-35664544D01*
X162369861Y-36198981D01*
X162771181Y-36820516D01*
X163047731Y-37506723D01*
X163192367Y-38247363D01*
X163211763Y-38643941D01*
X163213000Y-38652473D01*
X163213000Y-39676651D01*
X163142182Y-39443193D01*
X163008932Y-39193899D01*
X162829608Y-38975392D01*
X162611101Y-38796068D01*
X162361808Y-38662818D01*
X162091309Y-38580764D01*
X161810000Y-38553057D01*
X161528692Y-38580764D01*
X161258193Y-38662818D01*
X161008900Y-38796068D01*
X160790393Y-38975392D01*
X160611068Y-39193899D01*
X160540000Y-39326858D01*
X160468932Y-39193899D01*
X160422281Y-39137054D01*
X160435641Y-39131520D01*
X160826269Y-38870510D01*
X161158470Y-38538309D01*
X161419480Y-38147681D01*
X161599266Y-37713639D01*
X161690920Y-37252862D01*
X161690920Y-36783058D01*
X161599266Y-36322281D01*
X161419480Y-35888239D01*
X161158470Y-35497611D01*
X160826269Y-35165410D01*
X160435641Y-34904400D01*
X160382336Y-34882320D01*
X160581315Y-34930275D01*
G36*
X158141364Y-39108244D02*
G01*
X158071068Y-39193899D01*
X157970472Y-39382101D01*
X157970472Y-39162000D01*
X157958212Y-39037518D01*
X157938560Y-38972734D01*
X158141364Y-39108244D01*
G37*
X158141364Y-39108244D02*
X158071068Y-39193899D01*
X157970472Y-39382101D01*
X157970472Y-39162000D01*
X157958212Y-39037518D01*
X157938560Y-38972734D01*
X158141364Y-39108244D01*
G36*
X153894328Y-39353996D02*
G01*
X153732660Y-39267583D01*
X153667927Y-39247946D01*
X153894328Y-39247943D01*
X153894328Y-39353996D01*
G37*
X153894328Y-39353996D02*
X153732660Y-39267583D01*
X153667927Y-39247946D01*
X153894328Y-39247943D01*
X153894328Y-39353996D01*
G36*
X158176199Y-34904400D02*
G01*
X157785571Y-35165410D01*
X157453370Y-35497611D01*
X157192360Y-35888239D01*
X157012574Y-36322281D01*
X156920920Y-36783058D01*
X156920920Y-37252862D01*
X157012574Y-37713639D01*
X157192360Y-38147681D01*
X157451606Y-38535668D01*
X157332400Y-38523928D01*
X155426929Y-38523928D01*
X155488706Y-37876426D01*
X155696975Y-37166500D01*
X156035730Y-36508769D01*
X156492745Y-35926962D01*
X157051533Y-35442070D01*
X157691935Y-35071589D01*
X158190786Y-34898358D01*
X158176199Y-34904400D01*
G37*
X158176199Y-34904400D02*
X157785571Y-35165410D01*
X157453370Y-35497611D01*
X157192360Y-35888239D01*
X157012574Y-36322281D01*
X156920920Y-36783058D01*
X156920920Y-37252862D01*
X157012574Y-37713639D01*
X157192360Y-38147681D01*
X157451606Y-38535668D01*
X157332400Y-38523928D01*
X155426929Y-38523928D01*
X155488706Y-37876426D01*
X155696975Y-37166500D01*
X156035730Y-36508769D01*
X156492745Y-35926962D01*
X157051533Y-35442070D01*
X157691935Y-35071589D01*
X158190786Y-34898358D01*
X158176199Y-34904400D01*
G36*
X154942910Y-115409201D02*
G01*
X157131947Y-140518267D01*
X153075301Y-140401808D01*
X153075301Y-139467465D01*
X153079582Y-139423998D01*
X153075301Y-139380532D01*
X153075301Y-139380522D01*
X153062496Y-139250509D01*
X153011890Y-139083686D01*
X152929712Y-138929940D01*
X152819118Y-138795182D01*
X152785350Y-138767469D01*
X151154336Y-137136456D01*
X151126619Y-137102683D01*
X150991861Y-136992089D01*
X150838115Y-136909911D01*
X150671292Y-136859305D01*
X150541279Y-136846500D01*
X150541271Y-136846500D01*
X150497802Y-136842219D01*
X150454333Y-136846500D01*
X147678079Y-136846500D01*
X146165000Y-135333422D01*
X146165000Y-118680063D01*
X146169281Y-118636597D01*
X146165000Y-118593131D01*
X146165000Y-118593121D01*
X146152195Y-118463108D01*
X146101589Y-118296285D01*
X146019411Y-118142539D01*
X145908817Y-118007781D01*
X145875050Y-117980069D01*
X143619339Y-115724359D01*
X143626158Y-114626034D01*
X154942910Y-115409201D01*
G37*
X154942910Y-115409201D02*
X157131947Y-140518267D01*
X153075301Y-140401808D01*
X153075301Y-139467465D01*
X153079582Y-139423998D01*
X153075301Y-139380532D01*
X153075301Y-139380522D01*
X153062496Y-139250509D01*
X153011890Y-139083686D01*
X152929712Y-138929940D01*
X152819118Y-138795182D01*
X152785350Y-138767469D01*
X151154336Y-137136456D01*
X151126619Y-137102683D01*
X150991861Y-136992089D01*
X150838115Y-136909911D01*
X150671292Y-136859305D01*
X150541279Y-136846500D01*
X150541271Y-136846500D01*
X150497802Y-136842219D01*
X150454333Y-136846500D01*
X147678079Y-136846500D01*
X146165000Y-135333422D01*
X146165000Y-118680063D01*
X146169281Y-118636597D01*
X146165000Y-118593131D01*
X146165000Y-118593121D01*
X146152195Y-118463108D01*
X146101589Y-118296285D01*
X146019411Y-118142539D01*
X145908817Y-118007781D01*
X145875050Y-117980069D01*
X143619339Y-115724359D01*
X143626158Y-114626034D01*
X154942910Y-115409201D01*
M02*
